<svg width="116" height="36" viewBox="0 0 116 36" fill="none" xmlns="http://www.w3.org/2000/svg">
<rect width="116" height="36" rx="7" fill="#414345"/>
<path d="M51.644 13.8301V17.1772H52.1274C52.9429 17.1772 53.5654 17.0234 53.9951 16.7158C54.4297 16.4082 54.647 15.9639 54.647 15.3828C54.647 14.665 54.293 14.167 53.585 13.8887C53.2578 13.7617 52.9209 13.6982 52.5742 13.6982C52.2324 13.6982 51.9224 13.7422 51.644 13.8301ZM55.4673 20.1436C55.4673 18.8496 54.3394 18.2026 52.0835 18.2026H51.644V21.9746C51.9077 22.0625 52.2446 22.1064 52.6548 22.1064C53.5728 22.1064 54.271 21.938 54.7495 21.6011C55.228 21.2593 55.4673 20.7734 55.4673 20.1436ZM56.2656 21.7402C55.5625 22.668 54.3418 23.1318 52.6035 23.1318C51.7441 23.1318 50.9824 23.0562 50.3184 22.9048V12.9512C51.1289 12.7705 51.9688 12.6802 52.8379 12.6802C53.707 12.6802 54.459 12.8926 55.0938 13.3174C55.7334 13.7422 56.0532 14.2988 56.0532 14.9873C56.0532 15.6758 55.8848 16.23 55.5479 16.6499C55.2109 17.0698 54.7788 17.3506 54.2515 17.4922C55.5356 17.6631 56.3389 18.1855 56.6611 19.0596C56.7686 19.333 56.8223 19.6382 56.8223 19.9751C56.8223 20.6685 56.6367 21.2568 56.2656 21.7402ZM61.605 19.9092C59.8081 19.9092 58.9097 20.356 58.9097 21.2495C58.9097 21.4888 58.9829 21.7109 59.1294 21.916C59.2808 22.1211 59.4517 22.2236 59.6421 22.2236H59.9277C61.002 22.2236 61.5757 21.6597 61.6489 20.5317V19.9092H61.605ZM58.2358 16.4595C59.1147 16.1519 59.835 15.998 60.3965 15.998C60.958 15.998 61.4487 16.1372 61.8687 16.4155C62.2886 16.6938 62.5693 17.1064 62.7109 17.6533C62.7891 17.9609 62.8281 18.5884 62.8281 19.5356V21.8281C62.8281 22.2578 62.8623 22.6484 62.9307 23H61.7441C61.6807 22.7998 61.6489 22.5728 61.6489 22.3188V22.2676C61.5269 22.4141 61.3926 22.541 61.2461 22.6484C60.7871 22.9854 60.2988 23.1538 59.7812 23.1538C58.9121 23.1538 58.314 22.8438 57.9868 22.2236C57.8159 21.916 57.7305 21.6011 57.7305 21.2788C57.7305 20.4243 58.231 19.8066 59.2319 19.4258C59.8325 19.1963 60.5942 19.0815 61.5171 19.0815H61.6489V18.3418C61.6489 17.8047 61.5464 17.4385 61.3413 17.2432C61.1021 17.0186 60.7041 16.9062 60.1475 16.9062C59.5908 16.9062 58.9731 17.0625 58.2944 17.375L58.2358 16.4595ZM66.5195 22.187C67.3643 22.187 67.7866 21.8232 67.7866 21.0957C67.7866 20.6562 67.3838 20.3047 66.5781 20.041L65.8604 19.792C65.3477 19.6113 64.9668 19.355 64.7178 19.0229C64.4736 18.686 64.3516 18.2905 64.3516 17.8364C64.3516 17.3774 64.564 16.9575 64.9888 16.5767C65.4136 16.1909 65.958 15.998 66.6221 15.998C67.0615 15.998 67.4521 16.0566 67.7939 16.1738C68.1357 16.2861 68.3994 16.4155 68.585 16.562L68.1675 17.4409C68.0161 17.3188 67.8013 17.2041 67.5229 17.0967C67.2446 16.9893 66.9443 16.9355 66.6221 16.9355C66.3047 16.9355 66.0435 17.0308 65.8384 17.2212C65.6333 17.4116 65.5308 17.624 65.5308 17.8584C65.5308 18.0928 65.6089 18.2881 65.7651 18.4443C65.9214 18.6006 66.2363 18.7617 66.71 18.9277L67.4277 19.1768C67.9502 19.3574 68.3384 19.5942 68.5923 19.8872C68.8413 20.1851 68.9658 20.6147 68.9658 21.1763C68.9658 21.7378 68.751 22.2041 68.3213 22.5752C67.8916 22.9463 67.3057 23.1318 66.5635 23.1318C66.168 23.1318 65.7871 23.0903 65.4209 23.0073C65.0596 22.9292 64.6543 22.7607 64.2051 22.502L64.6299 21.5938C65.0059 21.8184 65.3257 21.9746 65.5894 22.0625C65.853 22.1455 66.1631 22.187 66.5195 22.187ZM75.2793 19.2866C75.2793 17.7192 74.7178 16.9355 73.5947 16.9355C73.3066 16.9355 73.043 17.0137 72.8037 17.1699C72.4375 17.4043 72.1494 17.79 71.9395 18.3271C71.8662 18.5127 71.8296 18.6592 71.8296 18.7666V23H70.6504V12.1968H71.8296V17.3896C72.269 16.4619 72.9844 15.998 73.9756 15.998C74.376 15.998 74.7349 16.0884 75.0522 16.269C75.3745 16.4448 75.626 16.6353 75.8066 16.8403C76.2412 17.3237 76.4585 18.0024 76.4585 18.8765V23H75.2793V19.2866Z" fill="#ECE9E6"/>
<path d="M12.6665 14L16.6665 18L12.6665 22M18.6665 22H23.9998M9.99984 10H25.9998C26.7362 10 27.3332 10.597 27.3332 11.3333V24.6667C27.3332 25.403 26.7362 26 25.9998 26H9.99984C9.26346 26 8.6665 25.403 8.6665 24.6667V11.3333C8.6665 10.597 9.26346 10 9.99984 10Z" stroke="white"/>
</svg>
