<svg width="116" height="36" viewBox="0 0 116 36" fill="none" xmlns="http://www.w3.org/2000/svg">
<rect width="116" height="36" rx="7" fill="#414345"/>
<path d="M50.8203 14.2188V17.7891H51.3359C52.2057 17.7891 52.8698 17.625 53.3281 17.2969C53.7917 16.9688 54.0234 16.4948 54.0234 15.875C54.0234 15.1094 53.6458 14.5781 52.8906 14.2812C52.5417 14.1458 52.1823 14.0781 51.8125 14.0781C51.4479 14.0781 51.1172 14.125 50.8203 14.2188ZM54.8984 20.9531C54.8984 19.5729 53.6953 18.8828 51.2891 18.8828H50.8203V22.9062C51.1016 23 51.4609 23.0469 51.8984 23.0469C52.8776 23.0469 53.6224 22.8672 54.1328 22.5078C54.6432 22.1432 54.8984 21.625 54.8984 20.9531ZM55.75 22.6562C55 23.6458 53.6979 24.1406 51.8438 24.1406C50.9271 24.1406 50.1146 24.0599 49.4062 23.8984V13.2812C50.2708 13.0885 51.1667 12.9922 52.0938 12.9922C53.0208 12.9922 53.8229 13.2188 54.5 13.6719C55.1823 14.125 55.5234 14.7188 55.5234 15.4531C55.5234 16.1875 55.3438 16.7786 54.9844 17.2266C54.625 17.6745 54.1641 17.974 53.6016 18.125C54.9714 18.3073 55.8281 18.8646 56.1719 19.7969C56.2865 20.0885 56.3438 20.4141 56.3438 20.7734C56.3438 21.513 56.1458 22.1406 55.75 22.6562ZM59.625 24.1406C58.5417 24.1406 58 23.4531 58 22.0781V12.4766H59.2578V22C59.2578 22.401 59.3359 22.6901 59.4922 22.8672C59.6536 23.0391 59.8021 23.125 59.9375 23.125C60.0729 23.125 60.3698 23.1042 60.8281 23.0625L60.9297 23.9766C60.4089 24.0859 59.974 24.1406 59.625 24.1406ZM66.0859 20.7031C64.1693 20.7031 63.2109 21.1797 63.2109 22.1328C63.2109 22.388 63.2891 22.625 63.4453 22.8438C63.6068 23.0625 63.7891 23.1719 63.9922 23.1719H64.2969C65.4427 23.1719 66.0547 22.5703 66.1328 21.3672V20.7031H66.0859ZM62.4922 17.0234C63.4297 16.6953 64.1979 16.5312 64.7969 16.5312C65.3958 16.5312 65.9193 16.6797 66.3672 16.9766C66.8151 17.2734 67.1146 17.7135 67.2656 18.2969C67.349 18.625 67.3906 19.2943 67.3906 20.3047V22.75C67.3906 23.2083 67.4271 23.625 67.5 24H66.2344C66.1667 23.7865 66.1328 23.5443 66.1328 23.2734V23.2188C66.0026 23.375 65.8594 23.5104 65.7031 23.625C65.2135 23.9844 64.6927 24.1641 64.1406 24.1641C63.2135 24.1641 62.5755 23.8333 62.2266 23.1719C62.0443 22.8438 61.9531 22.5078 61.9531 22.1641C61.9531 21.2526 62.487 20.5938 63.5547 20.1875C64.1953 19.9427 65.0078 19.8203 65.9922 19.8203H66.1328V19.0312C66.1328 18.4583 66.0234 18.0677 65.8047 17.8594C65.5495 17.6198 65.125 17.5 64.5312 17.5C63.9375 17.5 63.2786 17.6667 62.5547 18L62.4922 17.0234ZM69.2109 16.6719H75.2891L71 23H75.4141V24H68.8672L73.1562 17.6719H69.2109V16.6719ZM77.6719 20.3359C77.6719 20.8411 77.7344 21.2839 77.8594 21.6641C77.9896 22.0391 78.1615 22.3307 78.375 22.5391C78.5938 22.7422 78.8281 22.8932 79.0781 22.9922C79.3333 23.0859 79.6042 23.1328 79.8906 23.1328C80.474 23.1328 80.9766 22.9323 81.3984 22.5312C81.862 22.0885 82.0938 21.3568 82.0938 20.3359C82.0938 19.3203 81.862 18.5859 81.3984 18.1328C80.9714 17.737 80.4688 17.5391 79.8906 17.5391C79.3021 17.5391 78.7995 17.737 78.3828 18.1328C77.9089 18.5859 77.6719 19.3203 77.6719 20.3359ZM76.4141 20.3359C76.4141 18.7578 76.9219 17.6589 77.9375 17.0391C78.5 16.7005 79.151 16.5312 79.8906 16.5312C80.625 16.5312 81.2786 16.7005 81.8516 17.0391C82.1536 17.2266 82.4167 17.4609 82.6406 17.7422C83.125 18.3776 83.3672 19.2422 83.3672 20.3359C83.3672 21.9193 82.862 23.0156 81.8516 23.625C81.2891 23.9688 80.6354 24.1406 79.8906 24.1406C79.1406 24.1406 78.4896 23.9688 77.9375 23.625C77.6302 23.4427 77.3646 23.2083 77.1406 22.9219C76.6562 22.3021 76.4141 21.4401 76.4141 20.3359ZM85.125 24V16.6719H86.3828V18.0156C86.5703 17.6094 86.8359 17.2604 87.1797 16.9688C87.5286 16.6771 87.9219 16.5312 88.3594 16.5312C88.8021 16.5312 89.1641 16.6094 89.4453 16.7656C89.7318 16.9167 89.9219 17.0781 90.0156 17.25L89.4844 18.0469C89.4115 17.9531 89.3411 17.875 89.2734 17.8125C89.0807 17.625 88.7969 17.5312 88.4219 17.5312C88.0469 17.5312 87.7083 17.651 87.4062 17.8906C87.1042 18.1354 86.8646 18.4323 86.6875 18.7812C86.5104 19.1302 86.4089 19.4792 86.3828 19.8281V24H85.125Z" fill="url(#paint0_linear)"/>
<path d="M26.5512 14.8246C26.1908 17.0833 25.041 19.141 23.3063 20.6315C21.5715 22.122 19.3643 22.9487 17.0773 22.9645C16.6141 22.9823 16.1502 22.9542 15.6925 22.8805C13.7201 22.5453 12.2496 20.8783 12.1632 18.8795C12.1724 17.7976 12.6067 16.7627 13.3722 15.9982C14.965 14.4076 17.5394 14.3894 19.1545 15.9573C19.9308 16.711 20.3796 17.7396 20.4042 18.8212C20.4215 19.5044 20.1256 20.1036 19.5174 20.1209C18.8676 20.1209 18.563 19.6572 18.563 19.0323V17.2959C18.5635 16.7114 18.0923 16.236 17.5078 16.2314H16.0523C15.192 16.2254 14.3875 16.6565 13.916 17.3761C13.1489 18.5465 13.4759 20.1171 14.6463 20.8842C14.9469 21.0812 15.2859 21.212 15.6409 21.2679C16.4907 21.4017 17.3503 21.095 17.9236 20.4537L17.9745 20.3778L18.0254 20.462C18.381 20.9451 18.9546 21.2183 19.5537 21.1898C20.6472 21.1104 21.4777 20.1732 21.4251 19.0781C21.4302 18.6262 21.3795 18.1754 21.2743 17.7359C21.0044 16.4944 20.2845 15.3968 19.2533 14.6547C17.1178 13.1178 14.1665 13.441 12.4143 15.4038C11.5682 16.3516 11.1029 17.579 11.108 18.8495C11.1243 20.1967 11.662 21.4851 12.6083 22.4441C13.5545 23.4031 14.8356 23.9579 16.1824 23.992C16.1824 23.992 16.5635 24.0266 16.9933 24.0168C19.0821 24.0035 21.1238 23.3943 22.8785 22.2608C22.9034 22.2434 22.9284 22.2781 22.9118 22.3034C21.1828 24.166 18.7213 25.1727 16.1825 25.0555C14.5256 25.0856 12.9283 24.4371 11.7613 23.2604C10.5942 22.0837 9.95868 20.4812 10.0021 18.8244C10.0029 16.8425 10.9384 14.9771 12.5263 13.7911C13.5787 13.016 14.8506 12.5961 16.1576 12.5922H18.1111C19.654 12.5911 21.1254 11.9414 22.1657 10.8019C22.1766 10.7899 22.191 10.7816 22.2069 10.7784C22.2395 10.7713 22.2729 10.7859 22.2899 10.8146C22.2983 10.8286 22.302 10.8449 22.3007 10.8612C22.2179 11.7393 21.9256 12.5846 21.4483 13.3263C21.4339 13.3526 21.4363 13.385 21.4546 13.4088C21.4728 13.4326 21.5033 13.4434 21.5324 13.4365C23.3611 13.0234 24.8851 11.7666 25.6389 10.05C25.6483 10.0349 25.6613 10.0223 25.6768 10.0134C25.7085 9.99553 25.7472 9.99553 25.7789 10.0134C25.7944 10.0223 25.8074 10.0348 25.8168 10.05C26.5824 11.5167 26.8407 13.1956 26.5512 14.8246Z" fill="url(#paint1_linear)"/>
<path d="M16.1774 17.2743C15.3382 17.2741 14.6578 17.9542 14.6577 18.7933C14.6577 18.8931 14.6675 18.9925 14.6869 19.0903C14.8068 19.6931 15.278 20.1643 15.8808 20.2843C16.7038 20.448 17.5037 19.9135 17.6674 19.0904C17.6868 18.9927 17.6966 18.8933 17.6966 18.7937V17.3751C17.6938 17.3189 17.6488 17.274 17.5926 17.2711L16.1774 17.2743Z" fill="url(#paint2_linear)"/>
<defs>
<linearGradient id="paint0_linear" x1="48" y1="18.5" x2="91" y2="18.5" gradientUnits="userSpaceOnUse">
<stop stop-color="#8D2CE2"/>
<stop offset="1" stop-color="#4B00E0"/>
</linearGradient>
<linearGradient id="paint1_linear" x1="10" y1="18" x2="27" y2="18" gradientUnits="userSpaceOnUse">
<stop stop-color="#8D2CE2"/>
<stop offset="1" stop-color="#4B00E0"/>
</linearGradient>
<linearGradient id="paint2_linear" x1="10" y1="18" x2="27" y2="18" gradientUnits="userSpaceOnUse">
<stop stop-color="#8D2CE2"/>
<stop offset="1" stop-color="#4B00E0"/>
</linearGradient>
</defs>
</svg>
