<svg width="116" height="36" viewBox="0 0 116 36" fill="none" xmlns="http://www.w3.org/2000/svg">
<rect width="116" height="36" rx="7" fill="#414345"/>
<path d="M59.7812 23.0469C60.6927 23.0469 61.5729 22.7266 62.4219 22.0859L63.1094 23.0156C62.5573 23.4167 62.1016 23.6849 61.7422 23.8203C61.1693 24.0339 60.3828 24.1406 59.3828 24.1406C58.3828 24.1406 57.5 23.9062 56.7344 23.4375C55.9688 22.9688 55.3854 22.3151 54.9844 21.4766C54.5833 20.6328 54.3828 19.6615 54.3828 18.5625C54.3828 17.4635 54.5833 16.4948 54.9844 15.6562C55.3854 14.8177 55.9688 14.1641 56.7344 13.6953C57.5 13.2266 58.3932 12.9922 59.4141 12.9922C60.388 12.9922 61.0703 13.0651 61.4609 13.2109C61.8568 13.3568 62.1536 13.4896 62.3516 13.6094C62.5495 13.724 62.8021 13.8932 63.1094 14.1172L62.4219 15.0469C61.5729 14.4062 60.6927 14.0859 59.7812 14.0859H59.6875C59.1042 14.0859 58.5573 14.2109 58.0469 14.4609C57.1042 14.9193 56.4453 15.7318 56.0703 16.8984C55.8932 17.4349 55.8047 17.9922 55.8047 18.5703C55.8047 19.1484 55.8906 19.7057 56.0625 20.2422C56.2396 20.7734 56.4844 21.25 56.7969 21.6719C57.4896 22.5885 58.4531 23.0469 59.6875 23.0469H59.7812ZM67.9062 12.4766H68.9062L68.1406 16.1016H70.4531L71.2188 12.4766H72.2188L71.4531 16.1094H73.0859V16.9609H71.2734L70.6719 19.7891H72.3047V20.6406H70.4922L69.7812 24H68.7812L69.4922 20.6328H67.1797L66.4688 24H65.4688L66.1797 20.625H64.4688V19.7734H66.3594L66.9609 16.9453H65.25V16.0938H67.1406L67.9062 12.4766ZM67.3594 19.7812H69.6719L70.2734 16.9531H67.9609L67.3594 19.7812Z" fill="url(#paint0_linear)"/>
<path d="M20.6667 14.6668V21.3335M23.3333 14.6668V21.3335M18.6667 16.6668H25.3333M18.6667 19.3335H25.3333M18.6667 21.3335L18.1305 21.6016C17.6063 21.8637 17.0282 22.0002 16.4421 22.0002C14.357 22.0002 12.6667 20.3099 12.6667 18.2247V17.7756C12.6667 15.6905 14.357 14.0002 16.4421 14.0002C17.0282 14.0002 17.6063 14.1366 18.1305 14.3987L18.6667 14.6668M10 22.0002V14.0002L18 9.3335L26 14.0002V22.0002L18 26.6668L10 22.0002Z" stroke="#8224E1"/>
<defs>
<linearGradient id="paint0_linear" x1="54" y1="18.5" x2="74" y2="18.5" gradientUnits="userSpaceOnUse">
<stop stop-color="#8D2CE2"/>
<stop offset="1" stop-color="#4B00E0"/>
</linearGradient>
</defs>
</svg>
