<svg width="116" height="36" viewBox="0 0 116 36" fill="none" xmlns="http://www.w3.org/2000/svg">
<rect width="116" height="36" rx="7" fill="#414345"/>
<path d="M54.7812 23.0469C55.6927 23.0469 56.5729 22.7266 57.4219 22.0859L58.1094 23.0156C57.5573 23.4167 57.1016 23.6849 56.7422 23.8203C56.1693 24.0339 55.3828 24.1406 54.3828 24.1406C53.3828 24.1406 52.5 23.9062 51.7344 23.4375C50.9688 22.9688 50.3854 22.3151 49.9844 21.4766C49.5833 20.6328 49.3828 19.6615 49.3828 18.5625C49.3828 17.4635 49.5833 16.4948 49.9844 15.6562C50.3854 14.8177 50.9688 14.1641 51.7344 13.6953C52.5 13.2266 53.3932 12.9922 54.4141 12.9922C55.388 12.9922 56.0703 13.0651 56.4609 13.2109C56.8568 13.3568 57.1536 13.4896 57.3516 13.6094C57.5495 13.724 57.8021 13.8932 58.1094 14.1172L57.4219 15.0469C56.5729 14.4062 55.6927 14.0859 54.7812 14.0859H54.6875C54.1042 14.0859 53.5573 14.2109 53.0469 14.4609C52.1042 14.9193 51.4453 15.7318 51.0703 16.8984C50.8932 17.4349 50.8047 17.9922 50.8047 18.5703C50.8047 19.1484 50.8906 19.7057 51.0625 20.2422C51.2396 20.7734 51.4844 21.25 51.7969 21.6719C52.4896 22.5885 53.4531 23.0469 54.6875 23.0469H54.7812ZM60.0391 22.0234C60.1849 22.1276 60.3177 22.2292 60.4375 22.3281C60.5625 22.4271 60.7031 22.5208 60.8594 22.6094C61.0156 22.6927 61.1771 22.7656 61.3438 22.8281C61.7083 22.974 62.1172 23.0469 62.5703 23.0469C63.3307 23.0469 63.8542 22.862 64.1406 22.4922C64.3854 22.1745 64.5078 21.862 64.5078 21.5547C64.5078 21.2422 64.4766 20.9974 64.4141 20.8203C64.2943 20.513 64.0547 20.224 63.6953 19.9531C63.5443 19.849 63.3646 19.737 63.1562 19.6172L61.875 18.9844C61.3958 18.724 61.0312 18.4714 60.7812 18.2266C60.5312 17.9818 60.3438 17.7552 60.2188 17.5469C59.9427 17.0833 59.8047 16.4818 59.8047 15.7422C59.8047 15.0026 60.0729 14.3594 60.6094 13.8125C61.1458 13.2656 61.8438 12.9922 62.7031 12.9922C63.25 12.9922 63.7396 13.0625 64.1719 13.2031C64.6094 13.3438 64.9557 13.513 65.2109 13.7109L64.9141 14.7891C64.2943 14.3099 63.5911 14.0703 62.8047 14.0703C62.3099 14.0703 61.9219 14.2344 61.6406 14.5625C61.3646 14.8906 61.2266 15.3125 61.2266 15.8281C61.2266 16.0625 61.2656 16.276 61.3438 16.4688C61.474 16.8125 61.7448 17.1198 62.1562 17.3906C62.3177 17.5052 62.5417 17.625 62.8281 17.75L64.0547 18.375C64.2734 18.4948 64.4661 18.6146 64.6328 18.7344C64.8047 18.849 64.974 18.9896 65.1406 19.1562C65.6667 19.6823 65.9297 20.362 65.9297 21.1953C65.9297 22.0234 65.6458 22.7214 65.0781 23.2891C64.5104 23.8568 63.7708 24.1406 62.8594 24.1406C61.8594 24.1406 61.0365 23.9635 60.3906 23.6094C60.0417 23.4219 59.7656 23.2578 59.5625 23.1172L60.0391 22.0234ZM67.9141 22.0234C68.0599 22.1276 68.1927 22.2292 68.3125 22.3281C68.4375 22.4271 68.5781 22.5208 68.7344 22.6094C68.8906 22.6927 69.0521 22.7656 69.2188 22.8281C69.5833 22.974 69.9922 23.0469 70.4453 23.0469C71.2057 23.0469 71.7292 22.862 72.0156 22.4922C72.2604 22.1745 72.3828 21.862 72.3828 21.5547C72.3828 21.2422 72.3516 20.9974 72.2891 20.8203C72.1693 20.513 71.9297 20.224 71.5703 19.9531C71.4193 19.849 71.2396 19.737 71.0312 19.6172L69.75 18.9844C69.2708 18.724 68.9062 18.4714 68.6562 18.2266C68.4062 17.9818 68.2188 17.7552 68.0938 17.5469C67.8177 17.0833 67.6797 16.4818 67.6797 15.7422C67.6797 15.0026 67.9479 14.3594 68.4844 13.8125C69.0208 13.2656 69.7188 12.9922 70.5781 12.9922C71.125 12.9922 71.6146 13.0625 72.0469 13.2031C72.4844 13.3438 72.8307 13.513 73.0859 13.7109L72.7891 14.7891C72.1693 14.3099 71.4661 14.0703 70.6797 14.0703C70.1849 14.0703 69.7969 14.2344 69.5156 14.5625C69.2396 14.8906 69.1016 15.3125 69.1016 15.8281C69.1016 16.0625 69.1406 16.276 69.2188 16.4688C69.349 16.8125 69.6198 17.1198 70.0312 17.3906C70.1927 17.5052 70.4167 17.625 70.7031 17.75L71.9297 18.375C72.1484 18.4948 72.3411 18.6146 72.5078 18.7344C72.6797 18.849 72.849 18.9896 73.0156 19.1562C73.5417 19.6823 73.8047 20.362 73.8047 21.1953C73.8047 22.0234 73.5208 22.7214 72.9531 23.2891C72.3854 23.8568 71.6458 24.1406 70.7344 24.1406C69.7344 24.1406 68.9115 23.9635 68.2656 23.6094C67.9167 23.4219 67.6406 23.2578 67.4375 23.1172L67.9141 22.0234ZM80.1641 18.1641C80.1641 19.1276 79.6927 19.8698 78.75 20.3906C79.4167 20.6458 79.9089 21 80.2266 21.4531C80.5547 21.9531 80.7188 22.5911 80.7188 23.3672C80.7188 24.2995 80.401 25.0885 79.7656 25.7344C79.1094 26.401 78.276 26.7344 77.2656 26.7344C76.2604 26.7344 75.4531 26.4948 74.8438 26.0156L75.3516 25.2031C75.8724 25.5521 76.4714 25.7266 77.1484 25.7266C77.8307 25.7266 78.3828 25.4974 78.8047 25.0391C79.2318 24.5859 79.4453 24.0078 79.4453 23.3047C79.4453 22.6016 79.2083 22.0469 78.7344 21.6406C78.2604 21.2344 77.6927 21.0312 77.0312 21.0312H76.3906V20.0312H76.8125C77.2917 20.0312 77.7448 19.8958 78.1719 19.625C78.3854 19.4896 78.5573 19.2943 78.6875 19.0391C78.8229 18.7839 78.8906 18.5104 78.8906 18.2188C78.8906 17.6667 78.7083 17.2604 78.3438 17C78 16.776 77.6042 16.6641 77.1562 16.6641C76.7135 16.6641 76.224 16.7812 75.6875 17.0156L75.3594 16.1406C75.625 16.0052 75.9401 15.8932 76.3047 15.8047C76.6693 15.7109 77.0339 15.6641 77.3984 15.6641C77.763 15.6641 78.1198 15.7161 78.4688 15.8203C79.0885 16.0026 79.5391 16.3333 79.8203 16.8125C80.0495 17.1927 80.1641 17.6432 80.1641 18.1641Z" fill="url(#paint0_linear)"/>
<path d="M13.3332 12.6665H21.9998V16.6665M15.9998 16.6665H21.9998M21.9998 16.6665V20.6665L17.9998 21.9998L13.9998 20.6665V18.6665M8.6665 8.6665H27.3332L25.9998 24.6665L17.9998 27.3332L9.99984 24.6665L8.6665 8.6665Z" stroke="#009CFF"/>
<defs>
<linearGradient id="paint0_linear" x1="49" y1="18.5" x2="82" y2="18.5" gradientUnits="userSpaceOnUse">
<stop stop-color="#00C3FF"/>
<stop offset="1" stop-color="#0074FF"/>
</linearGradient>
</defs>
</svg>
