<svg width="116" height="36" viewBox="0 0 116 36" fill="none" xmlns="http://www.w3.org/2000/svg">
<rect width="116" height="36" rx="7" fill="#414345"/>
<path d="M17.9003 8.00018C14.0361 7.97518 10.4528 10.506 9.33859 14.4293C7.96775 19.2585 10.8886 24.2585 15.7678 25.4377V28.0002L16.2894 27.9218C21.8853 27.0818 26.1861 22.7102 26.5153 17.5285C26.7303 14.161 25.0194 10.8085 22.2586 9.18685C21.7335 8.87563 21.1746 8.6254 20.5928 8.44102C19.7235 8.1556 18.8152 8.00688 17.9003 8.00018V8.00018ZM17.8303 8.90602H17.8411C18.6836 8.90602 19.5203 9.04018 20.3211 9.30352C20.836 9.46666 21.3306 9.6881 21.7953 9.96352C24.2703 11.4168 25.8028 14.4327 25.6086 17.4702C25.3169 22.0702 21.5953 25.9768 16.6753 26.9368V24.7002L16.3086 24.6293C14.3655 24.2595 12.6307 23.1769 11.4446 21.5941C10.2584 20.0113 9.70645 18.0423 9.89698 16.0736C10.0875 14.1048 11.0068 12.2782 12.4745 10.9522C13.9421 9.6262 15.8523 8.89642 17.8303 8.90602V8.90602ZM19.5319 12.4943C19.401 12.479 19.2684 12.4963 19.1458 12.5448C19.0232 12.5932 18.9145 12.6712 18.8294 12.7718C18.7112 12.9373 18.6091 13.1136 18.5244 13.2985C18.2569 13.9177 18.1611 14.801 18.5603 15.286L18.5594 15.2885C18.9073 15.1864 19.2296 15.0117 19.5051 14.776C19.7806 14.5403 20.003 14.2489 20.1578 13.921C20.2449 13.7393 20.2918 13.5409 20.2953 13.3393C20.2998 13.1277 20.2232 12.9224 20.0813 12.7653C19.9395 12.6082 19.7429 12.5113 19.5319 12.4943ZM16.1478 12.571C15.9411 12.5889 15.7483 12.6822 15.606 12.8331C15.4637 12.984 15.3819 13.182 15.3761 13.3893C15.3844 13.5902 15.4344 13.7877 15.5261 13.9677C15.7061 14.2956 15.9515 14.5832 16.247 14.8125C16.5426 15.0418 16.882 15.2081 17.2444 15.301C17.5886 14.8068 17.4244 13.926 17.1461 13.3127C17.0674 13.1376 16.9614 12.9761 16.8319 12.8343C16.7483 12.7376 16.6421 12.663 16.5228 12.6171C16.4035 12.5712 16.2746 12.5553 16.1478 12.571V12.571ZM14.1236 14.6668C13.4086 14.696 13.1236 15.6052 13.6936 16.0377C13.8586 16.1593 14.0353 16.2652 14.2203 16.3543C14.5547 16.4988 14.9167 16.5685 15.2809 16.5584C15.6451 16.5483 16.0026 16.4588 16.3286 16.296C16.2008 15.963 16.0069 15.6592 15.7586 15.4032C15.5102 15.1471 15.2126 14.9439 14.8836 14.806C14.6447 14.7005 14.3843 14.6528 14.1236 14.6668V14.6668ZM20.5919 17.3468C20.2382 17.3628 19.8908 17.4466 19.5686 17.5935C19.6945 17.9223 19.8865 18.2217 20.1327 18.4733C20.379 18.7248 20.6742 18.9232 21.0003 19.056C21.1969 19.1435 21.4086 19.1902 21.6228 19.1943C21.7913 19.214 21.9617 19.1779 22.1078 19.0917C22.254 19.0054 22.3679 18.8738 22.4322 18.7167C22.4965 18.5597 22.5077 18.3859 22.464 18.2219C22.4203 18.0579 22.3242 17.9127 22.1903 17.8085C21.6411 17.4252 21.2694 17.3293 20.5919 17.3468V17.3468ZM15.7169 17.3718C15.4694 17.3618 15.1878 17.3802 14.8978 17.3935C14.4319 17.3935 13.8744 17.6252 13.6528 17.8643C13.0736 18.3727 13.4961 19.3235 14.2611 19.2343C14.4764 19.2356 14.6893 19.188 14.8836 19.0952C15.5036 18.8268 16.2403 18.0935 16.3286 17.5202C16.1769 17.4202 15.9636 17.3827 15.7161 17.3718H15.7169ZM17.4553 18.3835C16.7361 18.6502 16.1553 19.196 15.8469 19.8977C15.7592 20.0742 15.7116 20.2681 15.7078 20.4652C15.6911 21.2218 16.6169 21.5993 17.1336 21.0468C17.2503 20.881 17.3519 20.7052 17.4353 20.5202C17.7036 19.9452 17.8094 18.9135 17.4553 18.3835V18.3835ZM18.7028 18.5277C18.5333 18.8373 18.4366 19.1815 18.4198 19.534C18.4031 19.8866 18.4668 20.2384 18.6061 20.5627C18.6803 20.7385 18.7811 20.9027 18.9078 21.046C19.3886 21.5685 20.4161 21.201 20.3769 20.521C20.3745 20.3194 20.3269 20.121 20.2378 19.9402C20.0967 19.6094 19.8869 19.3123 19.6222 19.0688C19.3576 18.8253 19.0441 18.6408 18.7028 18.5277Z" fill="#23D96C"/>
<path d="M47.3359 21.2852C48.0195 21.2852 48.6797 21.0449 49.3164 20.5645L49.832 21.2617C49.418 21.5625 49.0762 21.7637 48.8066 21.8652C48.377 22.0254 47.7871 22.1055 47.0371 22.1055C46.2871 22.1055 45.625 21.9297 45.0508 21.5781C44.4766 21.2266 44.0391 20.7363 43.7383 20.1074C43.4375 19.4746 43.2871 18.7461 43.2871 17.9219C43.2871 17.0977 43.4375 16.3711 43.7383 15.7422C44.0391 15.1133 44.4766 14.623 45.0508 14.2715C45.625 13.9199 46.2949 13.7441 47.0605 13.7441C47.791 13.7441 48.3027 13.7988 48.5957 13.9082C48.8926 14.0176 49.1152 14.1172 49.2637 14.207C49.4121 14.293 49.6016 14.4199 49.832 14.5879L49.3164 15.2852C48.6797 14.8047 48.0195 14.5645 47.3359 14.5645H47.2656C46.8281 14.5645 46.418 14.6582 46.0352 14.8457C45.3281 15.1895 44.834 15.7988 44.5527 16.6738C44.4199 17.0762 44.3535 17.4941 44.3535 17.9277C44.3535 18.3613 44.418 18.7793 44.5469 19.1816C44.6797 19.5801 44.8633 19.9375 45.0977 20.2539C45.6172 20.9414 46.3398 21.2852 47.2656 21.2852H47.3359ZM55.0234 20.9922C54.6719 21.7344 54.0996 22.1055 53.3066 22.1055C52.9863 22.1055 52.6973 22.0352 52.4395 21.8945C52.1855 21.75 51.9844 21.5957 51.8359 21.4316C51.6914 21.2676 51.5703 21.0449 51.4727 20.7637C51.3711 20.4824 51.3203 20.1621 51.3203 19.8027V16.5039H52.2637V19.4746C52.2637 20.7285 52.7129 21.3555 53.6113 21.3555C53.8418 21.3555 54.0527 21.293 54.2441 21.168C54.5371 20.9805 54.7676 20.6719 54.9355 20.2422C54.9941 20.0938 55.0234 19.9766 55.0234 19.8906V16.5039H55.9668V22H55.0234V20.9922ZM60.1504 21.3496C60.6074 21.3496 61.0469 21.1953 61.4688 20.8867L61.832 21.5195C61.5234 21.7461 61.248 21.9004 61.0059 21.9824C60.7637 22.0645 60.3984 22.1055 59.9102 22.1055C59.1055 22.1055 58.4668 21.8457 57.9941 21.3262C57.5254 20.8066 57.291 20.1152 57.291 19.252C57.291 18.3887 57.5254 17.6973 57.9941 17.1777C58.4668 16.6582 59.1055 16.3984 59.9102 16.3984C60.3984 16.3984 60.7637 16.4395 61.0059 16.5215C61.248 16.6035 61.5234 16.7578 61.832 16.9844L61.4688 17.6172C61.0469 17.3086 60.6074 17.1543 60.1504 17.1543H60.1152C59.5449 17.1543 59.0879 17.3594 58.7441 17.7695C58.4043 18.1797 58.2344 18.6738 58.2344 19.252C58.2344 19.8301 58.4043 20.3242 58.7441 20.7344C59.0879 21.1445 59.5449 21.3496 60.1152 21.3496H60.1504ZM66.8008 20.9922C66.4492 21.7344 65.877 22.1055 65.084 22.1055C64.7637 22.1055 64.4746 22.0352 64.2168 21.8945C63.9629 21.75 63.7617 21.5957 63.6133 21.4316C63.4688 21.2676 63.3477 21.0449 63.25 20.7637C63.1484 20.4824 63.0977 20.1621 63.0977 19.8027V16.5039H64.041V19.4746C64.041 20.7285 64.4902 21.3555 65.3887 21.3555C65.6191 21.3555 65.8301 21.293 66.0215 21.168C66.3145 20.9805 66.5449 20.6719 66.7129 20.2422C66.7715 20.0938 66.8008 19.9766 66.8008 19.8906V16.5039H67.7441V22H66.8008V20.9922ZM73.0879 19.252C73.0879 17.8496 72.6699 17.1484 71.834 17.1484C71.6074 17.1484 71.4023 17.2324 71.2188 17.4004C71.0352 17.5684 70.8945 17.7734 70.7969 18.0156C70.6758 18.2617 70.6152 18.5176 70.6152 18.7832V22H69.6719V16.5039H70.6152V17.377C70.7363 17.0918 70.9141 16.8574 71.1484 16.6738C71.3867 16.4902 71.6816 16.3984 72.0332 16.3984C72.916 16.3984 73.502 16.8379 73.791 17.7168C74.0996 16.8379 74.6426 16.3984 75.4199 16.3984C76.0645 16.3984 76.5527 16.6387 76.8848 17.1191C77.2207 17.5996 77.3887 18.3105 77.3887 19.252V21.9941L76.4746 22V19.252C76.4746 17.8496 76.0566 17.1484 75.2207 17.1484C74.9941 17.1484 74.7891 17.2324 74.6055 17.4004C74.4219 17.5684 74.2812 17.7734 74.1836 18.0156C74.0625 18.2617 74.002 18.5176 74.002 18.7832V22H73.0879V19.252ZM81.8359 17.1484C81.1992 17.1484 80.6738 17.5 80.2598 18.2031V21.1328C80.4863 21.2773 80.7891 21.3496 81.168 21.3496C82.1914 21.3496 82.8496 20.8965 83.1426 19.9902C83.2246 19.7246 83.2656 19.4258 83.2656 19.0938C83.2656 18.7578 83.2227 18.457 83.1367 18.1914C82.9961 17.7305 82.7324 17.416 82.3457 17.248C82.1855 17.1816 82.0156 17.1484 81.8359 17.1484ZM80.2598 17.1484C80.5137 16.8633 80.7715 16.668 81.0332 16.5625C81.2949 16.4531 81.582 16.3984 81.8945 16.3984C82.5273 16.3984 83.0625 16.6133 83.5 17.043C83.7188 17.2578 83.8906 17.5488 84.0156 17.916C84.1445 18.2793 84.209 18.6719 84.209 19.0938C84.209 20.207 83.793 21.0508 82.9609 21.625C82.4883 21.9453 81.9805 22.1055 81.4375 22.1055C80.6445 22.1055 79.9375 21.9141 79.3164 21.5312V13.3574H80.2598V17.1484ZM87.4961 17.1484C86.9531 17.1484 86.5469 17.3125 86.2773 17.6406C86.0898 17.8672 85.9668 18.1875 85.9082 18.6016H88.75C88.7148 18.1758 88.5879 17.8262 88.3691 17.5527C88.1465 17.2832 87.8555 17.1484 87.4961 17.1484ZM89.4766 21.6777C89.0547 21.9629 88.4844 22.1055 87.7656 22.1055C86.8555 22.1055 86.1543 21.8457 85.6621 21.3262C85.1699 20.8066 84.9238 20.1152 84.9238 19.252C84.9238 18.127 85.2891 17.3125 86.0195 16.8086C86.4258 16.5352 86.8789 16.3984 87.3789 16.3984C88.1523 16.3984 88.7383 16.6602 89.1367 17.1836C89.4727 17.6328 89.6523 18.2227 89.6758 18.9531L89.5352 19.3047H85.8672C85.875 19.9531 86.0488 20.457 86.3887 20.8164C86.7285 21.1719 87.1816 21.3496 87.748 21.3496C88.1777 21.3496 88.6699 21.2344 89.2246 21.0039L89.4766 21.6777ZM91.0352 22V16.5039H91.9785V17.5117C92.1191 17.207 92.3184 16.9453 92.5762 16.7266C92.8379 16.5078 93.1328 16.3984 93.4609 16.3984C93.793 16.3984 94.0645 16.457 94.2754 16.5742C94.4902 16.6875 94.6328 16.8086 94.7031 16.9375L94.3047 17.5352C94.25 17.4648 94.1973 17.4062 94.1465 17.3594C94.002 17.2188 93.7891 17.1484 93.5078 17.1484C93.2266 17.1484 92.9727 17.2383 92.7461 17.418C92.5195 17.6016 92.3398 17.8242 92.207 18.0859C92.0742 18.3477 91.998 18.6094 91.9785 18.8711V22H91.0352Z" fill="url(#paint0_linear)"/>
<defs>
<linearGradient id="paint0_linear" x1="43" y1="18" x2="95" y2="18" gradientUnits="userSpaceOnUse">
<stop stop-color="#00F3A4"/>
<stop offset="1" stop-color="#23D96C"/>
</linearGradient>
</defs>
</svg>
