<svg width="116" height="36" viewBox="0 0 116 36" fill="none" xmlns="http://www.w3.org/2000/svg">
<rect width="116" height="36" rx="7" fill="#414345"/>
<path d="M51.6016 22.7266C50.4661 23.6693 49.026 24.1406 47.2812 24.1406C46.3385 24.1406 45.3802 24.0599 44.4062 23.8984V13.2812C45.5052 13.0885 46.4089 12.9922 47.1172 12.9922C49.2005 12.9922 50.8672 13.6823 52.1172 15.0625C52.5078 15.5052 52.8177 16.0312 53.0469 16.6406C53.276 17.25 53.3906 17.9479 53.3906 18.7344C53.3906 19.5156 53.2266 20.263 52.8984 20.9766C52.5755 21.6901 52.1432 22.2734 51.6016 22.7266ZM45.8203 14.2188L45.8125 22.9062C46.2917 23 46.8073 23.0469 47.3594 23.0469C48.5208 23.0469 49.5547 22.6745 50.4609 21.9297C50.8984 21.5755 51.25 21.112 51.5156 20.5391C51.7865 19.9609 51.9219 19.3542 51.9219 18.7188C51.9219 17.0156 51.2188 15.7161 49.8125 14.8203C49.026 14.3255 48.1771 14.0781 47.2656 14.0781C46.7083 14.0781 46.2266 14.125 45.8203 14.2188ZM55.4844 20.3359C55.4844 20.8411 55.5469 21.2839 55.6719 21.6641C55.8021 22.0391 55.974 22.3307 56.1875 22.5391C56.4062 22.7422 56.6406 22.8932 56.8906 22.9922C57.1458 23.0859 57.4167 23.1328 57.7031 23.1328C58.2865 23.1328 58.7891 22.9323 59.2109 22.5312C59.6745 22.0885 59.9062 21.3568 59.9062 20.3359C59.9062 19.3203 59.6745 18.5859 59.2109 18.1328C58.7839 17.737 58.2812 17.5391 57.7031 17.5391C57.1146 17.5391 56.612 17.737 56.1953 18.1328C55.7214 18.5859 55.4844 19.3203 55.4844 20.3359ZM54.2266 20.3359C54.2266 18.7578 54.7344 17.6589 55.75 17.0391C56.3125 16.7005 56.9635 16.5312 57.7031 16.5312C58.4375 16.5312 59.0911 16.7005 59.6641 17.0391C59.9661 17.2266 60.2292 17.4609 60.4531 17.7422C60.9375 18.3776 61.1797 19.2422 61.1797 20.3359C61.1797 21.9193 60.6745 23.0156 59.6641 23.625C59.1016 23.9688 58.4479 24.1406 57.7031 24.1406C56.9531 24.1406 56.3021 23.9688 55.75 23.625C55.4427 23.4427 55.1771 23.2083 54.9531 22.9219C54.4688 22.3021 54.2266 21.4401 54.2266 20.3359ZM65.9453 23.1328C66.5547 23.1328 67.1406 22.9271 67.7031 22.5156L68.1875 23.3594C67.776 23.6615 67.4089 23.8672 67.0859 23.9766C66.763 24.0859 66.276 24.1406 65.625 24.1406C64.5521 24.1406 63.7005 23.7943 63.0703 23.1016C62.4453 22.4089 62.1328 21.487 62.1328 20.3359C62.1328 19.1849 62.4453 18.263 63.0703 17.5703C63.7005 16.8776 64.5521 16.5312 65.625 16.5312C66.276 16.5312 66.763 16.5859 67.0859 16.6953C67.4089 16.8047 67.776 17.0104 68.1875 17.3125L67.7031 18.1562C67.1406 17.7448 66.5547 17.5391 65.9453 17.5391H65.8984C65.138 17.5391 64.5286 17.8125 64.0703 18.3594C63.6172 18.9062 63.3906 19.5651 63.3906 20.3359C63.3906 21.1068 63.6172 21.7656 64.0703 22.3125C64.5286 22.8594 65.138 23.1328 65.8984 23.1328H65.9453ZM71.1328 24H69.875V12.4766H71.1328V19.125L73.625 16.6719H75.1875L72.1719 19.6094L75.7266 24H74.1719L71.1328 20.2578V24ZM79.8125 17.5312C79.0885 17.5312 78.5469 17.75 78.1875 18.1875C77.9375 18.4896 77.7734 18.9167 77.6953 19.4688H81.4844C81.4375 18.901 81.2682 18.4349 80.9766 18.0703C80.6797 17.7109 80.2917 17.5312 79.8125 17.5312ZM82.4531 23.5703C81.8906 23.9505 81.1302 24.1406 80.1719 24.1406C78.9583 24.1406 78.0234 23.7943 77.3672 23.1016C76.7109 22.4089 76.3828 21.487 76.3828 20.3359C76.3828 18.8359 76.8698 17.75 77.8438 17.0781C78.3854 16.7135 78.9896 16.5312 79.6562 16.5312C80.6875 16.5312 81.4688 16.8802 82 17.5781C82.4479 18.1771 82.6875 18.9635 82.7188 19.9375L82.5312 20.4062H77.6406C77.651 21.2708 77.8828 21.9427 78.3359 22.4219C78.7891 22.8958 79.3932 23.1328 80.1484 23.1328C80.7214 23.1328 81.3776 22.9792 82.1172 22.6719L82.4531 23.5703ZM84.5312 24V16.6719H85.7891V18.0156C85.9766 17.6094 86.2422 17.2604 86.5859 16.9688C86.9349 16.6771 87.3281 16.5312 87.7656 16.5312C88.2083 16.5312 88.5703 16.6094 88.8516 16.7656C89.138 16.9167 89.3281 17.0781 89.4219 17.25L88.8906 18.0469C88.8177 17.9531 88.7474 17.875 88.6797 17.8125C88.487 17.625 88.2031 17.5312 87.8281 17.5312C87.4531 17.5312 87.1146 17.651 86.8125 17.8906C86.5104 18.1354 86.2708 18.4323 86.0938 18.7812C85.9167 19.1302 85.8151 19.4792 85.7891 19.8281V24H84.5312Z" fill="url(#paint0_linear)"/>
<path d="M8.6665 15.3333V14.8333H8.1665V15.3333H8.6665ZM11.3332 12.6667V12.1667H10.8332V12.6667H11.3332ZM16.6665 10V9.5H16.1665V10H16.6665ZM19.3332 10H19.8332V9.5H19.3332V10ZM24.6665 18H24.1665V18.5H24.6665V18ZM24.0446 21.7341L23.6295 21.4553L24.0446 21.7341ZM9.1665 18V15.3333H8.1665V18H9.1665ZM11.8332 18V12.6667H10.8332V18H11.8332ZM11.3332 13.1667H19.3332V12.1667H11.3332V13.1667ZM18.8332 12.6667V18H19.8332V12.6667H18.8332ZM14.4998 18V12.6667H13.4998V18H14.4998ZM17.1665 18V10H16.1665V18H17.1665ZM16.6665 10.5H19.3332V9.5H16.6665V10.5ZM18.8332 10V12.6667H19.8332V10H18.8332ZM25.9026 21.1667H27.9998V20.1667H25.9026V21.1667ZM21.4998 14.6667V16H22.4998V14.6667H21.4998ZM24.1665 16.6667V18H25.1665V16.6667H24.1665ZM24.6665 18.5H25.9998V17.5H24.6665V18.5ZM26.8332 19.3333V20.6667H27.8332V19.3333H26.8332ZM25.9998 18.5C26.4601 18.5 26.8332 18.8731 26.8332 19.3333H27.8332C27.8332 18.3208 27.0124 17.5 25.9998 17.5V18.5ZM23.3332 15.8333C23.7934 15.8333 24.1665 16.2064 24.1665 16.6667H25.1665C25.1665 15.6541 24.3457 14.8333 23.3332 14.8333V15.8333ZM11.9998 21.1667H13.3332V20.1667H11.9998V21.1667ZM19.9998 17.5H8.6665V18.5H19.9998V17.5ZM8.1665 18V19.3333H9.1665V18H8.1665ZM15.3332 26.5H16.037V25.5H15.3332V26.5ZM16.037 26.5C19.4436 26.5 22.591 24.7942 24.4596 22.013L23.6295 21.4553C21.9451 23.9624 19.1078 25.5 16.037 25.5V26.5ZM8.1665 19.3333C8.1665 23.2914 11.3751 26.5 15.3332 26.5V25.5C11.9274 25.5 9.1665 22.7391 9.1665 19.3333H8.1665ZM8.6665 15.8333H23.3332V14.8333H8.6665V15.8333ZM21.4998 16C21.4998 16.8284 20.8283 17.5 19.9998 17.5V18.5C21.3805 18.5 22.4998 17.3807 22.4998 16H21.4998ZM25.9026 20.1667C24.945 20.1667 24.1245 20.7186 23.6295 21.4553L24.4596 22.013C24.8095 21.4921 25.345 21.1667 25.9026 21.1667V20.1667Z" fill="#1CA7EA"/>
<defs>
<linearGradient id="paint0_linear" x1="43" y1="18.5" x2="90" y2="18.5" gradientUnits="userSpaceOnUse">
<stop stop-color="#01D0FE"/>
<stop offset="1" stop-color="#397CD5"/>
</linearGradient>
</defs>
</svg>
