<svg width="116" height="36" viewBox="0 0 116 36" fill="none" xmlns="http://www.w3.org/2000/svg">
<rect width="116" height="36" rx="7" fill="url(#paint0_linear)"/>
<path d="M42.3203 24V12.625H45.5312C46.5208 12.625 47.3958 12.8438 48.1562 13.2812C48.9167 13.7188 49.5026 14.3411 49.9141 15.1484C50.3307 15.9557 50.5417 16.8828 50.5469 17.9297V18.6562C50.5469 19.7292 50.3385 20.6693 49.9219 21.4766C49.5104 22.2839 48.9193 22.9036 48.1484 23.3359C47.3828 23.7682 46.4896 23.9896 45.4688 24H42.3203ZM43.8203 13.8594V22.7734H45.3984C46.5547 22.7734 47.4531 22.4141 48.0938 21.6953C48.7396 20.9766 49.0625 19.9531 49.0625 18.625V17.9609C49.0625 16.6693 48.7578 15.6667 48.1484 14.9531C47.5443 14.2344 46.6849 13.8698 45.5703 13.8594H43.8203ZM56.6797 16.8438C56.4609 16.8073 56.224 16.7891 55.9688 16.7891C55.0208 16.7891 54.3776 17.1927 54.0391 18V24H52.5938V15.5469H54L54.0234 16.5234C54.4974 15.7682 55.1693 15.3906 56.0391 15.3906C56.3203 15.3906 56.5339 15.4271 56.6797 15.5V16.8438ZM59.5859 24H58.1406V15.5469H59.5859V24ZM58.0234 13.3047C58.0234 13.0703 58.0938 12.8724 58.2344 12.7109C58.3802 12.5495 58.5938 12.4688 58.875 12.4688C59.1562 12.4688 59.3698 12.5495 59.5156 12.7109C59.6615 12.8724 59.7344 13.0703 59.7344 13.3047C59.7344 13.5391 59.6615 13.7344 59.5156 13.8906C59.3698 14.0469 59.1562 14.125 58.875 14.125C58.5938 14.125 58.3802 14.0469 58.2344 13.8906C58.0938 13.7344 58.0234 13.5391 58.0234 13.3047ZM69.0625 19.8672C69.0625 21.1589 68.7656 22.1979 68.1719 22.9844C67.5781 23.7656 66.7812 24.1562 65.7812 24.1562C64.7135 24.1562 63.888 23.7786 63.3047 23.0234L63.2344 24H61.9062V12H63.3516V16.4766C63.9349 15.7526 64.7396 15.3906 65.7656 15.3906C66.7917 15.3906 67.5964 15.7786 68.1797 16.5547C68.7682 17.3307 69.0625 18.3932 69.0625 19.7422V19.8672ZM67.6172 19.7031C67.6172 18.7188 67.4271 17.9583 67.0469 17.4219C66.6667 16.8854 66.1198 16.6172 65.4062 16.6172C64.4531 16.6172 63.7682 17.0599 63.3516 17.9453V21.6016C63.7943 22.487 64.4844 22.9297 65.4219 22.9297C66.1146 22.9297 66.6536 22.6615 67.0391 22.125C67.4245 21.5885 67.6172 20.7812 67.6172 19.7031ZM78.0469 19.8672C78.0469 21.1589 77.75 22.1979 77.1562 22.9844C76.5625 23.7656 75.7656 24.1562 74.7656 24.1562C73.6979 24.1562 72.8724 23.7786 72.2891 23.0234L72.2188 24H70.8906V12H72.3359V16.4766C72.9193 15.7526 73.724 15.3906 74.75 15.3906C75.776 15.3906 76.5807 15.7786 77.1641 16.5547C77.7526 17.3307 78.0469 18.3932 78.0469 19.7422V19.8672ZM76.6016 19.7031C76.6016 18.7188 76.4115 17.9583 76.0312 17.4219C75.651 16.8854 75.1042 16.6172 74.3906 16.6172C73.4375 16.6172 72.7526 17.0599 72.3359 17.9453V21.6016C72.7786 22.487 73.4688 22.9297 74.4062 22.9297C75.099 22.9297 75.638 22.6615 76.0234 22.125C76.4089 21.5885 76.6016 20.7812 76.6016 19.7031ZM87.0312 19.8672C87.0312 21.1589 86.7344 22.1979 86.1406 22.9844C85.5469 23.7656 84.75 24.1562 83.75 24.1562C82.6823 24.1562 81.8568 23.7786 81.2734 23.0234L81.2031 24H79.875V12H81.3203V16.4766C81.9036 15.7526 82.7083 15.3906 83.7344 15.3906C84.7604 15.3906 85.5651 15.7786 86.1484 16.5547C86.737 17.3307 87.0312 18.3932 87.0312 19.7422V19.8672ZM85.5859 19.7031C85.5859 18.7188 85.3958 17.9583 85.0156 17.4219C84.6354 16.8854 84.0885 16.6172 83.375 16.6172C82.4219 16.6172 81.737 17.0599 81.3203 17.9453V21.6016C81.763 22.487 82.4531 22.9297 83.3906 22.9297C84.0833 22.9297 84.6224 22.6615 85.0078 22.125C85.3932 21.5885 85.5859 20.7812 85.5859 19.7031ZM90.4297 24H88.9844V12H90.4297V24ZM96.2578 24.1562C95.112 24.1562 94.1797 23.7812 93.4609 23.0312C92.7422 22.276 92.3828 21.2682 92.3828 20.0078V19.7422C92.3828 18.9036 92.5417 18.1562 92.8594 17.5C93.1823 16.8385 93.6302 16.3229 94.2031 15.9531C94.7812 15.5781 95.4062 15.3906 96.0781 15.3906C97.1771 15.3906 98.0312 15.7526 98.6406 16.4766C99.25 17.2005 99.5547 18.237 99.5547 19.5859V20.1875H93.8281C93.849 21.0208 94.0911 21.6953 94.5547 22.2109C95.0234 22.7214 95.6172 22.9766 96.3359 22.9766C96.8464 22.9766 97.2786 22.8724 97.6328 22.6641C97.987 22.4557 98.2969 22.1797 98.5625 21.8359L99.4453 22.5234C98.737 23.612 97.6745 24.1562 96.2578 24.1562ZM96.0781 16.5781C95.4948 16.5781 95.0052 16.7917 94.6094 17.2188C94.2135 17.6406 93.9688 18.2344 93.875 19H98.1094V18.8906C98.0677 18.1562 97.8698 17.5885 97.5156 17.1875C97.1615 16.7812 96.6823 16.5781 96.0781 16.5781Z" fill="white"/>
<path d="M21.4515 9.3648C25.9128 14.7538 28.2461 19.9277 29.0577 26.4075M15.7101 17.0927C23.6905 16.9093 28.246 15.6497 31.6709 11.4724M18.5999 24.793C22.8948 18.2564 28.1612 17.2597 34.2725 19.068M34.3332 17.9998C34.3332 12.8454 30.1543 8.6665 24.9998 8.6665C19.8454 8.6665 15.6665 12.8454 15.6665 17.9998C15.6665 23.1543 19.8454 27.3332 24.9998 27.3332C30.1543 27.3332 34.3332 23.1543 34.3332 17.9998Z" stroke="white" stroke-linecap="round" stroke-linejoin="round"/>
<defs>
<linearGradient id="paint0_linear" x1="0" y1="18" x2="116" y2="18" gradientUnits="userSpaceOnUse">
<stop stop-color="#FF512F"/>
<stop offset="1" stop-color="#DD2476"/>
</linearGradient>
</defs>
</svg>
