<svg width="100" height="30" viewBox="0 0 100 30" fill="none" xmlns="http://www.w3.org/2000/svg">
<rect width="100" height="30" fill="white"/>
<path fill-rule="evenodd" clip-rule="evenodd" d="M20.5 8C16.3596 8 13 11.3596 13 15.5C13 19.6404 16.3596 23 20.5 23C24.6324 23 28 19.6404 28 15.5C28 11.3596 24.6324 8 20.5 8ZM25.4539 11.4572C26.3487 12.5473 26.8857 13.9382 26.9018 15.443C26.6903 15.4024 24.5753 14.9713 22.4441 15.2398C22.3954 15.134 22.3546 15.02 22.3059 14.9062C22.1757 14.5972 22.0292 14.2799 21.8828 13.9788C24.2419 13.019 25.3156 11.6362 25.4539 11.4572V11.4572ZM20.5 9.10625C22.1269 9.10625 23.6155 9.71645 24.7462 10.717C24.6324 10.8796 23.6642 12.173 21.3866 13.0271C20.3373 11.0993 19.1741 9.52115 18.9952 9.27711C19.475 9.16326 19.9793 9.10625 20.5 9.10625V9.10625ZM17.775 9.70821C17.9458 9.93605 19.0846 11.5223 20.1502 13.4095C17.1568 14.2065 14.513 14.1903 14.2284 14.1903C14.6431 12.2055 15.9853 10.5542 17.775 9.70821V9.70821ZM14.09 15.5081V15.3129C14.3666 15.3211 17.474 15.3617 20.6709 14.4018C20.8579 14.7598 21.0287 15.1258 21.1913 15.4919C21.11 15.5163 21.0207 15.5407 20.9392 15.5651C17.6366 16.6307 15.8796 19.5428 15.7332 19.7868C14.7164 18.6562 14.09 17.1513 14.09 15.5081V15.5081ZM20.5 21.91C19.0195 21.91 17.653 21.4057 16.5711 20.5597C16.6849 20.3237 17.9864 17.8184 21.5982 16.5575C21.6143 16.5494 21.6226 16.5494 21.6388 16.5412C22.5418 18.8758 22.9078 20.8363 23.0054 21.3975C22.2326 21.731 21.3866 21.91 20.5 21.91ZM24.0711 20.8118C24.006 20.4213 23.6644 18.5504 22.8265 16.2484C24.8358 15.9311 26.5927 16.4517 26.8123 16.525C26.5359 18.3063 25.5109 19.8438 24.0711 20.8118Z" fill="#EA4C89"/>
<path fill-rule="evenodd" clip-rule="evenodd" d="M86.472 16.4593C86.317 16.3472 86.194 16.3312 86.0926 16.5448C84.3507 20.3117 81.4173 18.431 81.7112 18.5966C82.3631 18.2975 84.0729 16.9295 83.8164 15.0327C83.6615 13.8734 82.6676 13.3604 81.6097 13.5475C79.7663 13.868 79.0931 15.8556 79.4351 17.6135C79.4938 17.9181 79.6007 18.1638 79.7129 18.4096C77.6344 20.1033 76.8063 16.8975 76.7101 16.5128C76.7048 16.4914 78.3184 15.1503 78.7672 11.9498C79.2374 8.59963 78.1688 7.98518 77.0734 8.00657C75.0484 8.04397 74.5033 12.2704 75.2354 15.7915C75.1766 15.8075 74.888 15.9678 74.4286 15.9839C74.0973 14.942 72.6813 14.0282 72.3127 14.3809C71.3883 15.2625 72.537 16.983 73.3493 17.1165C72.863 20.1141 69.8174 19.3714 70.3838 15.6153C71.3723 13.7771 72.131 11.0361 71.9921 9.38508C71.9439 8.80266 71.5111 8.01731 70.5334 8.05471C68.6526 8.12942 68.4496 12.3559 68.6687 15.3587C68.658 15.2839 68.5512 15.722 67.7816 15.9411C67.6 14.9313 65.9704 13.9108 65.5857 14.4023C64.8697 15.3159 66.1146 16.9456 66.7023 17.0578C66.2162 20.0554 63.1706 19.3126 63.7369 15.5565C64.7309 13.7184 65.4842 10.9827 65.3506 9.33176C65.3025 8.74924 64.8697 7.96379 63.8919 8.00129C62.0111 8.0761 61.8081 12.3024 62.0272 15.3053C62.0165 15.2304 61.9096 15.6846 61.1081 15.8984C61.0814 14.584 59.4465 13.9855 59.0511 14.4023C58.3511 15.1503 59.2113 16.6837 60.0074 17.0578C59.5213 20.0554 56.4757 19.3126 57.042 15.5565C58.0306 13.7184 58.7893 10.9774 58.6504 9.32639C58.6076 8.74924 58.1748 7.96379 57.1969 8.00129C55.3161 8.0761 55.1666 12.5161 55.3856 15.519C54.7658 18.1746 52.6874 21.4873 52.9599 14.8457C52.9866 14.3809 53.0134 14.2046 52.7836 14.0282C52.6073 13.8947 52.2118 13.9589 51.998 13.9641C51.7363 13.9748 51.6669 14.1298 51.6134 14.3596C51.4799 14.958 51.4531 15.5404 51.4317 16.3364C51.4211 16.7105 51.389 16.8816 51.2447 17.3891C51.1005 17.8967 50.2884 18.821 49.8396 18.6661C49.2197 18.4524 49.4228 16.7051 49.5402 15.503C49.6365 14.552 49.3266 14.1298 48.5358 13.9748C48.0709 13.8787 47.7877 13.8947 47.3069 13.7397C46.8474 13.5954 46.7458 12.7299 45.7734 13.0185C45.2392 13.1787 45.5811 14.3062 45.4527 15.145C44.8224 19.2645 43.5133 19.3768 42.9042 17.3783C45.6398 10.6674 43.6896 8.02258 42.5515 8.02258C41.3653 8.02258 40.0081 8.84016 40.5799 14.0764C40.3021 13.9962 40.2165 13.9535 39.9066 13.9535C38.1808 13.9482 37 15.3481 37 17.0738C37 18.7996 38.1808 20.1996 39.912 20.1996C40.9325 20.1996 41.6485 19.7347 42.1935 19.0187C42.5461 19.5264 42.9789 20.2103 43.7696 20.1782C46.1207 20.0873 46.8046 15.2625 46.8848 14.9901C47.1359 15.0274 47.3763 15.1023 47.6061 15.1397C47.9907 15.1985 48.0229 15.3533 48.0121 15.7381C47.9106 19.0187 48.5145 20.1675 49.8877 20.1675C50.6517 20.1675 51.3356 19.4141 51.8058 18.8798C52.1585 19.6066 52.7141 20.1461 53.4675 20.1675C55.2842 20.2103 55.9841 17.3144 55.92 17.6937C55.8719 17.9929 56.5077 20.1461 58.3832 20.1569C60.7021 20.1675 61.1349 17.6189 61.183 17.1914C61.1936 17.1165 61.1884 17.106 61.183 17.1914V17.2181C61.9203 17.0792 62.2996 16.6891 62.2996 16.6891C62.2996 16.6891 62.8927 20.1996 65.0781 20.1622C67.3489 20.1195 67.7816 17.8165 67.8352 17.3677C67.8458 17.2716 67.8405 17.2609 67.8352 17.3677V17.3783C68.7114 17.0578 68.9412 16.7426 68.9412 16.7426C68.9412 16.7426 69.4113 20.1836 71.7195 20.2156C73.7768 20.2424 74.5407 18.1319 74.5461 17.2502C74.8934 17.2555 75.5346 17.0418 75.5186 17.0312C75.5186 17.0312 76.272 20.0394 78.3771 20.1943C79.3656 20.269 80.1082 19.6385 80.5305 19.35C81.5242 20.1569 84.8316 21.1827 86.9208 17.6403C87.22 17.1379 86.5842 16.5342 86.472 16.4593V16.4593ZM39.8265 19.0294C38.8166 19.0294 38.1701 18.0945 38.1701 17.09C38.1701 16.0854 38.7632 15.1503 39.7731 15.1503C40.2271 15.1503 40.4783 15.1985 40.8364 15.5083C40.9005 15.7595 41.0821 16.3418 41.1729 16.609C41.2904 16.9616 41.4348 17.2662 41.5737 17.5921C41.3653 18.4363 40.7027 19.0294 39.8265 19.0294V19.0294ZM42.2844 15.5351C42.2416 15.4656 42.2523 15.5083 42.2042 15.4442C42.0226 14.942 41.6646 13.8198 41.6218 12.5429C41.5737 11.1002 41.8142 9.40647 42.5247 9.40647C43.0057 9.40647 43.5187 12.8367 42.2844 15.5351V15.5351ZM56.5023 14.0336C56.3901 13.1787 56.3848 9.35832 57.2985 9.46526C57.8062 9.66829 56.9779 13.2696 56.5023 14.0336ZM63.1973 14.0336C63.0852 13.1787 63.0798 9.35832 63.9935 9.46526C64.5011 9.66829 63.6729 13.2696 63.1973 14.0336ZM69.8388 14.087C69.7266 13.2322 69.7213 9.41184 70.635 9.51868C71.1425 9.71643 70.3144 13.3231 69.8388 14.087ZM77.1695 9.23547C78.0084 9.14993 77.9711 12.8101 76.2934 15.1183C76.0742 14.2848 75.743 9.52405 77.1695 9.23547V9.23547ZM80.6961 17.1165C80.4289 15.7541 81.1235 14.8617 81.8395 14.7656C82.0906 14.7282 82.4539 14.8885 82.5233 15.1931C82.641 15.7648 82.5073 16.6144 80.8991 17.6883C80.9045 17.6937 80.7548 17.4158 80.6961 17.1165ZM52.276 12.9168C52.8477 12.9168 53.3125 12.4521 53.3125 11.8803C53.3125 11.3086 52.8477 10.8438 52.276 10.8438C51.7043 10.8438 51.2394 11.3086 51.2394 11.8803C51.2394 12.4521 51.7043 12.9168 52.276 12.9168Z" fill="#EA4D89"/>
</svg>
