<svg width="116" height="36" viewBox="0 0 116 36" fill="none" xmlns="http://www.w3.org/2000/svg">
<rect width="116" height="36" rx="7" fill="#414345"/>
<path d="M51.8203 18.9688V22.9062H56.6172V24H50.4062V13.1328H56.6172V14.2188H51.8203V17.875H55.0859V18.9688H51.8203ZM60.3281 24.1406C59.2448 24.1406 58.7031 23.4531 58.7031 22.0781V12.4766H59.9609V22C59.9609 22.401 60.0391 22.6901 60.1953 22.8672C60.3568 23.0391 60.5052 23.125 60.6406 23.125C60.776 23.125 61.0729 23.1042 61.5312 23.0625L61.6328 23.9766C61.112 24.0859 60.6771 24.1406 60.3281 24.1406ZM65.0547 16.6719V24H63.7969V17.6719H62.5V16.6719H65.0547ZM63.5 13.7734C63.5 13.513 63.5885 13.2917 63.7656 13.1094C63.9479 12.9219 64.1667 12.8281 64.4219 12.8281C64.6771 12.8281 64.8932 12.9219 65.0703 13.1094C65.2526 13.2917 65.3438 13.513 65.3438 13.7734C65.3438 14.0339 65.2526 14.2578 65.0703 14.4453C64.8932 14.6276 64.6771 14.7188 64.4219 14.7188C64.1667 14.7188 63.9479 14.6276 63.7656 14.4453C63.5885 14.2578 63.5 14.0339 63.5 13.7734ZM66.8203 16.6719H68.2734L70.1094 19.375L72.0156 16.6953H73.3594L70.7344 20.2969L73.2422 24H71.7891L69.9609 21.3047L68.0469 24H66.7031L69.3359 20.3828L66.8203 16.6719ZM76.7266 16.6719V24H75.4688V17.6719H74.1719V16.6719H76.7266ZM75.1719 13.7734C75.1719 13.513 75.2604 13.2917 75.4375 13.1094C75.6198 12.9219 75.8385 12.8281 76.0938 12.8281C76.349 12.8281 76.5651 12.9219 76.7422 13.1094C76.9245 13.2917 77.0156 13.513 77.0156 13.7734C77.0156 14.0339 76.9245 14.2578 76.7422 14.4453C76.5651 14.6276 76.349 14.7188 76.0938 14.7188C75.8385 14.7188 75.6198 14.6276 75.4375 14.4453C75.2604 14.2578 75.1719 14.0339 75.1719 13.7734ZM79.2969 24V16.6719H80.5547V18.0156C80.7422 17.6094 81.0078 17.2604 81.3516 16.9688C81.7005 16.6771 82.0938 16.5312 82.5312 16.5312C82.974 16.5312 83.3359 16.6094 83.6172 16.7656C83.9036 16.9167 84.0938 17.0781 84.1875 17.25L83.6562 18.0469C83.5833 17.9531 83.513 17.875 83.4453 17.8125C83.2526 17.625 82.9688 17.5312 82.5938 17.5312C82.2188 17.5312 81.8802 17.651 81.5781 17.8906C81.276 18.1354 81.0365 18.4323 80.8594 18.7812C80.6823 19.1302 80.5807 19.4792 80.5547 19.8281V24H79.2969Z" fill="url(#paint0_linear)"/>
<path d="M13.1617 11.1175C14.6812 8.34034 16.2043 6.60514 17.7037 5.79087C17.683 6.14749 17.6696 6.54999 17.6976 6.98744C17.7516 7.83006 17.9531 8.84675 18.5033 10.1814C19.0464 11.4988 20.2074 13.1978 21.439 14.933C21.6551 15.2375 21.874 15.5439 22.0932 15.8507C23.1409 17.3173 24.1961 18.7943 24.9991 20.1341C25.6872 21.2821 25.7882 23.1296 25.2173 24.9654C24.6508 26.787 23.4546 28.4871 21.6967 29.3638C19.4079 30.5055 17.4319 30.6979 15.787 30.3317C14.1375 29.9645 12.7737 29.0248 11.7339 27.8225C9.63637 25.3972 9.2236 22.68 9.65126 19.9545C10.1429 16.8213 11.7401 13.7158 13.1617 11.1175Z" stroke="url(#paint1_linear)"/>
<defs>
<linearGradient id="paint0_linear" x1="49" y1="18.5" x2="85" y2="18.5" gradientUnits="userSpaceOnUse">
<stop stop-color="#844D9C"/>
<stop offset="1" stop-color="#C951D1"/>
</linearGradient>
<linearGradient id="paint1_linear" x1="9" y1="18" x2="26" y2="18" gradientUnits="userSpaceOnUse">
<stop stop-color="#874D9F"/>
<stop offset="0.9999" stop-color="#C650CF"/>
<stop offset="1" stop-color="#A34DB3" stop-opacity="0"/>
</linearGradient>
</defs>
</svg>
