<svg width="116" height="36" viewBox="0 0 116 36" fill="none" xmlns="http://www.w3.org/2000/svg">
<rect width="116" height="36" rx="7" fill="#414345"/>
<path d="M52.644 18.2832V23H51.3184V12.812H57.1411V13.8301H52.644V17.2578H55.7056V18.2832H52.644ZM60.1294 16.1299V23H58.9502V17.0674H57.7344V16.1299H60.1294ZM58.6719 13.4126C58.6719 13.1685 58.7549 12.9609 58.9209 12.79C59.0918 12.6143 59.2969 12.5264 59.5361 12.5264C59.7754 12.5264 59.978 12.6143 60.144 12.79C60.3149 12.9609 60.4004 13.1685 60.4004 13.4126C60.4004 13.6567 60.3149 13.8667 60.144 14.0425C59.978 14.2134 59.7754 14.2988 59.5361 14.2988C59.2969 14.2988 59.0918 14.2134 58.9209 14.0425C58.7549 13.8667 58.6719 13.6567 58.6719 13.4126ZM64.9414 16.9429C64.1699 16.9429 63.6768 17.3018 63.4619 18.0195C63.4033 18.2051 63.374 18.3955 63.374 18.5908C63.374 18.9961 63.4985 19.3281 63.7476 19.5869C63.9966 19.8408 64.3945 19.9678 64.9414 19.9678C65.7129 19.9678 66.2061 19.6357 66.4209 18.9717C66.4795 18.8008 66.5088 18.6299 66.5088 18.459C66.5088 18.1025 66.394 17.7705 66.1646 17.4629C65.896 17.1162 65.4883 16.9429 64.9414 16.9429ZM67.2339 17.0674C67.5366 17.4971 67.688 17.9585 67.688 18.4517C67.688 19.2524 67.3901 19.8896 66.7944 20.3633C66.3403 20.7295 65.7227 20.9126 64.9414 20.9126C64.5215 20.9126 64.1455 20.8687 63.8135 20.7808C63.5254 21.0005 63.3813 21.2495 63.3813 21.5278C63.3813 21.9136 64.0088 22.1064 65.2637 22.1064C66.709 22.1064 67.6294 22.4556 68.0249 23.1538C68.147 23.3687 68.208 23.6128 68.208 23.8862C68.208 24.4868 68.0396 24.9946 67.7026 25.4097C67.0581 26.2056 65.9717 26.6035 64.4434 26.6035C63.667 26.6035 63.0347 26.4473 62.5464 26.1348C62.063 25.8223 61.8213 25.3657 61.8213 24.7651C61.8213 24.1548 62.0703 23.647 62.5684 23.2417C62.7148 23.1245 62.8955 23 63.1104 22.8682C62.5049 22.6631 62.2021 22.292 62.2021 21.7549C62.2021 21.5547 62.2705 21.3301 62.4072 21.0811C62.5439 20.832 62.7515 20.6099 63.0298 20.4146C62.4878 20.0239 62.2095 19.4258 62.1948 18.6201V18.5762C62.1948 17.9463 62.3926 17.3774 62.7881 16.8696C62.9932 16.606 63.2812 16.396 63.6523 16.2397C64.0234 16.0786 64.4165 15.998 64.8315 15.998C65.2515 15.998 65.6104 16.042 65.9082 16.1299H68.208V17.0674H67.2339ZM64.2383 23.0439C63.7646 23.3076 63.4473 23.5493 63.2861 23.769C63.0957 24.0229 63.0005 24.2915 63.0005 24.5747C63.0005 24.8579 63.0859 25.0801 63.2568 25.2412C63.5498 25.5195 64.0186 25.6587 64.6631 25.6587C65.5518 25.6587 66.2207 25.439 66.6699 24.9995C66.9092 24.7651 67.0288 24.4795 67.0288 24.1426C67.0288 23.7959 66.8921 23.5444 66.6187 23.3882C66.3257 23.2319 66.0425 23.1392 65.769 23.1099C65.3979 23.0708 65.0757 23.0513 64.8022 23.0513C64.5337 23.0513 64.3457 23.0488 64.2383 23.0439ZM73.9868 19.5649C73.9868 17.812 73.4644 16.9355 72.4194 16.9355C72.1362 16.9355 71.8799 17.0405 71.6504 17.2505C71.4209 17.4604 71.2451 17.7168 71.123 18.0195C70.9717 18.3271 70.896 18.647 70.896 18.979V23H69.7168V16.1299H70.896V17.2212C71.0474 16.8647 71.2695 16.5718 71.5625 16.3423C71.8604 16.1128 72.229 15.998 72.6685 15.998C73.772 15.998 74.5044 16.5474 74.8657 17.646C75.2515 16.5474 75.9302 15.998 76.9019 15.998C77.7075 15.998 78.3179 16.2983 78.7329 16.8989C79.1528 17.4995 79.3628 18.3882 79.3628 19.5649V22.9927L78.2202 23V19.5649C78.2202 17.812 77.6978 16.9355 76.6528 16.9355C76.3696 16.9355 76.1133 17.0405 75.8838 17.2505C75.6543 17.4604 75.4785 17.7168 75.3564 18.0195C75.2051 18.3271 75.1294 18.647 75.1294 18.979V23H73.9868V19.5649ZM85.0024 19.9092C83.2056 19.9092 82.3071 20.356 82.3071 21.2495C82.3071 21.4888 82.3804 21.7109 82.5269 21.916C82.6782 22.1211 82.8491 22.2236 83.0396 22.2236H83.3252C84.3994 22.2236 84.9731 21.6597 85.0464 20.5317V19.9092H85.0024ZM81.6333 16.4595C82.5122 16.1519 83.2324 15.998 83.7939 15.998C84.3555 15.998 84.8462 16.1372 85.2661 16.4155C85.686 16.6938 85.9668 17.1064 86.1084 17.6533C86.1865 17.9609 86.2256 18.5884 86.2256 19.5356V21.8281C86.2256 22.2578 86.2598 22.6484 86.3281 23H85.1416C85.0781 22.7998 85.0464 22.5728 85.0464 22.3188V22.2676C84.9243 22.4141 84.79 22.541 84.6436 22.6484C84.1846 22.9854 83.6963 23.1538 83.1787 23.1538C82.3096 23.1538 81.7114 22.8438 81.3843 22.2236C81.2134 21.916 81.1279 21.6011 81.1279 21.2788C81.1279 20.4243 81.6284 19.8066 82.6294 19.4258C83.23 19.1963 83.9917 19.0815 84.9146 19.0815H85.0464V18.3418C85.0464 17.8047 84.9438 17.4385 84.7388 17.2432C84.4995 17.0186 84.1016 16.9062 83.5449 16.9062C82.9883 16.9062 82.3706 17.0625 81.6919 17.375L81.6333 16.4595Z" fill="#ECE9E6"/>
<path d="M17.4998 23.8895C17.4998 25.2537 16.3833 26.3673 15.0004 26.3673C13.6174 26.3673 12.501 25.2537 12.501 23.8895C12.501 22.5252 13.6174 21.4116 15.0004 21.4116H17.4998V23.8895Z" stroke="#0ACF83"/>
<path d="M12.501 17.9334C12.501 16.5692 13.6174 15.4556 15.0004 15.4556H17.4998V20.4113H15.0004C13.6174 20.4113 12.501 19.2977 12.501 17.9334Z" stroke="#A259FF"/>
<path d="M12.5 11.9779C12.5 10.6136 13.6165 9.5 14.9994 9.5H17.4988V14.4557H14.9994C13.6165 14.4557 12.5 13.3421 12.5 11.9779Z" stroke="#F24E1E"/>
<path d="M18.5 9.5H20.9994C22.3823 9.5 23.4988 10.6136 23.4988 11.9779C23.4988 13.3421 22.3823 14.4557 20.9994 14.4557H18.5V9.5Z" stroke="#FF7262"/>
<path d="M23.4988 17.9334C23.4988 19.2977 22.3823 20.4113 20.9994 20.4113C19.6165 20.4113 18.5 19.2977 18.5 17.9334C18.5 16.5692 19.6165 15.4556 20.9994 15.4556C22.3823 15.4556 23.4988 16.5692 23.4988 17.9334Z" stroke="#1ABCFE"/>
</svg>
