<svg width="116" height="36" viewBox="0 0 116 36" fill="none" xmlns="http://www.w3.org/2000/svg">
<rect width="116" height="36" rx="7" fill="#414345"/>
<path d="M17.057 9.60927L17.4105 9.96283V9.96283L17.057 9.60927ZM9.60927 17.057L9.25572 16.7034L9.25572 16.7034L9.60927 17.057ZM9.60927 18.9426L9.96283 18.5891H9.96283L9.60927 18.9426ZM17.057 26.3903L16.7034 26.7439H16.7034L17.057 26.3903ZM18.9426 26.3903L18.5891 26.0368L18.9426 26.3903ZM26.3903 18.9426L26.7439 19.2962L26.3903 18.9426ZM26.3903 17.057L26.0368 17.4105L26.3903 17.057ZM18.9426 9.60927L19.2962 9.25572V9.25572L18.9426 9.60927ZM16.7034 9.25572L9.25572 16.7034L9.96283 17.4105L17.4105 9.96283L16.7034 9.25572ZM9.25572 19.2962L16.7034 26.7439L17.4105 26.0368L9.96283 18.5891L9.25572 19.2962ZM19.2962 26.7439L26.7439 19.2962L26.0368 18.5891L18.5891 26.0368L19.2962 26.7439ZM26.7439 16.7034L19.2962 9.25572L18.5891 9.96283L26.0368 17.4105L26.7439 16.7034ZM26.7439 19.2962C27.4598 18.5802 27.4598 17.4194 26.7439 16.7034L26.0368 17.4105C26.3622 17.736 26.3622 18.2636 26.0368 18.5891L26.7439 19.2962ZM16.7034 26.7439C17.4194 27.4598 18.5802 27.4598 19.2962 26.7439L18.5891 26.0368C18.2636 26.3622 17.736 26.3622 17.4105 26.0368L16.7034 26.7439ZM9.25572 16.7034C8.53976 17.4194 8.53976 18.5802 9.25572 19.2962L9.96283 18.5891C9.63739 18.2636 9.63739 17.736 9.96283 17.4105L9.25572 16.7034ZM17.4105 9.96283C17.736 9.63739 18.2636 9.63739 18.5891 9.96283L19.2962 9.25572C18.5802 8.53976 17.4194 8.53976 16.7034 9.25572L17.4105 9.96283ZM14.9796 11.6867L16.3129 13.02L17.02 12.3129L15.6867 10.9796L14.9796 11.6867ZM17.9998 14.8331C17.5396 14.8331 17.1665 14.46 17.1665 13.9998H16.1665C16.1665 15.0123 16.9873 15.8331 17.9998 15.8331V14.8331ZM18.8331 13.9998C18.8331 14.46 18.46 14.8331 17.9998 14.8331V15.8331C19.0123 15.8331 19.8331 15.0123 19.8331 13.9998H18.8331ZM17.9998 13.1665C18.46 13.1665 18.8331 13.5396 18.8331 13.9998H19.8331C19.8331 12.9873 19.0123 12.1665 17.9998 12.1665V13.1665ZM17.9998 12.1665C16.9873 12.1665 16.1665 12.9873 16.1665 13.9998H17.1665C17.1665 13.5396 17.5396 13.1665 17.9998 13.1665V12.1665ZM18.9796 15.6867L20.9796 17.6867L21.6867 16.9796L19.6867 14.9796L18.9796 15.6867ZM21.9998 18.8331C21.5396 18.8331 21.1665 18.46 21.1665 17.9998H20.1665C20.1665 19.0123 20.9873 19.8331 21.9998 19.8331V18.8331ZM22.8331 17.9998C22.8331 18.46 22.46 18.8331 21.9998 18.8331V19.8331C23.0123 19.8331 23.8331 19.0123 23.8331 17.9998H22.8331ZM21.9998 17.1665C22.46 17.1665 22.8331 17.5396 22.8331 17.9998H23.8331C23.8331 16.9873 23.0123 16.1665 21.9998 16.1665V17.1665ZM21.9998 16.1665C20.9873 16.1665 20.1665 16.9873 20.1665 17.9998H21.1665C21.1665 17.5396 21.5396 17.1665 21.9998 17.1665V16.1665ZM17.4998 15.3331V20.6665H18.4998V15.3331H17.4998ZM17.9998 22.8331C17.5396 22.8331 17.1665 22.46 17.1665 21.9998H16.1665C16.1665 23.0123 16.9873 23.8331 17.9998 23.8331V22.8331ZM18.8331 21.9998C18.8331 22.46 18.46 22.8331 17.9998 22.8331V23.8331C19.0123 23.8331 19.8331 23.0123 19.8331 21.9998H18.8331ZM17.9998 21.1665C18.46 21.1665 18.8331 21.5396 18.8331 21.9998H19.8331C19.8331 20.9873 19.0123 20.1665 17.9998 20.1665V21.1665ZM17.9998 20.1665C16.9873 20.1665 16.1665 20.9873 16.1665 21.9998H17.1665C17.1665 21.5396 17.5396 21.1665 17.9998 21.1665V20.1665Z" fill="#EA5827"/>
<path d="M55.3828 17.5625C55.3828 16.4635 55.6094 15.4948 56.0625 14.6562C56.5104 13.8177 57.1615 13.1641 58.0156 12.6953C58.8698 12.2266 59.8698 11.9922 61.0156 11.9922C62 11.9922 62.7161 12.0729 63.1641 12.2344C63.612 12.3906 63.9401 12.526 64.1484 12.6406C64.362 12.75 64.6354 12.9115 64.9688 13.125L64.4219 14.1641C63.3073 13.4453 62.1823 13.0859 61.0469 13.0859C60.4115 13.0859 59.8281 13.2109 59.2969 13.4609C58.2812 13.9349 57.5729 14.7422 57.1719 15.8828C56.9792 16.4193 56.8828 16.9479 56.8828 17.4688C56.8828 19.0156 57.362 20.2344 58.3203 21.125C58.9557 21.7396 59.75 22.0469 60.7031 22.0469H60.7969C61.6406 22.0469 62.4974 21.8516 63.3672 21.4609V18.8906H61.0469V17.8047L64.7812 17.7969L64.7734 22.0156C63.6641 22.7656 62.3099 23.1406 60.7109 23.1406C59.112 23.1406 57.8229 22.6276 56.8438 21.6016C55.8698 20.5755 55.3828 19.2292 55.3828 17.5625ZM69.2109 15.6719V23H67.9531V16.6719H66.6562V15.6719H69.2109ZM67.6562 12.7734C67.6562 12.513 67.7448 12.2917 67.9219 12.1094C68.1042 11.9219 68.3229 11.8281 68.5781 11.8281C68.8333 11.8281 69.0495 11.9219 69.2266 12.1094C69.4089 12.2917 69.5 12.513 69.5 12.7734C69.5 13.0339 69.4089 13.2578 69.2266 13.4453C69.0495 13.6276 68.8333 13.7188 68.5781 13.7188C68.3229 13.7188 68.1042 13.6276 67.9219 13.4453C67.7448 13.2578 67.6562 13.0339 67.6562 12.7734ZM73.7188 23.1406C72.4792 23.1406 71.8594 22.4531 71.8594 21.0781V16.6719H70.5625V15.6719H71.8594V14.1875L73.1172 13.7188V15.6719H74.9062V16.6719H73.1172V21C73.1172 21.401 73.2188 21.6901 73.4219 21.8672C73.625 22.0391 73.8516 22.125 74.1016 22.125C74.5859 22.125 74.9635 22.0833 75.2344 22L75.3906 22.8828C74.9115 23.0547 74.3542 23.1406 73.7188 23.1406Z" fill="url(#paint0_linear)"/>
<defs>
<linearGradient id="paint0_linear" x1="55" y1="17" x2="76" y2="17" gradientUnits="userSpaceOnUse">
<stop stop-color="#E44D26"/>
<stop offset="1" stop-color="#F16529"/>
</linearGradient>
</defs>
</svg>
