<svg width="100" height="30" viewBox="0 0 100 30" fill="none" xmlns="http://www.w3.org/2000/svg">
<rect width="100" height="30" fill="#E04C40"/>
<path d="M32.936 26.3815C32.936 27.239 32.239 27.936 31.3815 27.936H9.61846C8.76104 27.936 8.06396 27.239 8.06396 26.3815V4.61846C8.06396 3.76104 8.76104 3.06396 9.61846 3.06396H31.3815C32.239 3.06396 32.936 3.76104 32.936 4.61846V26.3815Z" fill="#E04C40"/>
<path d="M13.4036 9.35838H27.6062C28.3542 9.35838 28.9646 9.96873 28.9646 10.7166V20.2835C28.9646 21.0318 28.3542 21.6416 27.6062 21.6416H13.4036C12.6457 21.6416 12.0355 21.0318 12.0355 20.2835V10.7166C12.0355 9.96873 12.6457 9.35838 13.4036 9.35838Z" fill="white"/>
<path d="M20.5001 17.1697L27.2299 12.4182V21.7028H27.6772C28.4328 21.7028 29.0493 21.0869 29.0493 20.3311V11.1358V10.6687C29.0493 10.0324 28.6115 9.49565 28.0149 9.33643L20.5001 14.6449L12.9946 9.33643C12.3979 9.4855 11.9509 10.0323 11.9509 10.6687V11.1258V20.3312C11.9509 21.0869 12.5671 21.7029 13.3327 21.7029H13.77V12.4183L20.5001 17.1697Z" fill="#DF4B3F"/>
<path d="M27.23 12.4183V21.7029H27.6772C28.4329 21.7029 29.0493 21.087 29.0493 20.3312V11.1358L27.23 12.4183Z" fill="#DF4B3F"/>
<path d="M44.164 14.584C44.324 14.584 44.456 14.64 44.56 14.752C44.672 14.864 44.728 15 44.728 15.16V17.86C44.728 18.076 44.632 18.244 44.44 18.364C44.072 18.604 43.668 18.792 43.228 18.928C42.788 19.056 42.336 19.12 41.872 19.12C41.072 19.12 40.336 18.928 39.664 18.544C39 18.16 38.476 17.64 38.092 16.984C37.708 16.32 37.516 15.592 37.516 14.8C37.516 14.008 37.708 13.284 38.092 12.628C38.476 11.964 39 11.44 39.664 11.056C40.336 10.672 41.072 10.48 41.872 10.48C42.272 10.48 42.656 10.524 43.024 10.612C43.4 10.7 43.736 10.832 44.032 11.008C44.128 11.064 44.2 11.132 44.248 11.212C44.296 11.292 44.32 11.38 44.32 11.476C44.32 11.636 44.264 11.776 44.152 11.896C44.048 12.008 43.92 12.064 43.768 12.064C43.648 12.064 43.544 12.036 43.456 11.98C42.936 11.74 42.408 11.62 41.872 11.62C41.296 11.62 40.768 11.76 40.288 12.04C39.816 12.32 39.44 12.704 39.16 13.192C38.888 13.68 38.752 14.216 38.752 14.8C38.752 15.384 38.888 15.92 39.16 16.408C39.44 16.888 39.816 17.272 40.288 17.56C40.768 17.84 41.296 17.98 41.872 17.98C42.144 17.98 42.428 17.948 42.724 17.884C43.028 17.82 43.288 17.736 43.504 17.632V15.724H42.052C41.892 15.724 41.756 15.672 41.644 15.568C41.532 15.456 41.476 15.32 41.476 15.16C41.476 14.992 41.532 14.856 41.644 14.752C41.756 14.64 41.892 14.584 42.052 14.584H44.164ZM53.4078 12.604C54.8078 12.604 55.5078 13.476 55.5078 15.22V18.424C55.5078 18.592 55.4558 18.732 55.3518 18.844C55.2478 18.948 55.1118 19 54.9438 19C54.7758 19 54.6358 18.944 54.5238 18.832C54.4198 18.72 54.3678 18.584 54.3678 18.424V15.232C54.3678 14.184 53.9278 13.66 53.0478 13.66C52.7358 13.66 52.4518 13.732 52.1958 13.876C51.9478 14.012 51.7518 14.2 51.6078 14.44C51.4718 14.68 51.4037 14.944 51.4037 15.232V18.424C51.4037 18.584 51.3478 18.72 51.2358 18.832C51.1318 18.944 50.9958 19 50.8278 19C50.6598 19 50.5238 18.948 50.4198 18.844C50.3158 18.732 50.2638 18.592 50.2638 18.424V15.22C50.2638 14.748 50.1638 14.372 49.9638 14.092C49.7638 13.804 49.4318 13.66 48.9678 13.66C48.4958 13.66 48.1038 13.812 47.7918 14.116C47.4878 14.412 47.3358 14.78 47.3358 15.22V18.424C47.3358 18.584 47.2798 18.72 47.1678 18.832C47.0638 18.944 46.9278 19 46.7598 19C46.5918 19 46.4558 18.948 46.3518 18.844C46.2478 18.732 46.1958 18.592 46.1958 18.424V13.288C46.1958 13.128 46.2478 12.992 46.3518 12.88C46.4638 12.768 46.5998 12.712 46.7598 12.712C46.9278 12.712 47.0638 12.768 47.1678 12.88C47.2798 12.992 47.3358 13.128 47.3358 13.288V13.708C47.5438 13.396 47.8198 13.136 48.1638 12.928C48.5158 12.712 48.8958 12.604 49.3038 12.604C50.2958 12.604 50.9398 13.044 51.2358 13.924C51.4118 13.588 51.7038 13.284 52.1118 13.012C52.5198 12.74 52.9518 12.604 53.4078 12.604ZM62.3114 12.628C62.4794 12.628 62.6154 12.684 62.7194 12.796C62.8314 12.9 62.8874 13.04 62.8874 13.216V18.424C62.8874 18.584 62.8314 18.72 62.7194 18.832C62.6154 18.944 62.4794 19 62.3114 19C62.1434 19 62.0074 18.948 61.9034 18.844C61.7994 18.732 61.7474 18.592 61.7474 18.424V18.112C61.5394 18.392 61.2554 18.632 60.8954 18.832C60.5354 19.024 60.1474 19.12 59.7314 19.12C59.1874 19.12 58.6914 18.98 58.2434 18.7C57.8034 18.42 57.4554 18.032 57.1994 17.536C56.9514 17.032 56.8274 16.468 56.8274 15.844C56.8274 15.22 56.9514 14.66 57.1994 14.164C57.4554 13.66 57.8034 13.268 58.2434 12.988C58.6834 12.708 59.1674 12.568 59.6954 12.568C60.1194 12.568 60.5114 12.656 60.8714 12.832C61.2394 13.008 61.5314 13.232 61.7474 13.504V13.216C61.7474 13.048 61.7994 12.908 61.9034 12.796C62.0074 12.684 62.1434 12.628 62.3114 12.628ZM59.8634 18.064C60.2394 18.064 60.5714 17.968 60.8594 17.776C61.1554 17.584 61.3834 17.32 61.5434 16.984C61.7114 16.648 61.7954 16.268 61.7954 15.844C61.7954 15.428 61.7114 15.052 61.5434 14.716C61.3834 14.38 61.1554 14.116 60.8594 13.924C60.5714 13.724 60.2394 13.624 59.8634 13.624C59.4874 13.624 59.1514 13.72 58.8554 13.912C58.5674 14.104 58.3394 14.368 58.1714 14.704C58.0114 15.04 57.9314 15.42 57.9314 15.844C57.9314 16.268 58.0114 16.648 58.1714 16.984C58.3394 17.32 58.5674 17.584 58.8554 17.776C59.1514 17.968 59.4874 18.064 59.8634 18.064ZM65.6625 18.424C65.6625 18.584 65.6065 18.72 65.4945 18.832C65.3905 18.944 65.2545 19 65.0865 19C64.9265 19 64.7905 18.944 64.6785 18.832C64.5745 18.72 64.5225 18.584 64.5225 18.424V13.228C64.5225 13.068 64.5745 12.932 64.6785 12.82C64.7905 12.708 64.9265 12.652 65.0865 12.652C65.2545 12.652 65.3905 12.708 65.4945 12.82C65.6065 12.932 65.6625 13.068 65.6625 13.228V18.424ZM65.0865 11.86C64.8545 11.86 64.6865 11.82 64.5825 11.74C64.4865 11.652 64.4385 11.516 64.4385 11.332V11.14C64.4385 10.948 64.4905 10.812 64.5945 10.732C64.7065 10.652 64.8745 10.612 65.0985 10.612C65.3225 10.612 65.4825 10.656 65.5785 10.744C65.6825 10.824 65.7345 10.956 65.7345 11.14V11.332C65.7345 11.524 65.6825 11.66 65.5785 11.74C65.4745 11.82 65.3105 11.86 65.0865 11.86ZM68.5372 18.424C68.5372 18.584 68.4812 18.72 68.3692 18.832C68.2572 18.944 68.1212 19 67.9612 19C67.8012 19 67.6652 18.944 67.5532 18.832C67.4492 18.72 67.3972 18.584 67.3972 18.424V10.696C67.3972 10.536 67.4532 10.4 67.5652 10.288C67.6772 10.176 67.8132 10.12 67.9732 10.12C68.1332 10.12 68.2652 10.176 68.3692 10.288C68.4812 10.4 68.5372 10.536 68.5372 10.696V18.424Z" fill="white"/>
</svg>
