<svg width="116" height="36" viewBox="0 0 116 36" fill="none" xmlns="http://www.w3.org/2000/svg">
<rect width="116" height="36" rx="7" fill="url(#paint0_linear)"/>
<path d="M59.7188 22.5078C59.3333 23.0599 58.7943 23.474 58.1016 23.75C57.4141 24.0208 56.612 24.1562 55.6953 24.1562C54.7682 24.1562 53.9453 23.9401 53.2266 23.5078C52.5078 23.0703 51.9505 22.4505 51.5547 21.6484C51.1641 20.8464 50.9635 19.9167 50.9531 18.8594V17.8672C50.9531 16.1536 51.3516 14.8255 52.1484 13.8828C52.9505 12.9401 54.0755 12.4688 55.5234 12.4688C56.7109 12.4688 57.6667 12.7734 58.3906 13.3828C59.1146 13.987 59.5573 14.8464 59.7188 15.9609H58.2188C57.9375 14.4557 57.0417 13.7031 55.5312 13.7031C54.526 13.7031 53.763 14.0573 53.2422 14.7656C52.7266 15.4688 52.4661 16.4896 52.4609 17.8281V18.7578C52.4609 20.0339 52.7526 21.0495 53.3359 21.8047C53.9193 22.5547 54.7083 22.9297 55.7031 22.9297C56.2656 22.9297 56.7578 22.8672 57.1797 22.7422C57.6016 22.6172 57.9505 22.4062 58.2266 22.1094V19.5547H55.5938V18.3359H59.7188V22.5078ZM63.3594 15.5469L63.3984 16.4844C64.0182 15.7552 64.8542 15.3906 65.9062 15.3906C67.0885 15.3906 67.8932 15.8438 68.3203 16.75C68.6016 16.3438 68.9661 16.0156 69.4141 15.7656C69.8672 15.5156 70.401 15.3906 71.0156 15.3906C72.8698 15.3906 73.8125 16.3724 73.8438 18.3359V24H72.3984V18.4219C72.3984 17.8177 72.2604 17.3672 71.9844 17.0703C71.7083 16.7682 71.2448 16.6172 70.5938 16.6172C70.0573 16.6172 69.612 16.7786 69.2578 17.1016C68.9036 17.4193 68.6979 17.849 68.6406 18.3906V24H67.1875V18.4609C67.1875 17.2318 66.5859 16.6172 65.3828 16.6172C64.4349 16.6172 63.7865 17.0208 63.4375 17.8281V24H61.9922V15.5469H63.3594ZM81.25 24C81.1667 23.8333 81.099 23.5365 81.0469 23.1094C80.375 23.8073 79.5729 24.1562 78.6406 24.1562C77.8073 24.1562 77.1224 23.9219 76.5859 23.4531C76.0547 22.9792 75.7891 22.3802 75.7891 21.6562C75.7891 20.776 76.1224 20.0938 76.7891 19.6094C77.4609 19.1198 78.4036 18.875 79.6172 18.875H81.0234V18.2109C81.0234 17.7057 80.8724 17.3047 80.5703 17.0078C80.2682 16.7057 79.8229 16.5547 79.2344 16.5547C78.7188 16.5547 78.2865 16.6849 77.9375 16.9453C77.5885 17.2057 77.4141 17.5208 77.4141 17.8906H75.9609C75.9609 17.4688 76.1094 17.0625 76.4062 16.6719C76.7083 16.276 77.1146 15.9635 77.625 15.7344C78.1406 15.5052 78.7057 15.3906 79.3203 15.3906C80.2943 15.3906 81.0573 15.6354 81.6094 16.125C82.1615 16.6094 82.4479 17.2786 82.4688 18.1328V22.0234C82.4688 22.7995 82.5677 23.4167 82.7656 23.875V24H81.25ZM78.8516 22.8984C79.3047 22.8984 79.7344 22.7812 80.1406 22.5469C80.5469 22.3125 80.8411 22.0078 81.0234 21.6328V19.8984H79.8906C78.1198 19.8984 77.2344 20.4167 77.2344 21.4531C77.2344 21.9062 77.3854 22.2604 77.6875 22.5156C77.9896 22.7708 78.3776 22.8984 78.8516 22.8984ZM86.3047 24H84.8594V15.5469H86.3047V24ZM84.7422 13.3047C84.7422 13.0703 84.8125 12.8724 84.9531 12.7109C85.099 12.5495 85.3125 12.4688 85.5938 12.4688C85.875 12.4688 86.0885 12.5495 86.2344 12.7109C86.3802 12.8724 86.4531 13.0703 86.4531 13.3047C86.4531 13.5391 86.3802 13.7344 86.2344 13.8906C86.0885 14.0469 85.875 14.125 85.5938 14.125C85.3125 14.125 85.099 14.0469 84.9531 13.8906C84.8125 13.7344 84.7422 13.5391 84.7422 13.3047ZM90.1953 24H88.75V12H90.1953V24Z" fill="white"/>
<path d="M43.3332 17.9998H43.8332V17.4998H43.3332V17.9998ZM33.9998 26.8332C29.1213 26.8332 25.1665 22.8784 25.1665 17.9998H24.1665C24.1665 23.4306 28.569 27.8332 33.9998 27.8332V26.8332ZM42.8332 17.9998C42.8332 22.8784 38.8784 26.8332 33.9998 26.8332V27.8332C39.4306 27.8332 43.8332 23.4306 43.8332 17.9998H42.8332ZM33.9998 8.1665C28.569 8.1665 24.1665 12.569 24.1665 17.9998H25.1665C25.1665 13.1213 29.1213 9.1665 33.9998 9.1665V8.1665ZM33.9998 9.1665C36.4716 9.1665 38.7055 10.1811 40.3094 11.8178L41.0236 11.1179C39.2394 9.29716 36.7512 8.1665 33.9998 8.1665V9.1665ZM34.6665 18.4998H43.3332V17.4998H34.6665V18.4998Z" fill="white"/>
<defs>
<linearGradient id="paint0_linear" x1="0" y1="18" x2="116" y2="18" gradientUnits="userSpaceOnUse">
<stop stop-color="#E52D27"/>
<stop offset="1" stop-color="#B31217"/>
</linearGradient>
</defs>
</svg>
