<svg width="116" height="36" viewBox="0 0 116 36" fill="none" xmlns="http://www.w3.org/2000/svg">
<rect width="116" height="36" rx="7" fill="#414345"/>
<path d="M52.25 13.1406V24H50.8359V18.8125H45.8203V24H44.4062V13.1328H45.8203V17.7188H50.8359V13.1406H52.25ZM54.1016 13.1328H62.4531V14.2188H58.9844V24H57.5703V14.2188H54.1016V13.1328ZM69.8828 22.0547L73.2422 13.125H74.5547L75.9062 24H74.5156L73.5469 15.8828L70.5703 24H69.2812L66.0234 15.5078L65.0078 24H63.7578L65.1094 13.125H66.5L69.8828 22.0547ZM78.1719 24V13.1328H79.5859V22.9062H84.3828V24H78.1719ZM85.5938 15.8047H90.25V16.8047H86.8594L86.7188 19.625C88.0052 19.7188 88.9766 20.0938 89.6328 20.75C89.8828 21 90.0885 21.3359 90.25 21.7578C90.4167 22.1797 90.5 22.6615 90.5 23.2031C90.5 24.2708 90.1745 25.125 89.5234 25.7656C88.8776 26.4115 87.974 26.7344 86.8125 26.7344C86.5625 26.7344 86.2604 26.6979 85.9062 26.625C85.5573 26.5573 85.2656 26.4583 85.0312 26.3281L85.4688 25.3672C85.8385 25.5755 86.2865 25.6797 86.8125 25.6797C87.6094 25.6797 88.2135 25.4453 88.625 24.9766C89.0365 24.5078 89.2422 23.9167 89.2422 23.2031C89.2422 22.0781 88.7135 21.3047 87.6562 20.8828C87.125 20.6693 86.5104 20.5625 85.8125 20.5625H85.3203L85.5938 15.8047Z" fill="url(#paint0_linear)"/>
<path d="M22.6665 14.6665H13.9998V18.6665H21.9998V22.6665L17.9998 23.9998L13.9998 22.6665V20.6665M8.6665 10.6665H27.3332L25.9998 26.6665L17.9998 29.3332L9.99984 26.6665L8.6665 10.6665Z" stroke="#E5462D"/>
<defs>
<linearGradient id="paint0_linear" x1="43" y1="18.5" x2="92" y2="18.5" gradientUnits="userSpaceOnUse">
<stop stop-color="#E43B17"/>
<stop offset="1" stop-color="#E65144"/>
</linearGradient>
</defs>
</svg>
