<svg width="116" height="36" viewBox="0 0 116 36" fill="none" xmlns="http://www.w3.org/2000/svg">
<rect width="116" height="36" rx="7" fill="#414345"/>
<path d="M44.1152 13.8496V22H43.0547V13.8496H44.1152ZM49.8398 19.0293C49.8398 17.7754 49.3906 17.1484 48.4922 17.1484C48.2617 17.1484 48.0508 17.2109 47.8594 17.3359C47.5664 17.5234 47.3359 17.832 47.168 18.2617C47.1094 18.4102 47.0801 18.5273 47.0801 18.6133V22H46.1367V16.5039H47.0801V17.5117C47.4316 16.7695 48.0039 16.3984 48.7969 16.3984C49.1172 16.3984 49.4043 16.4707 49.6582 16.6152C49.916 16.7559 50.1172 16.9082 50.2617 17.0723C50.6094 17.459 50.7832 18.002 50.7832 18.7012V22H49.8398V19.0293ZM53.9883 21.3496C54.6641 21.3496 55.002 21.0586 55.002 20.4766C55.002 20.125 54.6797 19.8438 54.0352 19.6328L53.4609 19.4336C53.0508 19.2891 52.7461 19.084 52.5469 18.8184C52.3516 18.5488 52.2539 18.2324 52.2539 17.8691C52.2539 17.502 52.4238 17.166 52.7637 16.8613C53.1035 16.5527 53.5391 16.3984 54.0703 16.3984C54.4219 16.3984 54.7344 16.4453 55.0078 16.5391C55.2812 16.6289 55.4922 16.7324 55.6406 16.8496L55.3066 17.5527C55.1855 17.4551 55.0137 17.3633 54.791 17.2773C54.5684 17.1914 54.3281 17.1484 54.0703 17.1484C53.8164 17.1484 53.6074 17.2246 53.4434 17.377C53.2793 17.5293 53.1973 17.6992 53.1973 17.8867C53.1973 18.0742 53.2598 18.2305 53.3848 18.3555C53.5098 18.4805 53.7617 18.6094 54.1406 18.7422L54.7148 18.9414C55.1328 19.0859 55.4434 19.2754 55.6465 19.5098C55.8457 19.748 55.9453 20.0918 55.9453 20.541C55.9453 20.9902 55.7734 21.3633 55.4297 21.6602C55.0859 21.957 54.6172 22.1055 54.0234 22.1055C53.707 22.1055 53.4023 22.0723 53.1094 22.0059C52.8203 21.9434 52.4961 21.8086 52.1367 21.6016L52.4766 20.875C52.7773 21.0547 53.0332 21.1797 53.2441 21.25C53.4551 21.3164 53.7031 21.3496 53.9883 21.3496ZM57.6328 19.252C57.6328 19.6309 57.6797 19.9629 57.7734 20.248C57.8711 20.5293 58 20.748 58.1602 20.9043C58.3242 21.0566 58.5 21.1699 58.6875 21.2441C58.8789 21.3145 59.082 21.3496 59.2969 21.3496C59.7344 21.3496 60.1113 21.1992 60.4277 20.8984C60.7754 20.5664 60.9492 20.0176 60.9492 19.252C60.9492 18.4902 60.7754 17.9395 60.4277 17.5996C60.1074 17.3027 59.7305 17.1543 59.2969 17.1543C58.8555 17.1543 58.4785 17.3027 58.166 17.5996C57.8105 17.9395 57.6328 18.4902 57.6328 19.252ZM56.6895 19.252C56.6895 18.0684 57.0703 17.2441 57.832 16.7793C58.2539 16.5254 58.7422 16.3984 59.2969 16.3984C59.8477 16.3984 60.3379 16.5254 60.7676 16.7793C60.9941 16.9199 61.1914 17.0957 61.3594 17.3066C61.7227 17.7832 61.9043 18.4316 61.9043 19.252C61.9043 20.4395 61.5254 21.2617 60.7676 21.7188C60.3457 21.9766 59.8555 22.1055 59.2969 22.1055C58.7344 22.1055 58.2461 21.9766 57.832 21.7188C57.6016 21.582 57.4023 21.4062 57.2344 21.1914C56.8711 20.7266 56.6895 20.0801 56.6895 19.252ZM66.6387 19.252C66.6387 17.8496 66.2207 17.1484 65.3848 17.1484C65.1582 17.1484 64.9531 17.2324 64.7695 17.4004C64.5859 17.5684 64.4453 17.7734 64.3477 18.0156C64.2266 18.2617 64.166 18.5176 64.166 18.7832V22H63.2227V16.5039H64.166V17.377C64.2871 17.0918 64.4648 16.8574 64.6992 16.6738C64.9375 16.4902 65.2324 16.3984 65.584 16.3984C66.4668 16.3984 67.0527 16.8379 67.3418 17.7168C67.6504 16.8379 68.1934 16.3984 68.9707 16.3984C69.6152 16.3984 70.1035 16.6387 70.4355 17.1191C70.7715 17.5996 70.9395 18.3105 70.9395 19.252V21.9941L70.0254 22V19.252C70.0254 17.8496 69.6074 17.1484 68.7715 17.1484C68.5449 17.1484 68.3398 17.2324 68.1562 17.4004C67.9727 17.5684 67.832 17.7734 67.7344 18.0156C67.6133 18.2617 67.5527 18.5176 67.5527 18.7832V22H66.6387V19.252ZM76.5703 19.0293C76.5703 17.7754 76.1211 17.1484 75.2227 17.1484C74.9922 17.1484 74.7812 17.2109 74.5898 17.3359C74.2969 17.5234 74.0664 17.832 73.8984 18.2617C73.8398 18.4102 73.8105 18.5273 73.8105 18.6133V22H72.8672V16.5039H73.8105V17.5117C74.1621 16.7695 74.7344 16.3984 75.5273 16.3984C75.8477 16.3984 76.1348 16.4707 76.3887 16.6152C76.6465 16.7559 76.8477 16.9082 76.9922 17.0723C77.3398 17.459 77.5137 18.002 77.5137 18.7012V22H76.5703V19.0293ZM80.7246 16.5039V22H79.7812V17.2539H78.8086V16.5039H80.7246ZM79.5586 14.3301C79.5586 14.1348 79.625 13.9688 79.7578 13.832C79.8945 13.6914 80.0586 13.6211 80.25 13.6211C80.4414 13.6211 80.6035 13.6914 80.7363 13.832C80.873 13.9688 80.9414 14.1348 80.9414 14.3301C80.9414 14.5254 80.873 14.6934 80.7363 14.834C80.6035 14.9707 80.4414 15.0391 80.25 15.0391C80.0586 15.0391 79.8945 14.9707 79.7578 14.834C79.625 14.6934 79.5586 14.5254 79.5586 14.3301ZM85.2363 19.5273C83.7988 19.5273 83.0801 19.8848 83.0801 20.5996C83.0801 20.791 83.1387 20.9688 83.2559 21.1328C83.377 21.2969 83.5137 21.3789 83.666 21.3789H83.8945C84.7539 21.3789 85.2129 20.9277 85.2715 20.0254V19.5273H85.2363ZM82.541 16.7676C83.2441 16.5215 83.8203 16.3984 84.2695 16.3984C84.7188 16.3984 85.1113 16.5098 85.4473 16.7324C85.7832 16.9551 86.0078 17.2852 86.1211 17.7227C86.1836 17.9688 86.2148 18.4707 86.2148 19.2285V21.0625C86.2148 21.4062 86.2422 21.7188 86.2969 22H85.3477C85.2969 21.8398 85.2715 21.6582 85.2715 21.4551V21.4141C85.1738 21.5312 85.0664 21.6328 84.9492 21.7188C84.582 21.9883 84.1914 22.123 83.7773 22.123C83.082 22.123 82.6035 21.875 82.3418 21.3789C82.2051 21.1328 82.1367 20.8809 82.1367 20.623C82.1367 19.9395 82.5371 19.4453 83.3379 19.1406C83.8184 18.957 84.4277 18.8652 85.166 18.8652H85.2715V18.2734C85.2715 17.8438 85.1895 17.5508 85.0254 17.3945C84.834 17.2148 84.5156 17.125 84.0703 17.125C83.625 17.125 83.1309 17.25 82.5879 17.5L82.541 16.7676Z" fill="url(#paint0_linear)"/>
<path d="M18 8C12.5142 8 8 12.5142 8 18C8 23.4858 12.5142 28 18 28C23.4858 28 28 23.4858 28 18C28 12.5142 23.4858 8 18 8ZM18 10.065C22.38 10.065 25.935 13.62 25.935 18C25.935 22.38 22.38 25.935 18 25.935C13.62 25.935 10.065 22.38 10.065 18C10.065 17.2625 10.165 16.5492 10.3542 15.8717C10.7186 16.4026 11.2069 16.8368 11.7768 17.1368C12.3467 17.4367 12.981 17.5934 13.625 17.5933C14.6773 17.5929 15.6864 17.1747 16.4305 16.4305C17.1747 15.6864 17.5929 14.6773 17.5933 13.625C17.5935 12.9809 17.4367 12.3465 17.1366 11.7766C16.8365 11.2067 16.402 10.7185 15.8708 10.3542C16.5642 10.1617 17.2805 10.0644 18 10.065V10.065Z" fill="#B72AF6"/>
<defs>
<linearGradient id="paint0_linear" x1="42" y1="18" x2="87" y2="18" gradientUnits="userSpaceOnUse">
<stop stop-color="#D722FE"/>
<stop offset="1" stop-color="#9B31EF"/>
</linearGradient>
</defs>
</svg>
