<svg width="116" height="36" viewBox="0 0 116 36" fill="none" xmlns="http://www.w3.org/2000/svg">
<rect width="116" height="36" rx="7" fill="#414345"/>
<path d="M46.8203 13.1328V24H45.4062V13.1328H46.8203ZM54.4531 20.0391C54.4531 18.3672 53.8542 17.5312 52.6562 17.5312C52.349 17.5312 52.0677 17.6146 51.8125 17.7812C51.4219 18.0312 51.1146 18.4427 50.8906 19.0156C50.8125 19.2135 50.7734 19.3698 50.7734 19.4844V24H49.5156V16.6719H50.7734V18.0156C51.2422 17.026 52.0052 16.5312 53.0625 16.5312C53.4896 16.5312 53.8724 16.6276 54.2109 16.8203C54.5547 17.0078 54.8229 17.2109 55.0156 17.4297C55.4792 17.9453 55.7109 18.6693 55.7109 19.6016V24H54.4531V20.0391ZM60.2188 24.1406C58.9792 24.1406 58.3594 23.4531 58.3594 22.0781V17.6719H57.0625V16.6719H58.3594V15.1875L59.6172 14.7188V16.6719H61.4062V17.6719H59.6172V22C59.6172 22.401 59.7188 22.6901 59.9219 22.8672C60.125 23.0391 60.3516 23.125 60.6016 23.125C61.0859 23.125 61.4635 23.0833 61.7344 23L61.8906 23.8828C61.4115 24.0547 60.8542 24.1406 60.2188 24.1406ZM66.1406 17.5312C65.4167 17.5312 64.875 17.75 64.5156 18.1875C64.2656 18.4896 64.1016 18.9167 64.0234 19.4688H67.8125C67.7656 18.901 67.5964 18.4349 67.3047 18.0703C67.0078 17.7109 66.6198 17.5312 66.1406 17.5312ZM68.7812 23.5703C68.2188 23.9505 67.4583 24.1406 66.5 24.1406C65.2865 24.1406 64.3516 23.7943 63.6953 23.1016C63.0391 22.4089 62.7109 21.487 62.7109 20.3359C62.7109 18.8359 63.1979 17.75 64.1719 17.0781C64.7135 16.7135 65.3177 16.5312 65.9844 16.5312C67.0156 16.5312 67.7969 16.8802 68.3281 17.5781C68.776 18.1771 69.0156 18.9635 69.0469 19.9375L68.8594 20.4062H63.9688C63.9792 21.2708 64.2109 21.9427 64.6641 22.4219C65.1172 22.8958 65.7214 23.1328 66.4766 23.1328C67.0495 23.1328 67.7057 22.9792 68.4453 22.6719L68.7812 23.5703ZM72.4844 24.1406C71.401 24.1406 70.8594 23.4531 70.8594 22.0781V12.4766H72.1172V22C72.1172 22.401 72.1953 22.6901 72.3516 22.8672C72.513 23.0391 72.6615 23.125 72.7969 23.125C72.9323 23.125 73.2292 23.1042 73.6875 23.0625L73.7891 23.9766C73.2682 24.0859 72.8333 24.1406 72.4844 24.1406ZM77.125 24.1406C76.0417 24.1406 75.5 23.4531 75.5 22.0781V12.4766H76.7578V22C76.7578 22.401 76.8359 22.6901 76.9922 22.8672C77.1536 23.0391 77.3021 23.125 77.4375 23.125C77.5729 23.125 77.8698 23.1042 78.3281 23.0625L78.4297 23.9766C77.9089 24.0859 77.474 24.1406 77.125 24.1406ZM81.8516 16.6719V24H80.5938V17.6719H79.2969V16.6719H81.8516ZM80.2969 13.7734C80.2969 13.513 80.3854 13.2917 80.5625 13.1094C80.7448 12.9219 80.9635 12.8281 81.2188 12.8281C81.474 12.8281 81.6901 12.9219 81.8672 13.1094C82.0495 13.2917 82.1406 13.513 82.1406 13.7734C82.1406 14.0339 82.0495 14.2578 81.8672 14.4453C81.6901 14.6276 81.474 14.7188 81.2188 14.7188C80.9635 14.7188 80.7448 14.6276 80.5625 14.4453C80.3854 14.2578 80.2969 14.0339 80.2969 13.7734ZM85.9609 13.1328V22.9062C85.9505 23.25 85.9453 23.5312 85.9453 23.75C85.9453 23.9635 85.9245 24.2214 85.8828 24.5234C85.8464 24.8307 85.7943 25.0885 85.7266 25.2969C85.6641 25.5104 85.5703 25.7474 85.4453 26.0078C85.3203 26.2682 85.1719 26.4948 85 26.6875C84.5833 27.1562 84.0599 27.5495 83.4297 27.8672L82.8203 27.0938C83.4297 26.625 83.8698 26.1146 84.1406 25.5625C84.4115 25.0156 84.5469 24.3151 84.5469 23.4609V13.1328H85.9609Z" fill="#ECE9E6"/>
<path d="M8 8V28H28V8H8ZM11.1025 10.5925H15.2692V12.1208H14.1108V17.3517H15.2692V18.88H11.1025V17.3517H12.3058V12.1208H11.1025V10.5925ZM20.315 10.5925H22.1667V16.0092C22.1667 16.5192 22.1208 16.935 21.9817 17.3058C21.8425 17.6758 21.6567 17.9533 21.3792 18.2308C21.1483 18.4633 20.8242 18.695 20.4542 18.7875C20.0709 18.9398 19.6624 19.0184 19.25 19.0192C18.6017 19.0192 18.0467 18.88 17.63 18.6483C17.2264 18.4189 16.8658 18.1212 16.5642 17.7683L17.7225 16.4725C17.9533 16.7508 18.185 16.935 18.4167 17.0742C18.6475 17.2133 18.9258 17.3058 19.2042 17.3058C19.5283 17.3058 19.805 17.2133 20.0375 16.9817C20.2217 16.75 20.315 16.4258 20.315 15.9167V10.5925ZM9.85167 24.25H17.3517V25.5H9.85167V24.25Z" fill="white"/>
</svg>
