<svg width="116" height="36" viewBox="0 0 116 36" fill="none" xmlns="http://www.w3.org/2000/svg">
<rect width="116" height="36" rx="7" fill="#414345"/>
<path d="M46.1152 13.8496V21.1797C46.1074 21.4375 46.1035 21.6484 46.1035 21.8125C46.1035 21.9727 46.0879 22.166 46.0566 22.3926C46.0293 22.623 45.9902 22.8164 45.9395 22.9727C45.8926 23.1328 45.8223 23.3105 45.7285 23.5059C45.6348 23.7012 45.5234 23.8711 45.3945 24.0156C45.082 24.3672 44.6895 24.6621 44.2168 24.9004L43.7598 24.3203C44.2168 23.9688 44.5469 23.5859 44.75 23.1719C44.9531 22.7617 45.0547 22.2363 45.0547 21.5957V13.8496H46.1152ZM50.7207 19.5273C49.2832 19.5273 48.5645 19.8848 48.5645 20.5996C48.5645 20.791 48.623 20.9688 48.7402 21.1328C48.8613 21.2969 48.998 21.3789 49.1504 21.3789H49.3789C50.2383 21.3789 50.6973 20.9277 50.7559 20.0254V19.5273H50.7207ZM48.0254 16.7676C48.7285 16.5215 49.3047 16.3984 49.7539 16.3984C50.2031 16.3984 50.5957 16.5098 50.9316 16.7324C51.2676 16.9551 51.4922 17.2852 51.6055 17.7227C51.668 17.9688 51.6992 18.4707 51.6992 19.2285V21.0625C51.6992 21.4062 51.7266 21.7188 51.7812 22H50.832C50.7812 21.8398 50.7559 21.6582 50.7559 21.4551V21.4141C50.6582 21.5312 50.5508 21.6328 50.4336 21.7188C50.0664 21.9883 49.6758 22.123 49.2617 22.123C48.5664 22.123 48.0879 21.875 47.8262 21.3789C47.6895 21.1328 47.6211 20.8809 47.6211 20.623C47.6211 19.9395 48.0215 19.4453 48.8223 19.1406C49.3027 18.957 49.9121 18.8652 50.6504 18.8652H50.7559V18.2734C50.7559 17.8438 50.6738 17.5508 50.5098 17.3945C50.3184 17.2148 50 17.125 49.5547 17.125C49.1094 17.125 48.6152 17.25 48.0723 17.5L48.0254 16.7676ZM57.1074 16.5039H58.0566L55.6133 22H54.9922L52.5371 16.5039H53.5508L55.332 20.4414L57.1074 16.5039ZM61.7246 19.5273C60.2871 19.5273 59.5684 19.8848 59.5684 20.5996C59.5684 20.791 59.627 20.9688 59.7441 21.1328C59.8652 21.2969 60.002 21.3789 60.1543 21.3789H60.3828C61.2422 21.3789 61.7012 20.9277 61.7598 20.0254V19.5273H61.7246ZM59.0293 16.7676C59.7324 16.5215 60.3086 16.3984 60.7578 16.3984C61.207 16.3984 61.5996 16.5098 61.9355 16.7324C62.2715 16.9551 62.4961 17.2852 62.6094 17.7227C62.6719 17.9688 62.7031 18.4707 62.7031 19.2285V21.0625C62.7031 21.4062 62.7305 21.7188 62.7852 22H61.8359C61.7852 21.8398 61.7598 21.6582 61.7598 21.4551V21.4141C61.6621 21.5312 61.5547 21.6328 61.4375 21.7188C61.0703 21.9883 60.6797 22.123 60.2656 22.123C59.5703 22.123 59.0918 21.875 58.8301 21.3789C58.6934 21.1328 58.625 20.8809 58.625 20.623C58.625 19.9395 59.0254 19.4453 59.8262 19.1406C60.3066 18.957 60.916 18.8652 61.6543 18.8652H61.7598V18.2734C61.7598 17.8438 61.6777 17.5508 61.5137 17.3945C61.3223 17.2148 61.0039 17.125 60.5586 17.125C60.1133 17.125 59.6191 17.25 59.0762 17.5L59.0293 16.7676ZM65.6562 21.3496C66.332 21.3496 66.6699 21.0586 66.6699 20.4766C66.6699 20.125 66.3477 19.8438 65.7031 19.6328L65.1289 19.4336C64.7188 19.2891 64.4141 19.084 64.2148 18.8184C64.0195 18.5488 63.9219 18.2324 63.9219 17.8691C63.9219 17.502 64.0918 17.166 64.4316 16.8613C64.7715 16.5527 65.207 16.3984 65.7383 16.3984C66.0898 16.3984 66.4023 16.4453 66.6758 16.5391C66.9492 16.6289 67.1602 16.7324 67.3086 16.8496L66.9746 17.5527C66.8535 17.4551 66.6816 17.3633 66.459 17.2773C66.2363 17.1914 65.9961 17.1484 65.7383 17.1484C65.4844 17.1484 65.2754 17.2246 65.1113 17.377C64.9473 17.5293 64.8652 17.6992 64.8652 17.8867C64.8652 18.0742 64.9277 18.2305 65.0527 18.3555C65.1777 18.4805 65.4297 18.6094 65.8086 18.7422L66.3828 18.9414C66.8008 19.0859 67.1113 19.2754 67.3145 19.5098C67.5137 19.748 67.6133 20.0918 67.6133 20.541C67.6133 20.9902 67.4414 21.3633 67.0977 21.6602C66.7539 21.957 66.2852 22.1055 65.6914 22.1055C65.375 22.1055 65.0703 22.0723 64.7773 22.0059C64.4883 21.9434 64.1641 21.8086 63.8047 21.6016L64.1445 20.875C64.4453 21.0547 64.7012 21.1797 64.9121 21.25C65.123 21.3164 65.3711 21.3496 65.6562 21.3496ZM71.2168 21.3496C71.6738 21.3496 72.1133 21.1953 72.5352 20.8867L72.8984 21.5195C72.5898 21.7461 72.3145 21.9004 72.0723 21.9824C71.8301 22.0645 71.4648 22.1055 70.9766 22.1055C70.1719 22.1055 69.5332 21.8457 69.0605 21.3262C68.5918 20.8066 68.3574 20.1152 68.3574 19.252C68.3574 18.3887 68.5918 17.6973 69.0605 17.1777C69.5332 16.6582 70.1719 16.3984 70.9766 16.3984C71.4648 16.3984 71.8301 16.4395 72.0723 16.5215C72.3145 16.6035 72.5898 16.7578 72.8984 16.9844L72.5352 17.6172C72.1133 17.3086 71.6738 17.1543 71.2168 17.1543H71.1816C70.6113 17.1543 70.1543 17.3594 69.8105 17.7695C69.4707 18.1797 69.3008 18.6738 69.3008 19.252C69.3008 19.8301 69.4707 20.3242 69.8105 20.7344C70.1543 21.1445 70.6113 21.3496 71.1816 21.3496H71.2168ZM74.1641 22V16.5039H75.1074V17.5117C75.248 17.207 75.4473 16.9453 75.7051 16.7266C75.9668 16.5078 76.2617 16.3984 76.5898 16.3984C76.9219 16.3984 77.1934 16.457 77.4043 16.5742C77.6191 16.6875 77.7617 16.8086 77.832 16.9375L77.4336 17.5352C77.3789 17.4648 77.3262 17.4062 77.2754 17.3594C77.1309 17.2188 76.918 17.1484 76.6367 17.1484C76.3555 17.1484 76.1016 17.2383 75.875 17.418C75.6484 17.6016 75.4688 17.8242 75.3359 18.0859C75.2031 18.3477 75.127 18.6094 75.1074 18.8711V22H74.1641ZM80.3105 16.5039V22H79.3672V17.2539H78.3945V16.5039H80.3105ZM79.1445 14.3301C79.1445 14.1348 79.2109 13.9688 79.3438 13.832C79.4805 13.6914 79.6445 13.6211 79.8359 13.6211C80.0273 13.6211 80.1895 13.6914 80.3223 13.832C80.459 13.9688 80.5273 14.1348 80.5273 14.3301C80.5273 14.5254 80.459 14.6934 80.3223 14.834C80.1895 14.9707 80.0273 15.0391 79.8359 15.0391C79.6445 15.0391 79.4805 14.9707 79.3438 14.834C79.2109 14.6934 79.1445 14.5254 79.1445 14.3301ZM83.2051 21.0977C83.5176 21.2695 83.8359 21.3555 84.1602 21.3555C84.7148 21.3555 85.1895 21.1465 85.584 20.7285C85.998 20.2949 86.2051 19.7734 86.2051 19.1641C86.2051 18.5508 86.0605 18.0625 85.7715 17.6992C85.4785 17.3359 85.1191 17.1543 84.6934 17.1543C84.4043 17.1543 84.1289 17.2539 83.8672 17.4531C83.6055 17.6484 83.3848 17.8984 83.2051 18.2031V21.0977ZM84.7812 16.3984C85.2344 16.3984 85.6445 16.5234 86.0117 16.7734C86.3789 17.0234 86.6602 17.3496 86.8555 17.752C87.0508 18.1504 87.1484 18.5781 87.1484 19.0352C87.1484 19.9453 86.8828 20.6855 86.3516 21.2559C85.8242 21.8223 85.168 22.1055 84.3828 22.1055C84.0547 22.1055 83.6621 22.043 83.2051 21.918V24.8828H82.2383V16.5039H83.2051V17.1484C83.6465 16.6484 84.1719 16.3984 84.7812 16.3984ZM89.9258 22.1055C88.9961 22.1055 88.5312 21.5898 88.5312 20.5586V17.2539H87.5586V16.5039H88.5312V15.3906L89.4746 15.0391V16.5039H90.8164V17.2539H89.4746V20.5C89.4746 20.8008 89.5508 21.0176 89.7031 21.1504C89.8555 21.2793 90.0254 21.3438 90.2129 21.3438C90.5762 21.3438 90.8594 21.3125 91.0625 21.25L91.1797 21.9121C90.8203 22.041 90.4023 22.1055 89.9258 22.1055Z" fill="url(#paint0_linear)"/>
<path d="M24.6665 18.6665V18.4443C24.6665 17.4624 23.8706 16.6665 22.8887 16.6665H21.3332C20.2286 16.6665 19.3332 17.5619 19.3332 18.6665C19.3332 19.7711 20.2286 20.6665 21.3332 20.6665H22.6665C23.7711 20.6665 24.6665 21.5619 24.6665 22.6665C24.6665 23.7711 23.7711 24.6665 22.6665 24.6665H21.3332C20.2286 24.6665 19.3332 23.7711 19.3332 22.6665M16.6665 15.9998V22.6665C16.6665 23.7711 15.7711 24.6665 14.6665 24.6665C13.5619 24.6665 12.6665 23.7711 12.6665 22.6665M8.6665 8.6665H27.3332V27.3332H8.6665V8.6665Z" stroke="#FFA01D"/>
<defs>
<linearGradient id="paint0_linear" x1="44" y1="18" x2="92" y2="18" gradientUnits="userSpaceOnUse">
<stop stop-color="#FF8008"/>
<stop offset="1" stop-color="#FFC636"/>
</linearGradient>
</defs>
</svg>
