<svg width="116" height="36" viewBox="0 0 116 36" fill="none" xmlns="http://www.w3.org/2000/svg">
<rect width="116" height="36" rx="7" fill="#414345"/>
<path d="M55.8203 12.1328V21.9062C55.8099 22.25 55.8047 22.5312 55.8047 22.75C55.8047 22.9635 55.7839 23.2214 55.7422 23.5234C55.7057 23.8307 55.6536 24.0885 55.5859 24.2969C55.5234 24.5104 55.4297 24.7474 55.3047 25.0078C55.1797 25.2682 55.0312 25.4948 54.8594 25.6875C54.4427 26.1562 53.9193 26.5495 53.2891 26.8672L52.6797 26.0938C53.2891 25.625 53.7292 25.1146 54 24.5625C54.2708 24.0156 54.4062 23.3151 54.4062 22.4609V12.1328H55.8203ZM61.9609 19.7031C60.0443 19.7031 59.0859 20.1797 59.0859 21.1328C59.0859 21.388 59.1641 21.625 59.3203 21.8438C59.4818 22.0625 59.6641 22.1719 59.8672 22.1719H60.1719C61.3177 22.1719 61.9297 21.5703 62.0078 20.3672V19.7031H61.9609ZM58.3672 16.0234C59.3047 15.6953 60.0729 15.5312 60.6719 15.5312C61.2708 15.5312 61.7943 15.6797 62.2422 15.9766C62.6901 16.2734 62.9896 16.7135 63.1406 17.2969C63.224 17.625 63.2656 18.2943 63.2656 19.3047V21.75C63.2656 22.2083 63.3021 22.625 63.375 23H62.1094C62.0417 22.7865 62.0078 22.5443 62.0078 22.2734V22.2188C61.8776 22.375 61.7344 22.5104 61.5781 22.625C61.0885 22.9844 60.5677 23.1641 60.0156 23.1641C59.0885 23.1641 58.4505 22.8333 58.1016 22.1719C57.9193 21.8438 57.8281 21.5078 57.8281 21.1641C57.8281 20.2526 58.362 19.5938 59.4297 19.1875C60.0703 18.9427 60.8828 18.8203 61.8672 18.8203H62.0078V18.0312C62.0078 17.4583 61.8984 17.0677 61.6797 16.8594C61.4245 16.6198 61 16.5 60.4062 16.5C59.8125 16.5 59.1536 16.6667 58.4297 17L58.3672 16.0234ZM70.4766 15.6719H71.7422L68.4844 23H67.6562L64.3828 15.6719H65.7344L68.1094 20.9219L70.4766 15.6719ZM76.6328 19.7031C74.7161 19.7031 73.7578 20.1797 73.7578 21.1328C73.7578 21.388 73.8359 21.625 73.9922 21.8438C74.1536 22.0625 74.3359 22.1719 74.5391 22.1719H74.8438C75.9896 22.1719 76.6016 21.5703 76.6797 20.3672V19.7031H76.6328ZM73.0391 16.0234C73.9766 15.6953 74.7448 15.5312 75.3438 15.5312C75.9427 15.5312 76.4661 15.6797 76.9141 15.9766C77.362 16.2734 77.6615 16.7135 77.8125 17.2969C77.8958 17.625 77.9375 18.2943 77.9375 19.3047V21.75C77.9375 22.2083 77.974 22.625 78.0469 23H76.7812C76.7135 22.7865 76.6797 22.5443 76.6797 22.2734V22.2188C76.5495 22.375 76.4062 22.5104 76.25 22.625C75.7604 22.9844 75.2396 23.1641 74.6875 23.1641C73.7604 23.1641 73.1224 22.8333 72.7734 22.1719C72.5911 21.8438 72.5 21.5078 72.5 21.1641C72.5 20.2526 73.0339 19.5938 74.1016 19.1875C74.7422 18.9427 75.5547 18.8203 76.5391 18.8203H76.6797V18.0312C76.6797 17.4583 76.5703 17.0677 76.3516 16.8594C76.0964 16.6198 75.6719 16.5 75.0781 16.5C74.4844 16.5 73.8255 16.6667 73.1016 17L73.0391 16.0234Z" fill="url(#paint0_linear)"/>
<path d="M15.6323 23.0829C15.6323 23.0829 14.8875 23.5163 16.1631 23.6626C17.7087 23.8392 18.4986 23.8138 20.2014 23.492C20.2014 23.492 20.65 23.7724 21.2753 24.0156C17.4567 25.6515 12.6334 23.9207 15.6323 23.0829ZM15.1655 20.9478C15.1655 20.9478 14.3298 21.5663 15.6066 21.6985C17.2577 21.869 18.5612 21.8829 20.8181 21.4485C20.8181 21.4485 21.1295 21.7649 21.62 21.9378C17.0041 23.2878 11.8628 22.044 15.1655 20.9478Z" fill="url(#paint1_linear)"/>
<path d="M19.099 17.3256C20.0404 18.4092 18.8522 19.3834 18.8522 19.3834C18.8522 19.3834 21.2411 18.1504 20.1442 16.6058C19.1193 15.1659 18.3337 14.4508 22.5872 11.9839C22.5872 11.984 15.9104 13.6511 19.099 17.3256Z" fill="url(#paint2_linear)"/>
<path d="M24.149 24.6625C24.149 24.6625 24.7004 25.1172 23.5415 25.4686C21.3381 26.1361 14.3687 26.3374 12.4331 25.4954C11.7376 25.1925 13.0423 24.7727 13.4528 24.6841C13.8807 24.5915 14.1251 24.6083 14.1251 24.6083C13.3512 24.0635 9.12308 25.6786 11.9778 26.1419C19.7623 27.4038 26.1679 25.5736 24.149 24.6625ZM15.991 18.7352C15.991 18.7352 12.4464 19.5772 14.7359 19.8833C15.7028 20.0127 17.6293 19.983 19.4251 19.8324C20.8923 19.7091 22.3646 19.4458 22.3646 19.4458C22.3646 19.4458 21.8478 19.6675 21.4734 19.9229C17.8731 20.8699 10.9196 20.4288 12.9217 19.4607C14.6142 18.6421 15.991 18.7352 15.991 18.7352ZM22.35 22.2894C26.0095 20.3883 24.3173 18.5613 23.1362 18.8074C22.8475 18.8675 22.7179 18.9199 22.7179 18.9199C22.7179 18.9199 22.8254 18.7513 23.0304 18.6788C25.3668 17.8577 27.1634 21.1011 22.2768 22.3858C22.2768 22.3855 22.3329 22.3347 22.35 22.2894Z" fill="url(#paint3_linear)"/>
<path d="M20.1444 8C20.1444 8 22.1707 10.0275 18.2221 13.1442C15.0555 15.6452 17.5 17.0708 18.221 18.7003C16.3724 17.0327 15.0164 15.5644 15.926 14.198C17.2616 12.1927 20.9617 11.22 20.1444 8Z" fill="url(#paint4_linear)"/>
<path d="M16.3501 27.4426C19.862 27.6672 25.2564 27.3176 25.384 25.6558C25.384 25.6558 25.1386 26.2858 22.4814 26.7856C19.4836 27.35 15.7854 27.2842 13.5928 26.9222C13.5928 26.9223 14.042 27.2942 16.3501 27.4426Z" fill="url(#paint5_linear)"/>
<defs>
<linearGradient id="paint0_linear" x1="53" y1="17.5" x2="79" y2="17.5" gradientUnits="userSpaceOnUse">
<stop stop-color="#EB3349"/>
<stop offset="1" stop-color="#F45C43"/>
</linearGradient>
<linearGradient id="paint1_linear" x1="14.1162" y1="22.8208" x2="21.62" y2="22.8208" gradientUnits="userSpaceOnUse">
<stop stop-color="#0052D4"/>
<stop offset="0.5" stop-color="#4364F7"/>
<stop offset="1" stop-color="#6FB1FC"/>
</linearGradient>
<linearGradient id="paint2_linear" x1="18.2363" y1="15.6837" x2="22.5872" y2="15.6837" gradientUnits="userSpaceOnUse">
<stop stop-color="#EB3349"/>
<stop offset="1" stop-color="#F45C43"/>
</linearGradient>
<linearGradient id="paint3_linear" x1="11" y1="22.5595" x2="25.3761" y2="22.5595" gradientUnits="userSpaceOnUse">
<stop stop-color="#0052D4"/>
<stop offset="0.5" stop-color="#4364F7"/>
<stop offset="1" stop-color="#6FB1FC"/>
</linearGradient>
<linearGradient id="paint4_linear" x1="15.6357" y1="13.3502" x2="20.6642" y2="13.3502" gradientUnits="userSpaceOnUse">
<stop stop-color="#EB3349"/>
<stop offset="1" stop-color="#F45C43"/>
</linearGradient>
<linearGradient id="paint5_linear" x1="13.5928" y1="26.5798" x2="25.384" y2="26.5798" gradientUnits="userSpaceOnUse">
<stop stop-color="#0052D4"/>
<stop offset="0.5" stop-color="#4364F7"/>
<stop offset="1" stop-color="#6FB1FC"/>
</linearGradient>
</defs>
</svg>
