<svg width="116" height="36" viewBox="0 0 116 36" fill="none" xmlns="http://www.w3.org/2000/svg">
<rect width="116" height="36" rx="7" fill="#414345"/>
<path d="M17.905 16.1408C19.2775 16.1408 20.3633 16.5042 21.165 17.23C21.9658 17.9567 22.3667 18.9467 22.3667 20.2017C22.3667 21.655 21.91 22.7908 20.9975 23.61C20.0908 24.4242 18.7992 24.8308 17.1225 24.8308C15.6008 24.8308 14.4058 24.5858 13.5367 24.095V22.1117C14.0801 22.4127 14.6633 22.6352 15.2692 22.7725C15.9208 22.9275 16.5267 23.0058 17.0858 23.0058C18.0725 23.0058 18.8242 22.785 19.3392 22.3442C19.855 21.9025 20.1125 21.2575 20.1125 20.4067C20.1125 18.78 19.075 17.9658 17.0017 17.9658C16.71 17.9658 16.3492 17.9975 15.9208 18.0592C15.4925 18.115 15.1167 18.18 14.7942 18.255L13.8158 17.6775L14.3375 11.0275H21.4167V12.9733H16.2658L15.9575 16.345C16.1758 16.3083 16.4392 16.265 16.7492 16.215C17.0658 16.165 17.4517 16.14 17.905 16.14V16.1408ZM18 8C12.4775 8 8 12.4775 8 18C8.00033 19.8593 8.51911 21.6817 9.49804 23.2624C10.477 24.8431 11.8773 26.1196 13.5417 26.9483V23.8858H13.6567C13.665 23.8892 17.7067 25.9408 20.3408 23.8858C22.9767 21.8292 21.6908 19.065 21.2408 18.4217C20.7908 17.7792 18.4767 16.6858 16.4842 16.8792C14.4917 17.0717 14.4917 17.1358 14.4917 17.1358L15.0058 11.2225L21.4117 11.1608V8.62C20.319 8.21614 19.1641 8.00632 17.9992 8L18 8ZM21.4125 8.62V11.1608L15.0058 11.2225L14.4917 17.1358C14.4917 17.1358 14.4917 17.0717 16.4842 16.8792C18.4775 16.6858 20.7917 17.7792 21.2408 18.4217C21.6908 19.065 22.9767 21.8292 20.3408 23.8858C17.7075 25.9417 13.6633 23.8892 13.6575 23.8858H13.5408V26.9483C14.9258 27.6392 16.4523 27.9993 18 28C23.5233 28 28 23.5225 28 18C27.9969 15.9873 27.3868 14.0223 26.2495 12.3617C25.1122 10.701 23.5005 9.42203 21.625 8.69167C21.5542 8.66667 21.4833 8.6425 21.4125 8.62V8.62Z" fill="#25A162"/>
<path d="M51.8203 12.1328V21.9062C51.8099 22.25 51.8047 22.5312 51.8047 22.75C51.8047 22.9635 51.7839 23.2214 51.7422 23.5234C51.7057 23.8307 51.6536 24.0885 51.5859 24.2969C51.5234 24.5104 51.4297 24.7474 51.3047 25.0078C51.1797 25.2682 51.0312 25.4948 50.8594 25.6875C50.4427 26.1562 49.9193 26.5495 49.2891 26.8672L48.6797 26.0938C49.2891 25.625 49.7292 25.1146 50 24.5625C50.2708 24.0156 50.4062 23.3151 50.4062 22.4609V12.1328H51.8203ZM58.5547 23.1406C55.9453 23.1406 54.6406 21.9531 54.6406 19.5781V12.1328H56.0547V19.2031C56.0547 20.1771 56.2786 20.8932 56.7266 21.3516C57.1745 21.8099 57.7656 22.0391 58.5 22.0391C59.9844 22.0391 60.7266 21.0234 60.7266 18.9922V12.1328H62.0625V19.3359C62.0625 20.487 61.7552 21.4089 61.1406 22.1016C60.526 22.7943 59.6641 23.1406 58.5547 23.1406ZM69.6875 19.0391C69.6875 17.3672 69.0885 16.5312 67.8906 16.5312C67.5833 16.5312 67.3021 16.6146 67.0469 16.7812C66.6562 17.0312 66.349 17.4427 66.125 18.0156C66.0469 18.2135 66.0078 18.3698 66.0078 18.4844V23H64.75V15.6719H66.0078V17.0156C66.4766 16.026 67.2396 15.5312 68.2969 15.5312C68.724 15.5312 69.1068 15.6276 69.4453 15.8203C69.7891 16.0078 70.0573 16.2109 70.25 16.4297C70.7135 16.9453 70.9453 17.6693 70.9453 18.6016V23H69.6875V19.0391ZM75.2266 15.6719V23H73.9688V16.6719H72.6719V15.6719H75.2266ZM73.6719 12.7734C73.6719 12.513 73.7604 12.2917 73.9375 12.1094C74.1198 11.9219 74.3385 11.8281 74.5938 11.8281C74.849 11.8281 75.0651 11.9219 75.2422 12.1094C75.4245 12.2917 75.5156 12.513 75.5156 12.7734C75.5156 13.0339 75.4245 13.2578 75.2422 13.4453C75.0651 13.6276 74.849 13.7188 74.5938 13.7188C74.3385 13.7188 74.1198 13.6276 73.9375 13.4453C73.7604 13.2578 73.6719 13.0339 73.6719 12.7734ZM79.7344 23.1406C78.4948 23.1406 77.875 22.4531 77.875 21.0781V16.6719H76.5781V15.6719H77.875V14.1875L79.1328 13.7188V15.6719H80.9219V16.6719H79.1328V21C79.1328 21.401 79.2344 21.6901 79.4375 21.8672C79.6406 22.0391 79.8672 22.125 80.1172 22.125C80.6016 22.125 80.9792 22.0833 81.25 22L81.4062 22.8828C80.9271 23.0547 80.3698 23.1406 79.7344 23.1406ZM82.6875 14.8047H87.3438V15.8047H83.9531L83.8125 18.625C85.099 18.7188 86.0703 19.0938 86.7266 19.75C86.9766 20 87.1823 20.3359 87.3438 20.7578C87.5104 21.1797 87.5938 21.6615 87.5938 22.2031C87.5938 23.2708 87.2682 24.125 86.6172 24.7656C85.9714 25.4115 85.0677 25.7344 83.9062 25.7344C83.6562 25.7344 83.3542 25.6979 83 25.625C82.651 25.5573 82.3594 25.4583 82.125 25.3281L82.5625 24.3672C82.9323 24.5755 83.3802 24.6797 83.9062 24.6797C84.7031 24.6797 85.3073 24.4453 85.7188 23.9766C86.1302 23.5078 86.3359 22.9167 86.3359 22.2031C86.3359 21.0781 85.8073 20.3047 84.75 19.8828C84.2188 19.6693 83.6042 19.5625 82.9062 19.5625H82.4141L82.6875 14.8047Z" fill="url(#paint0_linear)"/>
<defs>
<linearGradient id="paint0_linear" x1="49" y1="18" x2="106" y2="18" gradientUnits="userSpaceOnUse">
<stop stop-color="#229B70"/>
<stop offset="1" stop-color="#8EF5B5"/>
</linearGradient>
</defs>
</svg>
