<svg width="100" height="30" viewBox="0 0 100 30" fill="none" xmlns="http://www.w3.org/2000/svg">
<rect width="100" height="30" fill="#2867B2"/>
<path fill-rule="evenodd" clip-rule="evenodd" d="M28 9.875C28 8.84015 27.1599 8 26.125 8H14.875C13.8401 8 13 8.84015 13 9.875V21.125C13 22.1599 13.8401 23 14.875 23H26.125C27.1599 23 28 22.1599 28 21.125V9.875Z" fill="white"/>
<path d="M17.2996 13.2341H14.7871V20.7916H17.2996V13.2341Z" fill="#2867B2"/>
<path d="M16.0619 9.59027C15.2023 9.59027 14.6406 10.1554 14.6406 10.8961C14.6406 11.6213 15.1852 12.202 16.0286 12.202H16.0449C16.9209 12.202 17.4662 11.6213 17.4662 10.8961C17.45 10.1554 16.921 9.59027 16.0619 9.59027V9.59027Z" fill="#2867B2"/>
<path d="M23.4667 13.0565C22.134 13.0565 21.5371 13.7894 21.2028 14.3042V13.2342H18.6909C18.7242 13.9431 18.6909 20.7916 18.6909 20.7916H21.2027V16.571C21.2027 16.3451 21.219 16.1192 21.2856 15.9578C21.4669 15.5066 21.8804 15.0393 22.5744 15.0393C23.483 15.0393 23.847 15.7326 23.847 16.7481V20.7916H26.3589V16.4577C26.3589 14.1363 25.1195 13.0565 23.4667 13.0565V13.0565Z" fill="#2867B2"/>
<path d="M42.628 17.884C42.796 17.884 42.932 17.936 43.036 18.04C43.148 18.144 43.204 18.28 43.204 18.448C43.204 18.608 43.148 18.74 43.036 18.844C42.932 18.948 42.796 19 42.628 19H38.572C38.404 19 38.264 18.944 38.152 18.832C38.048 18.72 37.996 18.584 37.996 18.424V11.176C37.996 11.016 38.052 10.88 38.164 10.768C38.276 10.656 38.42 10.6 38.596 10.6C38.756 10.6 38.892 10.656 39.004 10.768C39.124 10.88 39.184 11.016 39.184 11.176V17.884H42.628ZM45.5297 18.424C45.5297 18.584 45.4737 18.72 45.3617 18.832C45.2577 18.944 45.1217 19 44.9537 19C44.7937 19 44.6577 18.944 44.5457 18.832C44.4417 18.72 44.3897 18.584 44.3897 18.424V13.228C44.3897 13.068 44.4417 12.932 44.5457 12.82C44.6577 12.708 44.7937 12.652 44.9537 12.652C45.1217 12.652 45.2577 12.708 45.3617 12.82C45.4737 12.932 45.5297 13.068 45.5297 13.228V18.424ZM44.9537 11.86C44.7217 11.86 44.5537 11.82 44.4497 11.74C44.3537 11.652 44.3057 11.516 44.3057 11.332V11.14C44.3057 10.948 44.3577 10.812 44.4617 10.732C44.5737 10.652 44.7417 10.612 44.9657 10.612C45.1897 10.612 45.3497 10.656 45.4457 10.744C45.5497 10.824 45.6017 10.956 45.6017 11.14V11.332C45.6017 11.524 45.5497 11.66 45.4457 11.74C45.3417 11.82 45.1777 11.86 44.9537 11.86ZM50.3724 12.568C51.8124 12.568 52.5324 13.432 52.5324 15.16V18.424C52.5324 18.584 52.4764 18.72 52.3644 18.832C52.2604 18.944 52.1244 19 51.9564 19C51.7964 19 51.6604 18.944 51.5484 18.832C51.4444 18.72 51.3924 18.584 51.3924 18.424V15.172C51.3924 14.7 51.2844 14.324 51.0684 14.044C50.8524 13.764 50.5004 13.624 50.0124 13.624C49.6924 13.624 49.4004 13.696 49.1364 13.84C48.8804 13.976 48.6764 14.164 48.5244 14.404C48.3804 14.636 48.3084 14.892 48.3084 15.172V18.424C48.3084 18.584 48.2524 18.72 48.1404 18.832C48.0364 18.944 47.9004 19 47.7324 19C47.5644 19 47.4284 18.948 47.3244 18.844C47.2204 18.732 47.1684 18.592 47.1684 18.424V13.288C47.1684 13.128 47.2204 12.992 47.3244 12.88C47.4364 12.768 47.5724 12.712 47.7324 12.712C47.9004 12.712 48.0364 12.768 48.1404 12.88C48.2524 12.992 48.3084 13.128 48.3084 13.288V13.708C48.5164 13.388 48.8044 13.12 49.1724 12.904C49.5484 12.68 49.9484 12.568 50.3724 12.568ZM59.3708 18.004C59.4908 18.132 59.5508 18.272 59.5508 18.424C59.5508 18.584 59.4868 18.72 59.3588 18.832C59.2388 18.936 59.1108 18.988 58.9748 18.988C58.7988 18.988 58.6588 18.924 58.5548 18.796L56.1908 16.288L55.4708 16.936V18.424C55.4708 18.584 55.4148 18.72 55.3028 18.832C55.1988 18.944 55.0668 19 54.9068 19C54.7388 19 54.5988 18.944 54.4868 18.832C54.3828 18.72 54.3308 18.584 54.3308 18.424V10.696C54.3308 10.536 54.3828 10.4 54.4868 10.288C54.5988 10.176 54.7388 10.12 54.9068 10.12C55.0668 10.12 55.1988 10.176 55.3028 10.288C55.4148 10.4 55.4708 10.536 55.4708 10.696V15.568L58.4108 12.868C58.5468 12.748 58.6868 12.688 58.8308 12.688C58.9668 12.688 59.0908 12.748 59.2028 12.868C59.3148 12.98 59.3708 13.1 59.3708 13.228C59.3708 13.388 59.2948 13.532 59.1428 13.66L57.0668 15.508L59.3708 18.004ZM66.1415 15.616C66.1335 15.76 66.0735 15.884 65.9615 15.988C65.8495 16.084 65.7175 16.132 65.5655 16.132H61.3415C61.3975 16.716 61.6175 17.184 62.0015 17.536C62.3935 17.888 62.8695 18.064 63.4295 18.064C63.8135 18.064 64.1255 18.008 64.3655 17.896C64.6055 17.784 64.8175 17.64 65.0015 17.464C65.1215 17.392 65.2375 17.356 65.3495 17.356C65.4855 17.356 65.5975 17.404 65.6855 17.5C65.7815 17.596 65.8295 17.708 65.8295 17.836C65.8295 18.004 65.7495 18.156 65.5895 18.292C65.3575 18.524 65.0495 18.72 64.6655 18.88C64.2815 19.04 63.8895 19.12 63.4895 19.12C62.8415 19.12 62.2695 18.984 61.7735 18.712C61.2855 18.44 60.9055 18.06 60.6335 17.572C60.3695 17.084 60.2375 16.532 60.2375 15.916C60.2375 15.244 60.3735 14.656 60.6455 14.152C60.9255 13.64 61.2895 13.248 61.7375 12.976C62.1935 12.704 62.6815 12.568 63.2015 12.568C63.7135 12.568 64.1935 12.7 64.6415 12.964C65.0895 13.228 65.4495 13.592 65.7215 14.056C65.9935 14.52 66.1335 15.04 66.1415 15.616ZM63.2015 13.624C62.7535 13.624 62.3655 13.752 62.0375 14.008C61.7095 14.256 61.4935 14.644 61.3895 15.172H64.9295V15.076C64.8895 14.652 64.6975 14.304 64.3535 14.032C64.0175 13.76 63.6335 13.624 63.2015 13.624ZM72.5653 10.12C72.7333 10.12 72.8693 10.176 72.9733 10.288C73.0853 10.392 73.1413 10.528 73.1413 10.696V18.424C73.1413 18.584 73.0853 18.72 72.9733 18.832C72.8693 18.944 72.7333 19 72.5653 19C72.3973 19 72.2613 18.948 72.1573 18.844C72.0533 18.732 72.0013 18.592 72.0013 18.424V18.088C71.8013 18.376 71.5173 18.62 71.1493 18.82C70.7893 19.02 70.4013 19.12 69.9853 19.12C69.4413 19.12 68.9493 18.98 68.5093 18.7C68.0693 18.42 67.7213 18.032 67.4653 17.536C67.2093 17.032 67.0813 16.468 67.0813 15.844C67.0813 15.22 67.2053 14.66 67.4533 14.164C67.7093 13.66 68.0573 13.268 68.4973 12.988C68.9373 12.708 69.4213 12.568 69.9493 12.568C70.3733 12.568 70.7653 12.656 71.1253 12.832C71.4853 13.008 71.7773 13.236 72.0013 13.516V10.696C72.0013 10.528 72.0533 10.392 72.1573 10.288C72.2613 10.176 72.3973 10.12 72.5653 10.12ZM70.1173 18.064C70.4933 18.064 70.8253 17.968 71.1133 17.776C71.4093 17.584 71.6373 17.32 71.7973 16.984C71.9653 16.648 72.0493 16.268 72.0493 15.844C72.0493 15.428 71.9653 15.052 71.7973 14.716C71.6373 14.372 71.4093 14.104 71.1133 13.912C70.8253 13.72 70.4933 13.624 70.1173 13.624C69.7413 13.624 69.4053 13.72 69.1093 13.912C68.8213 14.104 68.5933 14.372 68.4253 14.716C68.2653 15.052 68.1853 15.428 68.1853 15.844C68.1853 16.268 68.2653 16.648 68.4253 16.984C68.5933 17.32 68.8213 17.584 69.1093 17.776C69.4053 17.968 69.7413 18.064 70.1173 18.064ZM75.9164 18.424C75.9164 18.584 75.8604 18.72 75.7484 18.832C75.6444 18.944 75.5084 19 75.3404 19C75.1804 19 75.0444 18.944 74.9324 18.832C74.8284 18.72 74.7764 18.584 74.7764 18.424V13.228C74.7764 13.068 74.8284 12.932 74.9324 12.82C75.0444 12.708 75.1804 12.652 75.3404 12.652C75.5084 12.652 75.6444 12.708 75.7484 12.82C75.8604 12.932 75.9164 13.068 75.9164 13.228V18.424ZM75.3404 11.86C75.1084 11.86 74.9404 11.82 74.8364 11.74C74.7404 11.652 74.6924 11.516 74.6924 11.332V11.14C74.6924 10.948 74.7444 10.812 74.8484 10.732C74.9604 10.652 75.1284 10.612 75.3524 10.612C75.5764 10.612 75.7364 10.656 75.8324 10.744C75.9364 10.824 75.9884 10.956 75.9884 11.14V11.332C75.9884 11.524 75.9364 11.66 75.8324 11.74C75.7284 11.82 75.5644 11.86 75.3404 11.86ZM80.7591 12.568C82.1991 12.568 82.9191 13.432 82.9191 15.16V18.424C82.9191 18.584 82.8631 18.72 82.7511 18.832C82.6471 18.944 82.5111 19 82.3431 19C82.1831 19 82.0471 18.944 81.9351 18.832C81.8311 18.72 81.7791 18.584 81.7791 18.424V15.172C81.7791 14.7 81.6711 14.324 81.4551 14.044C81.2391 13.764 80.8871 13.624 80.3991 13.624C80.0791 13.624 79.7871 13.696 79.5231 13.84C79.2671 13.976 79.0631 14.164 78.9111 14.404C78.7671 14.636 78.6951 14.892 78.6951 15.172V18.424C78.6951 18.584 78.6391 18.72 78.5271 18.832C78.4231 18.944 78.2871 19 78.1191 19C77.9511 19 77.8151 18.948 77.7111 18.844C77.6071 18.732 77.5551 18.592 77.5551 18.424V13.288C77.5551 13.128 77.6071 12.992 77.7111 12.88C77.8231 12.768 77.9591 12.712 78.1191 12.712C78.2871 12.712 78.4231 12.768 78.5271 12.88C78.6391 12.992 78.6951 13.128 78.6951 13.288V13.708C78.9031 13.388 79.1911 13.12 79.5591 12.904C79.9351 12.68 80.3351 12.568 80.7591 12.568Z" fill="white"/>
</svg>
