<svg width="116" height="36" viewBox="0 0 116 36" fill="none" xmlns="http://www.w3.org/2000/svg">
<rect width="116" height="36" rx="7" fill="url(#paint0_linear)"/>
<path d="M43.8281 22.7734H49.2188V24H42.3203V12.625H43.8281V22.7734ZM52.2734 24H50.8281V15.5469H52.2734V24ZM50.7109 13.3047C50.7109 13.0703 50.7812 12.8724 50.9219 12.7109C51.0677 12.5495 51.2812 12.4688 51.5625 12.4688C51.8438 12.4688 52.0573 12.5495 52.2031 12.7109C52.349 12.8724 52.4219 13.0703 52.4219 13.3047C52.4219 13.5391 52.349 13.7344 52.2031 13.8906C52.0573 14.0469 51.8438 14.125 51.5625 14.125C51.2812 14.125 51.0677 14.0469 50.9219 13.8906C50.7812 13.7344 50.7109 13.5391 50.7109 13.3047ZM55.9609 15.5469L56.0078 16.6094C56.6536 15.7969 57.4974 15.3906 58.5391 15.3906C60.3255 15.3906 61.2266 16.3984 61.2422 18.4141V24H59.7969V18.4062C59.7917 17.7969 59.651 17.3464 59.375 17.0547C59.1042 16.763 58.6797 16.6172 58.1016 16.6172C57.6328 16.6172 57.2214 16.7422 56.8672 16.9922C56.513 17.2422 56.237 17.5703 56.0391 17.9766V24H54.5938V15.5469H55.9609ZM65.7812 20.0859L64.875 21.0312V24H63.4297V12H64.875V19.2578L65.6484 18.3281L68.2812 15.5469H70.0391L66.75 19.0781L70.4219 24H68.7266L65.7812 20.0859ZM74.8828 24.1562C73.737 24.1562 72.8047 23.7812 72.0859 23.0312C71.3672 22.276 71.0078 21.2682 71.0078 20.0078V19.7422C71.0078 18.9036 71.1667 18.1562 71.4844 17.5C71.8073 16.8385 72.2552 16.3229 72.8281 15.9531C73.4062 15.5781 74.0312 15.3906 74.7031 15.3906C75.8021 15.3906 76.6562 15.7526 77.2656 16.4766C77.875 17.2005 78.1797 18.237 78.1797 19.5859V20.1875H72.4531C72.474 21.0208 72.7161 21.6953 73.1797 22.2109C73.6484 22.7214 74.2422 22.9766 74.9609 22.9766C75.4714 22.9766 75.9036 22.8724 76.2578 22.6641C76.612 22.4557 76.9219 22.1797 77.1875 21.8359L78.0703 22.5234C77.362 23.612 76.2995 24.1562 74.8828 24.1562ZM74.7031 16.5781C74.1198 16.5781 73.6302 16.7917 73.2344 17.2188C72.8385 17.6406 72.5938 18.2344 72.5 19H76.7344V18.8906C76.6927 18.1562 76.4948 17.5885 76.1406 17.1875C75.7865 16.7812 75.3073 16.5781 74.7031 16.5781ZM79.5078 19.7031C79.5078 18.4062 79.8151 17.3646 80.4297 16.5781C81.0443 15.7865 81.849 15.3906 82.8438 15.3906C83.8333 15.3906 84.6172 15.7292 85.1953 16.4062V12H86.6406V24H85.3125L85.2422 23.0938C84.6641 23.8021 83.8594 24.1562 82.8281 24.1562C81.849 24.1562 81.0495 23.7552 80.4297 22.9531C79.8151 22.151 79.5078 21.1042 79.5078 19.8125V19.7031ZM80.9531 19.8672C80.9531 20.8255 81.151 21.5755 81.5469 22.1172C81.9427 22.6589 82.4896 22.9297 83.1875 22.9297C84.1042 22.9297 84.7734 22.5182 85.1953 21.6953V17.8125C84.763 17.0156 84.099 16.6172 83.2031 16.6172C82.4948 16.6172 81.9427 16.8906 81.5469 17.4375C81.151 17.9844 80.9531 18.7943 80.9531 19.8672ZM90.4609 24H89.0156V15.5469H90.4609V24ZM88.8984 13.3047C88.8984 13.0703 88.9688 12.8724 89.1094 12.7109C89.2552 12.5495 89.4688 12.4688 89.75 12.4688C90.0312 12.4688 90.2448 12.5495 90.3906 12.7109C90.5365 12.8724 90.6094 13.0703 90.6094 13.3047C90.6094 13.5391 90.5365 13.7344 90.3906 13.8906C90.2448 14.0469 90.0312 14.125 89.75 14.125C89.4688 14.125 89.2552 14.0469 89.1094 13.8906C88.9688 13.7344 88.8984 13.5391 88.8984 13.3047ZM94.1484 15.5469L94.1953 16.6094C94.8411 15.7969 95.6849 15.3906 96.7266 15.3906C98.513 15.3906 99.4141 16.3984 99.4297 18.4141V24H97.9844V18.4062C97.9792 17.7969 97.8385 17.3464 97.5625 17.0547C97.2917 16.763 96.8672 16.6172 96.2891 16.6172C95.8203 16.6172 95.4089 16.7422 95.0547 16.9922C94.7005 17.2422 94.4245 17.5703 94.2266 17.9766V24H92.7812V15.5469H94.1484Z" fill="white"/>
<path d="M20.9998 15.9998V22.6665M28.9998 22.6665V19.3332C28.9998 17.8604 27.8059 16.6665 26.3332 16.6665C24.8604 16.6665 23.6665 17.8604 23.6665 19.3332V22.6665V15.9998M20.3332 13.9998H21.6665M16.9998 8.6665H32.9998C33.7362 8.6665 34.3332 9.26346 34.3332 9.99984V25.9998C34.3332 26.7362 33.7362 27.3332 32.9998 27.3332H16.9998C16.2635 27.3332 15.6665 26.7362 15.6665 25.9998V9.99984C15.6665 9.26346 16.2635 8.6665 16.9998 8.6665Z" stroke="white"/>
<defs>
<linearGradient id="paint0_linear" x1="0" y1="18" x2="116" y2="18" gradientUnits="userSpaceOnUse">
<stop stop-color="#1488CC"/>
<stop offset="1" stop-color="#2B32B2"/>
</linearGradient>
</defs>
</svg>
