<svg width="116" height="36" viewBox="0 0 116 36" fill="none" xmlns="http://www.w3.org/2000/svg">
<rect width="116" height="36" rx="7" fill="#414345"/>
<path d="M52.4062 23V12.1328H53.8203V21.9062H58.6172V23H52.4062ZM61.8828 15.6719V23H60.625V16.6719H59.3281V15.6719H61.8828ZM60.3281 12.7734C60.3281 12.513 60.4167 12.2917 60.5938 12.1094C60.776 11.9219 60.9948 11.8281 61.25 11.8281C61.5052 11.8281 61.7214 11.9219 61.8984 12.1094C62.0807 12.2917 62.1719 12.513 62.1719 12.7734C62.1719 13.0339 62.0807 13.2578 61.8984 13.4453C61.7214 13.6276 61.5052 13.7188 61.25 13.7188C60.9948 13.7188 60.776 13.6276 60.5938 13.4453C60.4167 13.2578 60.3281 13.0339 60.3281 12.7734ZM69.3906 19.0391C69.3906 17.3672 68.7917 16.5312 67.5938 16.5312C67.2865 16.5312 67.0052 16.6146 66.75 16.7812C66.3594 17.0312 66.0521 17.4427 65.8281 18.0156C65.75 18.2135 65.7109 18.3698 65.7109 18.4844V23H64.4531V15.6719H65.7109V17.0156C66.1797 16.026 66.9427 15.5312 68 15.5312C68.4271 15.5312 68.8099 15.6276 69.1484 15.8203C69.4922 16.0078 69.7604 16.2109 69.9531 16.4297C70.4167 16.9453 70.6484 17.6693 70.6484 18.6016V23H69.3906V19.0391ZM78.1562 21.6562C77.6875 22.6458 76.9245 23.1406 75.8672 23.1406C75.4401 23.1406 75.0547 23.0469 74.7109 22.8594C74.3724 22.6667 74.1042 22.4609 73.9062 22.2422C73.7135 22.0234 73.5521 21.7266 73.4219 21.3516C73.2865 20.9766 73.2188 20.5495 73.2188 20.0703V15.6719H74.4766V19.6328C74.4766 21.3047 75.0755 22.1406 76.2734 22.1406C76.5807 22.1406 76.862 22.0573 77.1172 21.8906C77.5078 21.6406 77.8151 21.2292 78.0391 20.6562C78.1172 20.4583 78.1562 20.3021 78.1562 20.1875V15.6719H79.4141V23H78.1562V21.6562ZM81.1797 15.6719H82.6328L84.4688 18.375L86.375 15.6953H87.7188L85.0938 19.2969L87.6016 23H86.1484L84.3203 20.3047L82.4062 23H81.0625L83.6953 19.3828L81.1797 15.6719Z" fill="url(#paint0_linear)"/>
<path d="M11.3335 20.8826C11.3335 19.8723 11.6326 18.8846 12.193 18.044L12.9464 16.9139C13.6422 15.8702 14.1268 14.7003 14.3728 13.4703L14.8105 11.2814C15.1146 9.76094 16.4496 8.6665 18.0002 8.6665C19.5507 8.6665 20.8857 9.76094 21.1898 11.2814L21.6276 13.4703C21.8736 14.7003 22.3582 15.8702 23.054 16.9139L23.8074 18.044C24.3678 18.8846 24.6668 19.8723 24.6668 20.8826M14.8105 25.7313C15.3254 25.9054 15.8771 25.9998 16.4508 25.9998H19.5496C20.1233 25.9998 20.6749 25.9054 21.1898 25.7313M16.6668 15.3332L14.5965 19.4739C14.2211 20.2247 14.2211 21.1083 14.5965 21.8591C15.0482 22.7625 15.9715 23.3332 16.9816 23.3332H19.0188C20.0288 23.3332 20.9522 22.7625 21.4039 21.8591C21.7793 21.1083 21.7793 20.2247 21.4039 19.4739L19.3335 15.3332M16.6668 11.9998V13.9998M19.3335 11.9998V13.9998M16.8076 13.9295L15.3335 14.6665L16.1146 15.4476C17.156 16.489 18.8444 16.489 19.8858 15.4476L20.6668 14.6665L19.1927 13.9295C18.442 13.5541 17.5583 13.5541 16.8076 13.9295ZM9.02659 23.1005L9.66492 21.5047C9.8674 20.9984 10.3577 20.6665 10.9029 20.6665H12.4543C12.9877 20.6665 13.4697 20.9844 13.6798 21.4746L14.9207 24.37C15.163 24.9353 14.9872 25.5929 14.4952 25.9619L13.5104 26.7005C13.016 27.0713 12.3316 27.0538 11.8568 26.6581L9.41098 24.62C8.96725 24.2502 8.81207 23.6368 9.02659 23.1005ZM26.9738 23.1005L26.3354 21.5047C26.133 20.9984 25.6427 20.6665 25.0975 20.6665H23.546C23.0127 20.6665 22.5306 20.9844 22.3205 21.4746L21.0796 24.37C20.8374 24.9353 21.0132 25.5929 21.5052 25.9619L22.49 26.7005C22.9844 27.0713 23.6688 27.0538 24.1435 26.6581L26.5894 24.62C27.0331 24.2502 27.1883 23.6368 26.9738 23.1005Z" stroke="#F9AA14"/>
<defs>
<linearGradient id="paint0_linear" x1="51" y1="17" x2="89" y2="17" gradientUnits="userSpaceOnUse">
<stop stop-color="#F7971E"/>
<stop offset="1" stop-color="#FFD200"/>
</linearGradient>
</defs>
</svg>
