<svg width="116" height="36" viewBox="0 0 116 36" fill="none" xmlns="http://www.w3.org/2000/svg">
<rect width="116" height="36" rx="7" fill="#414345"/>
<path d="M47.2324 20.541L49.752 13.8438H50.7363L51.75 22H50.707L49.9805 15.9121L47.748 22H46.7812L44.3379 15.6309L43.5762 22H42.6387L43.6523 13.8438H44.6953L47.2324 20.541ZM55.9395 19.5273C54.502 19.5273 53.7832 19.8848 53.7832 20.5996C53.7832 20.791 53.8418 20.9688 53.959 21.1328C54.0801 21.2969 54.2168 21.3789 54.3691 21.3789H54.5977C55.457 21.3789 55.916 20.9277 55.9746 20.0254V19.5273H55.9395ZM53.2441 16.7676C53.9473 16.5215 54.5234 16.3984 54.9727 16.3984C55.4219 16.3984 55.8145 16.5098 56.1504 16.7324C56.4863 16.9551 56.7109 17.2852 56.8242 17.7227C56.8867 17.9688 56.918 18.4707 56.918 19.2285V21.0625C56.918 21.4062 56.9453 21.7188 57 22H56.0508C56 21.8398 55.9746 21.6582 55.9746 21.4551V21.4141C55.877 21.5312 55.7695 21.6328 55.6523 21.7188C55.2852 21.9883 54.8945 22.123 54.4805 22.123C53.7852 22.123 53.3066 21.875 53.0449 21.3789C52.9082 21.1328 52.8398 20.8809 52.8398 20.623C52.8398 19.9395 53.2402 19.4453 54.041 19.1406C54.5215 18.957 55.1309 18.8652 55.8691 18.8652H55.9746V18.2734C55.9746 17.8438 55.8926 17.5508 55.7285 17.3945C55.5371 17.2148 55.2188 17.125 54.7734 17.125C54.3281 17.125 53.834 17.25 53.291 17.5L53.2441 16.7676ZM58.5938 22V16.5039H59.5371V17.5117C59.6777 17.207 59.877 16.9453 60.1348 16.7266C60.3965 16.5078 60.6914 16.3984 61.0195 16.3984C61.3516 16.3984 61.623 16.457 61.834 16.5742C62.0488 16.6875 62.1914 16.8086 62.2617 16.9375L61.8633 17.5352C61.8086 17.4648 61.7559 17.4062 61.7051 17.3594C61.5605 17.2188 61.3477 17.1484 61.0664 17.1484C60.7852 17.1484 60.5312 17.2383 60.3047 17.418C60.0781 17.6016 59.8984 17.8242 59.7656 18.0859C59.6328 18.3477 59.5566 18.6094 59.5371 18.8711V22H58.5938ZM64.4004 22H63.457V13.3574H64.4004V18.3438L66.2695 16.5039H67.4414L65.1797 18.707L67.8457 22H66.6797L64.4004 19.1934V22ZM70.7051 22.1055C70.252 22.1055 69.8418 21.9805 69.4746 21.7305C69.1074 21.4805 68.8262 21.1562 68.6309 20.7578C68.4355 20.3555 68.3379 19.9258 68.3379 19.4688C68.3379 18.5586 68.6016 17.8203 69.1289 17.2539C69.6602 16.6836 70.3184 16.3984 71.1035 16.3984C71.4316 16.3984 71.8242 16.4609 72.2812 16.5859V13.3574H73.248V22H72.2812V21.3555C71.8398 21.8555 71.3145 22.1055 70.7051 22.1055ZM72.2812 17.4062C71.957 17.2344 71.6367 17.1484 71.3203 17.1484C70.7734 17.1484 70.3008 17.3555 69.9023 17.7695C69.4883 18.2109 69.2812 18.7363 69.2812 19.3457C69.2812 19.9551 69.4258 20.4414 69.7148 20.8047C70.0078 21.168 70.3672 21.3496 70.793 21.3496C71.082 21.3496 71.3574 21.252 71.6191 21.0566C71.8809 20.8574 72.1016 20.6055 72.2812 20.3008V17.4062ZM75.5156 19.252C75.5156 19.6309 75.5625 19.9629 75.6562 20.248C75.7539 20.5293 75.8828 20.748 76.043 20.9043C76.207 21.0566 76.3828 21.1699 76.5703 21.2441C76.7617 21.3145 76.9648 21.3496 77.1797 21.3496C77.6172 21.3496 77.9941 21.1992 78.3105 20.8984C78.6582 20.5664 78.832 20.0176 78.832 19.252C78.832 18.4902 78.6582 17.9395 78.3105 17.5996C77.9902 17.3027 77.6133 17.1543 77.1797 17.1543C76.7383 17.1543 76.3613 17.3027 76.0488 17.5996C75.6934 17.9395 75.5156 18.4902 75.5156 19.252ZM74.5723 19.252C74.5723 18.0684 74.9531 17.2441 75.7148 16.7793C76.1367 16.5254 76.625 16.3984 77.1797 16.3984C77.7305 16.3984 78.2207 16.5254 78.6504 16.7793C78.877 16.9199 79.0742 17.0957 79.2422 17.3066C79.6055 17.7832 79.7871 18.4316 79.7871 19.252C79.7871 20.4395 79.4082 21.2617 78.6504 21.7188C78.2285 21.9766 77.7383 22.1055 77.1797 22.1055C76.6172 22.1055 76.1289 21.9766 75.7148 21.7188C75.4844 21.582 75.2852 21.4062 75.1172 21.1914C74.7539 20.7266 74.5723 20.0801 74.5723 19.252ZM87.9316 16.5039H88.8809L86.7305 22H86.1211L84.5742 18.0684L83.0391 22H82.4297L80.2676 16.5039H81.2812L82.7637 20.4414L84.2402 16.5039H84.9727L86.4551 20.4414L87.9316 16.5039ZM93.668 19.0293C93.668 17.7754 93.2188 17.1484 92.3203 17.1484C92.0898 17.1484 91.8789 17.2109 91.6875 17.3359C91.3945 17.5234 91.1641 17.832 90.9961 18.2617C90.9375 18.4102 90.9082 18.5273 90.9082 18.6133V22H89.9648V16.5039H90.9082V17.5117C91.2598 16.7695 91.832 16.3984 92.625 16.3984C92.9453 16.3984 93.2324 16.4707 93.4863 16.6152C93.7441 16.7559 93.9453 16.9082 94.0898 17.0723C94.4375 17.459 94.6113 18.002 94.6113 18.7012V22H93.668V19.0293Z" fill="#ECE9E6"/>
<path d="M11.3332 15.3335L11.6867 14.9799C11.5437 14.8369 11.3287 14.7942 11.1418 14.8716C10.955 14.9489 10.8332 15.1313 10.8332 15.3335H11.3332ZM13.9998 18.0002L13.6463 18.3537L13.9998 18.7073L14.3534 18.3537L13.9998 18.0002ZM16.6665 15.3335H17.1665C17.1665 15.1313 17.0447 14.9489 16.8578 14.8716C16.671 14.7942 16.4559 14.8369 16.313 14.9799L16.6665 15.3335ZM21.9998 20.6668L21.6463 21.0204L21.9998 21.3739L22.3534 21.0204L21.9998 20.6668ZM9.99984 11.8335H25.9998V10.8335H9.99984V11.8335ZM26.8332 12.6668V23.3335H27.8332V12.6668H26.8332ZM25.9998 24.1668H9.99984V25.1668H25.9998V24.1668ZM9.1665 23.3335V12.6668H8.1665V23.3335H9.1665ZM9.99984 24.1668C9.5396 24.1668 9.1665 23.7937 9.1665 23.3335H8.1665C8.1665 24.346 8.98732 25.1668 9.99984 25.1668V24.1668ZM26.8332 23.3335C26.8332 23.7937 26.4601 24.1668 25.9998 24.1668V25.1668C27.0124 25.1668 27.8332 24.346 27.8332 23.3335H26.8332ZM25.9998 11.8335C26.4601 11.8335 26.8332 12.2066 26.8332 12.6668H27.8332C27.8332 11.6543 27.0124 10.8335 25.9998 10.8335V11.8335ZM9.99984 10.8335C8.98732 10.8335 8.1665 11.6543 8.1665 12.6668H9.1665C9.1665 12.2066 9.5396 11.8335 9.99984 11.8335V10.8335ZM11.8332 21.3335V15.3335H10.8332V21.3335H11.8332ZM10.9796 15.687L13.6463 18.3537L14.3534 17.6466L11.6867 14.9799L10.9796 15.687ZM14.3534 18.3537L17.0201 15.687L16.313 14.9799L13.6463 17.6466L14.3534 18.3537ZM16.1665 15.3335V21.3335H17.1665V15.3335H16.1665ZM21.4998 14.6668V20.6668H22.4998V14.6668H21.4998ZM18.9796 18.3537L21.6463 21.0204L22.3534 20.3133L19.6867 17.6466L18.9796 18.3537ZM22.3534 21.0204L25.0201 18.3537L24.3129 17.6466L21.6463 20.3133L22.3534 21.0204Z" fill="#F2EFED"/>
</svg>
