<svg width="116" height="36" viewBox="0 0 116 36" fill="none" xmlns="http://www.w3.org/2000/svg">
<rect width="116" height="36" rx="7" fill="#414345"/>
<path d="M45.2324 20.541L47.752 13.8438H48.7363L49.75 22H48.707L47.9805 15.9121L45.748 22H44.7812L42.3379 15.6309L41.5762 22H40.6387L41.6523 13.8438H42.6953L45.2324 20.541ZM51.6953 19.252C51.6953 19.6309 51.7422 19.9629 51.8359 20.248C51.9336 20.5293 52.0625 20.748 52.2227 20.9043C52.3867 21.0566 52.5625 21.1699 52.75 21.2441C52.9414 21.3145 53.1445 21.3496 53.3594 21.3496C53.7969 21.3496 54.1738 21.1992 54.4902 20.8984C54.8379 20.5664 55.0117 20.0176 55.0117 19.252C55.0117 18.4902 54.8379 17.9395 54.4902 17.5996C54.1699 17.3027 53.793 17.1543 53.3594 17.1543C52.918 17.1543 52.541 17.3027 52.2285 17.5996C51.873 17.9395 51.6953 18.4902 51.6953 19.252ZM50.752 19.252C50.752 18.0684 51.1328 17.2441 51.8945 16.7793C52.3164 16.5254 52.8047 16.3984 53.3594 16.3984C53.9102 16.3984 54.4004 16.5254 54.8301 16.7793C55.0566 16.9199 55.2539 17.0957 55.4219 17.3066C55.7852 17.7832 55.9668 18.4316 55.9668 19.252C55.9668 20.4395 55.5879 21.2617 54.8301 21.7188C54.4082 21.9766 53.918 22.1055 53.3594 22.1055C52.7969 22.1055 52.3086 21.9766 51.8945 21.7188C51.6641 21.582 51.4648 21.4062 51.2969 21.1914C50.9336 20.7266 50.752 20.0801 50.752 19.252ZM60.9883 19.0293C60.9883 17.7754 60.5391 17.1484 59.6406 17.1484C59.4102 17.1484 59.1992 17.2109 59.0078 17.3359C58.7148 17.5234 58.4844 17.832 58.3164 18.2617C58.2578 18.4102 58.2285 18.5273 58.2285 18.6133V22H57.2852V16.5039H58.2285V17.5117C58.5801 16.7695 59.1523 16.3984 59.9453 16.3984C60.2656 16.3984 60.5527 16.4707 60.8066 16.6152C61.0645 16.7559 61.2656 16.9082 61.4102 17.0723C61.7578 17.459 61.9316 18.002 61.9316 18.7012V22H60.9883V19.0293ZM65.7812 17.1543C65.1641 17.1543 64.7695 17.4414 64.5977 18.0156C64.5508 18.1641 64.5273 18.3164 64.5273 18.4727C64.5273 18.7969 64.627 19.0625 64.8262 19.2695C65.0254 19.4727 65.3438 19.5742 65.7812 19.5742C66.3984 19.5742 66.793 19.3086 66.9648 18.7773C67.0117 18.6406 67.0352 18.5039 67.0352 18.3672C67.0352 18.082 66.9434 17.8164 66.7598 17.5703C66.5449 17.293 66.2188 17.1543 65.7812 17.1543ZM67.6152 17.2539C67.8574 17.5977 67.9785 17.9668 67.9785 18.3613C67.9785 19.002 67.7402 19.5117 67.2637 19.8906C66.9004 20.1836 66.4062 20.3301 65.7812 20.3301C65.4453 20.3301 65.1445 20.2949 64.8789 20.2246C64.6484 20.4004 64.5332 20.5996 64.5332 20.8223C64.5332 21.1309 65.0352 21.2852 66.0391 21.2852C67.1953 21.2852 67.9316 21.5645 68.248 22.123C68.3457 22.2949 68.3945 22.4902 68.3945 22.709C68.3945 23.1895 68.2598 23.5957 67.9902 23.9277C67.4746 24.5645 66.6055 24.8828 65.3828 24.8828C64.7617 24.8828 64.2559 24.7578 63.8652 24.5078C63.4785 24.2578 63.2852 23.8926 63.2852 23.4121C63.2852 22.9238 63.4844 22.5176 63.8828 22.1934C64 22.0996 64.1445 22 64.3164 21.8945C63.832 21.7305 63.5898 21.4336 63.5898 21.0039C63.5898 20.8438 63.6445 20.6641 63.7539 20.4648C63.8633 20.2656 64.0293 20.0879 64.252 19.9316C63.8184 19.6191 63.5957 19.1406 63.584 18.4961V18.4609C63.584 17.957 63.7422 17.502 64.0586 17.0957C64.2227 16.8848 64.4531 16.7168 64.75 16.5918C65.0469 16.4629 65.3613 16.3984 65.6934 16.3984C66.0293 16.3984 66.3164 16.4336 66.5547 16.5039H68.3945V17.2539H67.6152ZM65.2188 22.0352C64.8398 22.2461 64.5859 22.4395 64.457 22.6152C64.3047 22.8184 64.2285 23.0332 64.2285 23.2598C64.2285 23.4863 64.2969 23.6641 64.4336 23.793C64.668 24.0156 65.043 24.127 65.5586 24.127C66.2695 24.127 66.8047 23.9512 67.1641 23.5996C67.3555 23.4121 67.4512 23.1836 67.4512 22.9141C67.4512 22.6367 67.3418 22.4355 67.123 22.3105C66.8887 22.1855 66.6621 22.1113 66.4434 22.0879C66.1465 22.0566 65.8887 22.041 65.6699 22.041C65.4551 22.041 65.3047 22.0391 65.2188 22.0352ZM69.9414 19.252C69.9414 19.6309 69.9883 19.9629 70.082 20.248C70.1797 20.5293 70.3086 20.748 70.4688 20.9043C70.6328 21.0566 70.8086 21.1699 70.9961 21.2441C71.1875 21.3145 71.3906 21.3496 71.6055 21.3496C72.043 21.3496 72.4199 21.1992 72.7363 20.8984C73.084 20.5664 73.2578 20.0176 73.2578 19.252C73.2578 18.4902 73.084 17.9395 72.7363 17.5996C72.416 17.3027 72.0391 17.1543 71.6055 17.1543C71.1641 17.1543 70.7871 17.3027 70.4746 17.5996C70.1191 17.9395 69.9414 18.4902 69.9414 19.252ZM68.998 19.252C68.998 18.0684 69.3789 17.2441 70.1406 16.7793C70.5625 16.5254 71.0508 16.3984 71.6055 16.3984C72.1562 16.3984 72.6465 16.5254 73.0762 16.7793C73.3027 16.9199 73.5 17.0957 73.668 17.3066C74.0312 17.7832 74.2129 18.4316 74.2129 19.252C74.2129 20.4395 73.834 21.2617 73.0762 21.7188C72.6543 21.9766 72.1641 22.1055 71.6055 22.1055C71.043 22.1055 70.5547 21.9766 70.1406 21.7188C69.9102 21.582 69.7109 21.4062 69.543 21.1914C69.1797 20.7266 68.998 20.0801 68.998 19.252ZM77.2949 22.1055C76.8418 22.1055 76.4316 21.9805 76.0645 21.7305C75.6973 21.4805 75.416 21.1562 75.2207 20.7578C75.0254 20.3555 74.9277 19.9258 74.9277 19.4688C74.9277 18.5586 75.1914 17.8203 75.7188 17.2539C76.25 16.6836 76.9082 16.3984 77.6934 16.3984C78.0215 16.3984 78.4141 16.4609 78.8711 16.5859V13.3574H79.8379V22H78.8711V21.3555C78.4297 21.8555 77.9043 22.1055 77.2949 22.1055ZM78.8711 17.4062C78.5469 17.2344 78.2266 17.1484 77.9102 17.1484C77.3633 17.1484 76.8906 17.3555 76.4922 17.7695C76.0781 18.2109 75.8711 18.7363 75.8711 19.3457C75.8711 19.9551 76.0156 20.4414 76.3047 20.8047C76.5977 21.168 76.957 21.3496 77.3828 21.3496C77.6719 21.3496 77.9473 21.252 78.209 21.0566C78.4707 20.8574 78.6914 20.6055 78.8711 20.3008V17.4062ZM84.2852 17.1484C83.6484 17.1484 83.123 17.5 82.709 18.2031V21.1328C82.9355 21.2773 83.2383 21.3496 83.6172 21.3496C84.6406 21.3496 85.2988 20.8965 85.5918 19.9902C85.6738 19.7246 85.7148 19.4258 85.7148 19.0938C85.7148 18.7578 85.6719 18.457 85.5859 18.1914C85.4453 17.7305 85.1816 17.416 84.7949 17.248C84.6348 17.1816 84.4648 17.1484 84.2852 17.1484ZM82.709 17.1484C82.9629 16.8633 83.2207 16.668 83.4824 16.5625C83.7441 16.4531 84.0312 16.3984 84.3438 16.3984C84.9766 16.3984 85.5117 16.6133 85.9492 17.043C86.168 17.2578 86.3398 17.5488 86.4648 17.916C86.5938 18.2793 86.6582 18.6719 86.6582 19.0938C86.6582 20.207 86.2422 21.0508 85.4102 21.625C84.9375 21.9453 84.4297 22.1055 83.8867 22.1055C83.0938 22.1055 82.3867 21.9141 81.7656 21.5312V13.3574H82.709V17.1484Z" fill="url(#paint0_linear)"/>
<path d="M18 8.6665L18.3685 8.32864C18.2738 8.22533 18.1401 8.1665 18 8.1665C17.8598 8.1665 17.7261 8.22533 17.6314 8.32864L18 8.6665ZM18 25.9998L17.6068 26.3087C17.7016 26.4294 17.8465 26.4998 18 26.4998C18.1534 26.4998 18.2983 26.4294 18.3931 26.3087L18 25.9998ZM14.1638 21.1175L13.7707 21.4264L14.1638 21.1175ZM14.4916 12.4938L14.123 12.156V12.156L14.4916 12.4938ZM21.5083 12.4938L21.8769 12.156L21.5083 12.4938ZM21.8361 21.1175L22.2293 21.4264V21.4264L21.8361 21.1175ZM18.5 27.9998V8.6665H17.5V27.9998H18.5ZM18.3931 25.6909L14.557 20.8086L13.7707 21.4264L17.6068 26.3087L18.3931 25.6909ZM14.8602 12.8317L18.3685 9.00437L17.6314 8.32864L14.123 12.156L14.8602 12.8317ZM17.6314 9.00437L21.1398 12.8317L21.8769 12.156L18.3685 8.32864L17.6314 9.00437ZM21.443 20.8086L17.6068 25.6909L18.3931 26.3087L22.2293 21.4264L21.443 20.8086ZM21.1398 12.8317C23.1803 15.0577 23.3086 18.434 21.443 20.8086L22.2293 21.4264C24.3975 18.6668 24.2484 14.743 21.8769 12.156L21.1398 12.8317ZM14.557 20.8086C12.6913 18.434 12.8196 15.0578 14.8602 12.8317L14.123 12.156C11.7516 14.743 11.6024 18.6668 13.7707 21.4264L14.557 20.8086Z" fill="#3A8C23"/>
<defs>
<linearGradient id="paint0_linear" x1="40" y1="18" x2="88" y2="18" gradientUnits="userSpaceOnUse">
<stop stop-color="#4EBA32"/>
<stop offset="1" stop-color="#2A6919"/>
</linearGradient>
</defs>
</svg>
