<svg width="116" height="36" viewBox="0 0 116 36" fill="none" xmlns="http://www.w3.org/2000/svg">
<rect width="116" height="36" rx="7" fill="#414345"/>
<path d="M59.8257 12.812V23H58.5L53.644 15.3682V23H52.3184V12.812H53.644L58.5 20.4512V12.812H59.8257ZM64.8135 16.9355C64.1348 16.9355 63.627 17.1406 63.29 17.5508C63.0557 17.834 62.9019 18.2344 62.8286 18.752H66.3809C66.3369 18.2197 66.1782 17.7827 65.9048 17.4409C65.6265 17.104 65.2627 16.9355 64.8135 16.9355ZM67.2891 22.5972C66.7617 22.9536 66.0488 23.1318 65.1504 23.1318C64.0127 23.1318 63.1362 22.8071 62.521 22.1577C61.9058 21.5083 61.5981 20.644 61.5981 19.5649C61.5981 18.1587 62.0547 17.1406 62.9678 16.5107C63.4756 16.1689 64.042 15.998 64.667 15.998C65.6338 15.998 66.3662 16.3252 66.8643 16.9795C67.2842 17.541 67.5088 18.2783 67.5381 19.1914L67.3623 19.6309H62.7773C62.7871 20.4414 63.0044 21.0713 63.4292 21.5205C63.854 21.9648 64.4204 22.187 65.1284 22.187C65.6655 22.187 66.2808 22.043 66.9741 21.7549L67.2891 22.5972ZM68.4829 16.1299H69.8452L71.5664 18.6641L73.3535 16.1519H74.6133L72.1523 19.5283L74.5034 23H73.1411L71.4272 20.4731L69.6328 23H68.373L70.8413 19.6089L68.4829 16.1299ZM77.9824 23.1318C76.8203 23.1318 76.2393 22.4873 76.2393 21.1982V17.0674H75.0234V16.1299H76.2393V14.7383L77.4185 14.2988V16.1299H79.0957V17.0674H77.4185V21.125C77.4185 21.501 77.5137 21.772 77.7041 21.938C77.8945 22.0991 78.1069 22.1797 78.3413 22.1797C78.7954 22.1797 79.1494 22.1406 79.4033 22.0625L79.5498 22.8901C79.1006 23.0513 78.5781 23.1318 77.9824 23.1318ZM82.5161 12.812V21.9746C82.5063 22.2969 82.5015 22.5605 82.5015 22.7656C82.5015 22.9658 82.4819 23.2075 82.4429 23.4907C82.4087 23.7788 82.3599 24.0205 82.2964 24.2158C82.2378 24.416 82.1499 24.6382 82.0327 24.8823C81.9155 25.1265 81.7764 25.3389 81.6152 25.5195C81.2246 25.959 80.7339 26.3276 80.1431 26.6255L79.5718 25.9004C80.1431 25.4609 80.5557 24.9824 80.8096 24.4648C81.0635 23.9521 81.1904 23.2954 81.1904 22.4946V12.812H82.5161ZM86.6396 22.187C87.4844 22.187 87.9067 21.8232 87.9067 21.0957C87.9067 20.6562 87.5039 20.3047 86.6982 20.041L85.9805 19.792C85.4678 19.6113 85.0869 19.355 84.8379 19.0229C84.5938 18.686 84.4717 18.2905 84.4717 17.8364C84.4717 17.3774 84.6841 16.9575 85.1089 16.5767C85.5337 16.1909 86.0781 15.998 86.7422 15.998C87.1816 15.998 87.5723 16.0566 87.9141 16.1738C88.2559 16.2861 88.5195 16.4155 88.7051 16.562L88.2876 17.4409C88.1362 17.3188 87.9214 17.2041 87.6431 17.0967C87.3647 16.9893 87.0645 16.9355 86.7422 16.9355C86.4248 16.9355 86.1636 17.0308 85.9585 17.2212C85.7534 17.4116 85.6509 17.624 85.6509 17.8584C85.6509 18.0928 85.729 18.2881 85.8853 18.4443C86.0415 18.6006 86.3564 18.7617 86.8301 18.9277L87.5479 19.1768C88.0703 19.3574 88.4585 19.5942 88.7124 19.8872C88.9614 20.1851 89.0859 20.6147 89.0859 21.1763C89.0859 21.7378 88.8711 22.2041 88.4414 22.5752C88.0117 22.9463 87.4258 23.1318 86.6836 23.1318C86.2881 23.1318 85.9072 23.0903 85.541 23.0073C85.1797 22.9292 84.7744 22.7607 84.3252 22.502L84.75 21.5938C85.126 21.8184 85.4458 21.9746 85.7095 22.0625C85.9731 22.1455 86.2832 22.187 86.6396 22.187Z" fill="#ECE9E6"/>
<path d="M13.9998 13.9998L14.4052 13.7071C14.2782 13.5313 14.0524 13.4574 13.846 13.5241C13.6396 13.5908 13.4998 13.783 13.4998 13.9998H13.9998ZM17.9998 26.8332C13.1213 26.8332 9.1665 22.8784 9.1665 17.9998H8.1665C8.1665 23.4306 12.569 27.8332 17.9998 27.8332V26.8332ZM26.8332 17.9998C26.8332 22.8784 22.8784 26.8332 17.9998 26.8332V27.8332C23.4306 27.8332 27.8332 23.4306 27.8332 17.9998H26.8332ZM17.9998 9.1665C22.8784 9.1665 26.8332 13.1213 26.8332 17.9998H27.8332C27.8332 12.569 23.4306 8.1665 17.9998 8.1665V9.1665ZM17.9998 8.1665C12.569 8.1665 8.1665 12.569 8.1665 17.9998H9.1665C9.1665 13.1213 13.1213 9.1665 17.9998 9.1665V8.1665ZM14.4998 23.9998V13.9998H13.4998V23.9998H14.4998ZM13.5945 14.2926L22.2612 26.2926L23.0718 25.7071L14.4052 13.7071L13.5945 14.2926ZM21.4998 13.3332V21.3332H22.4998V13.3332H21.4998Z" fill="white"/>
</svg>
