<svg width="116" height="36" viewBox="0 0 116 36" fill="none" xmlns="http://www.w3.org/2000/svg">
<rect width="116" height="36" rx="7" fill="#414345"/>
<path d="M52.4141 13.1328V24H51L45.8203 15.8594V24H44.4062V13.1328H45.8203L51 21.2812V13.1328H52.4141ZM55.5625 20.3359C55.5625 20.8411 55.625 21.2839 55.75 21.6641C55.8802 22.0391 56.0521 22.3307 56.2656 22.5391C56.4844 22.7422 56.7188 22.8932 56.9688 22.9922C57.224 23.0859 57.4948 23.1328 57.7812 23.1328C58.3646 23.1328 58.8672 22.9323 59.2891 22.5312C59.7526 22.0885 59.9844 21.3568 59.9844 20.3359C59.9844 19.3203 59.7526 18.5859 59.2891 18.1328C58.862 17.737 58.3594 17.5391 57.7812 17.5391C57.1927 17.5391 56.6901 17.737 56.2734 18.1328C55.7995 18.5859 55.5625 19.3203 55.5625 20.3359ZM54.3047 20.3359C54.3047 18.7578 54.8125 17.6589 55.8281 17.0391C56.3906 16.7005 57.0417 16.5312 57.7812 16.5312C58.5156 16.5312 59.1693 16.7005 59.7422 17.0391C60.0443 17.2266 60.3073 17.4609 60.5312 17.7422C61.0156 18.3776 61.2578 19.2422 61.2578 20.3359C61.2578 21.9193 60.7526 23.0156 59.7422 23.625C59.1797 23.9688 58.526 24.1406 57.7812 24.1406C57.0312 24.1406 56.3802 23.9688 55.8281 23.625C55.5208 23.4427 55.2552 23.2083 55.0312 22.9219C54.5469 22.3021 54.3047 21.4401 54.3047 20.3359ZM65.3672 24.1406C64.763 24.1406 64.2161 23.974 63.7266 23.6406C63.237 23.3073 62.862 22.875 62.6016 22.3438C62.3411 21.8073 62.2109 21.2344 62.2109 20.625C62.2109 19.4115 62.5625 18.4271 63.2656 17.6719C63.974 16.9115 64.8516 16.5312 65.8984 16.5312C66.3359 16.5312 66.8594 16.6146 67.4688 16.7812V12.4766H68.7578V24H67.4688V23.1406C66.8802 23.8073 66.1797 24.1406 65.3672 24.1406ZM67.4688 17.875C67.0365 17.6458 66.6094 17.5312 66.1875 17.5312C65.4583 17.5312 64.8281 17.8073 64.2969 18.3594C63.7448 18.9479 63.4688 19.6484 63.4688 20.4609C63.4688 21.2734 63.6615 21.9219 64.0469 22.4062C64.4375 22.8906 64.9167 23.1328 65.4844 23.1328C65.8698 23.1328 66.237 23.0026 66.5859 22.7422C66.9349 22.4766 67.2292 22.1406 67.4688 21.7344V17.875ZM73.9531 17.5312C73.2292 17.5312 72.6875 17.75 72.3281 18.1875C72.0781 18.4896 71.9141 18.9167 71.8359 19.4688H75.625C75.5781 18.901 75.4089 18.4349 75.1172 18.0703C74.8203 17.7109 74.4323 17.5312 73.9531 17.5312ZM76.5938 23.5703C76.0312 23.9505 75.2708 24.1406 74.3125 24.1406C73.099 24.1406 72.1641 23.7943 71.5078 23.1016C70.8516 22.4089 70.5234 21.487 70.5234 20.3359C70.5234 18.8359 71.0104 17.75 71.9844 17.0781C72.526 16.7135 73.1302 16.5312 73.7969 16.5312C74.8281 16.5312 75.6094 16.8802 76.1406 17.5781C76.5885 18.1771 76.8281 18.9635 76.8594 19.9375L76.6719 20.4062H71.7812C71.7917 21.2708 72.0234 21.9427 72.4766 22.4219C72.9297 22.8958 73.5339 23.1328 74.2891 23.1328C74.862 23.1328 75.5182 22.9792 76.2578 22.6719L76.5938 23.5703ZM80.2109 13.1328V22.9062C80.2005 23.25 80.1953 23.5312 80.1953 23.75C80.1953 23.9635 80.1745 24.2214 80.1328 24.5234C80.0964 24.8307 80.0443 25.0885 79.9766 25.2969C79.9141 25.5104 79.8203 25.7474 79.6953 26.0078C79.5703 26.2682 79.4219 26.4948 79.25 26.6875C78.8333 27.1562 78.3099 27.5495 77.6797 27.8672L77.0703 27.0938C77.6797 26.625 78.1198 26.1146 78.3906 25.5625C78.6615 25.0156 78.7969 24.3151 78.7969 23.4609V13.1328H80.2109ZM84.6094 23.1328C85.5104 23.1328 85.9609 22.7448 85.9609 21.9688C85.9609 21.5 85.5312 21.125 84.6719 20.8438L83.9062 20.5781C83.3594 20.3854 82.9531 20.112 82.6875 19.7578C82.4271 19.3984 82.2969 18.9766 82.2969 18.4922C82.2969 18.0026 82.5234 17.5547 82.9766 17.1484C83.4297 16.737 84.0104 16.5312 84.7188 16.5312C85.1875 16.5312 85.6042 16.5938 85.9688 16.7188C86.3333 16.8385 86.6146 16.9766 86.8125 17.1328L86.3672 18.0703C86.2057 17.9401 85.9766 17.8177 85.6797 17.7031C85.3828 17.5885 85.0625 17.5312 84.7188 17.5312C84.3802 17.5312 84.1016 17.6328 83.8828 17.8359C83.6641 18.0391 83.5547 18.2656 83.5547 18.5156C83.5547 18.7656 83.638 18.974 83.8047 19.1406C83.9714 19.3073 84.3073 19.4792 84.8125 19.6562L85.5781 19.9219C86.1354 20.1146 86.5495 20.3672 86.8203 20.6797C87.0859 20.9974 87.2188 21.4557 87.2188 22.0547C87.2188 22.6536 86.9896 23.151 86.5312 23.5469C86.0729 23.9427 85.4479 24.1406 84.6562 24.1406C84.2344 24.1406 83.8281 24.0964 83.4375 24.0078C83.0521 23.9245 82.6198 23.7448 82.1406 23.4688L82.5938 22.5C82.9948 22.7396 83.3359 22.9062 83.6172 23C83.8984 23.0885 84.2292 23.1328 84.6094 23.1328Z" fill="url(#paint0_linear)"/>
<path d="M22.3333 16.0002V15.7779C22.3333 14.7961 21.5374 14.0002 20.5556 14.0002H19C17.8954 14.0002 17 14.8956 17 16.0002C17 17.1047 17.8954 18.0002 19 18.0002H20.3333C21.4379 18.0002 22.3333 18.8956 22.3333 20.0002C22.3333 21.1047 21.4379 22.0002 20.3333 22.0002H19C17.8954 22.0002 17 21.1047 17 20.0002M14.3333 13.3335V20.3521C14.3333 21.3621 13.7627 22.2855 12.8592 22.7372L11.6667 23.3335M9 22.0002V14.0002L17 9.3335L25 14.0002V22.0002L17 26.6668L9 22.0002Z" stroke="#94B204"/>
<defs>
<linearGradient id="paint0_linear" x1="43" y1="18.5" x2="88" y2="18.5" gradientUnits="userSpaceOnUse">
<stop stop-color="#AACE00"/>
<stop offset="1" stop-color="#7D9409"/>
</linearGradient>
</defs>
</svg>
