<svg width="116" height="36" viewBox="0 0 116 36" fill="none" xmlns="http://www.w3.org/2000/svg">
<rect width="116" height="36" rx="7" fill="#414345"/>
<path d="M52.4141 13.1328V24H51L45.8203 15.8594V24H44.4062V13.1328H45.8203L51 21.2812V13.1328H52.4141ZM55.5625 20.3359C55.5625 20.8411 55.625 21.2839 55.75 21.6641C55.8802 22.0391 56.0521 22.3307 56.2656 22.5391C56.4844 22.7422 56.7188 22.8932 56.9688 22.9922C57.224 23.0859 57.4948 23.1328 57.7812 23.1328C58.3646 23.1328 58.8672 22.9323 59.2891 22.5312C59.7526 22.0885 59.9844 21.3568 59.9844 20.3359C59.9844 19.3203 59.7526 18.5859 59.2891 18.1328C58.862 17.737 58.3594 17.5391 57.7812 17.5391C57.1927 17.5391 56.6901 17.737 56.2734 18.1328C55.7995 18.5859 55.5625 19.3203 55.5625 20.3359ZM54.3047 20.3359C54.3047 18.7578 54.8125 17.6589 55.8281 17.0391C56.3906 16.7005 57.0417 16.5312 57.7812 16.5312C58.5156 16.5312 59.1693 16.7005 59.7422 17.0391C60.0443 17.2266 60.3073 17.4609 60.5312 17.7422C61.0156 18.3776 61.2578 19.2422 61.2578 20.3359C61.2578 21.9193 60.7526 23.0156 59.7422 23.625C59.1797 23.9688 58.526 24.1406 57.7812 24.1406C57.0312 24.1406 56.3802 23.9688 55.8281 23.625C55.5208 23.4427 55.2552 23.2083 55.0312 22.9219C54.5469 22.3021 54.3047 21.4401 54.3047 20.3359ZM64.9531 24.1406C63.7135 24.1406 63.0938 23.4531 63.0938 22.0781V17.6719H61.7969V16.6719H63.0938V15.1875L64.3516 14.7188V16.6719H66.1406V17.6719H64.3516V22C64.3516 22.401 64.4531 22.6901 64.6562 22.8672C64.8594 23.0391 65.0859 23.125 65.3359 23.125C65.8203 23.125 66.1979 23.0833 66.4688 23L66.625 23.8828C66.1458 24.0547 65.5885 24.1406 64.9531 24.1406ZM69.9609 16.6719V24H68.7031V17.6719H67.4062V16.6719H69.9609ZM68.4062 13.7734C68.4062 13.513 68.4948 13.2917 68.6719 13.1094C68.8542 12.9219 69.0729 12.8281 69.3281 12.8281C69.5833 12.8281 69.7995 12.9219 69.9766 13.1094C70.1589 13.2917 70.25 13.513 70.25 13.7734C70.25 14.0339 70.1589 14.2578 69.9766 14.4453C69.7995 14.6276 69.5833 14.7188 69.3281 14.7188C69.0729 14.7188 68.8542 14.6276 68.6719 14.4453C68.4948 14.2578 68.4062 14.0339 68.4062 13.7734ZM72.9844 20.3359C72.9844 20.8411 73.0469 21.2839 73.1719 21.6641C73.3021 22.0391 73.474 22.3307 73.6875 22.5391C73.9062 22.7422 74.1406 22.8932 74.3906 22.9922C74.6458 23.0859 74.9167 23.1328 75.2031 23.1328C75.7865 23.1328 76.2891 22.9323 76.7109 22.5312C77.1745 22.0885 77.4062 21.3568 77.4062 20.3359C77.4062 19.3203 77.1745 18.5859 76.7109 18.1328C76.2839 17.737 75.7812 17.5391 75.2031 17.5391C74.6146 17.5391 74.112 17.737 73.6953 18.1328C73.2214 18.5859 72.9844 19.3203 72.9844 20.3359ZM71.7266 20.3359C71.7266 18.7578 72.2344 17.6589 73.25 17.0391C73.8125 16.7005 74.4635 16.5312 75.2031 16.5312C75.9375 16.5312 76.5911 16.7005 77.1641 17.0391C77.4661 17.2266 77.7292 17.4609 77.9531 17.7422C78.4375 18.3776 78.6797 19.2422 78.6797 20.3359C78.6797 21.9193 78.1745 23.0156 77.1641 23.625C76.6016 23.9688 75.9479 24.1406 75.2031 24.1406C74.4531 24.1406 73.8021 23.9688 73.25 23.625C72.9427 23.4427 72.6771 23.2083 72.4531 22.9219C71.9688 22.3021 71.7266 21.4401 71.7266 20.3359ZM85.375 20.0391C85.375 18.3672 84.776 17.5312 83.5781 17.5312C83.2708 17.5312 82.9896 17.6146 82.7344 17.7812C82.3438 18.0312 82.0365 18.4427 81.8125 19.0156C81.7344 19.2135 81.6953 19.3698 81.6953 19.4844V24H80.4375V16.6719H81.6953V18.0156C82.1641 17.026 82.9271 16.5312 83.9844 16.5312C84.4115 16.5312 84.7943 16.6276 85.1328 16.8203C85.4766 17.0078 85.7448 17.2109 85.9375 17.4297C86.401 17.9453 86.6328 18.6693 86.6328 19.6016V24H85.375V20.0391Z" fill="#ECE9E6"/>
<path d="M11.3083 11.5065C11.93 12.0115 12.1633 11.9731 13.3317 11.8948L24.3442 11.234C24.5775 11.234 24.3833 11.0006 24.3058 10.9623L22.4758 9.63979C22.1258 9.36813 21.6583 9.05646 20.7633 9.13396L10.1008 9.91229C9.7125 9.95063 9.63417 10.1456 9.78917 10.3006L11.3083 11.5065ZM11.9692 14.0731V25.6598C11.9692 26.2823 12.28 26.5156 12.9808 26.4765L25.0833 25.7765C25.7842 25.7381 25.8625 25.3098 25.8625 24.804V13.2948C25.8625 12.7898 25.6683 12.5173 25.2392 12.5556L12.5917 13.2948C12.125 13.334 11.9692 13.5673 11.9692 14.0723V14.0731ZM23.9167 14.694C23.9942 15.044 23.9167 15.394 23.5667 15.434L22.9833 15.5506V24.104C22.4767 24.3765 22.01 24.5323 21.6208 24.5323C20.9975 24.5323 20.8417 24.3373 20.375 23.7548L16.5608 17.7665V23.5598L17.7675 23.8331C17.7675 23.8331 17.7675 24.5331 16.7942 24.5331L14.1092 24.6881C14.0317 24.5331 14.1092 24.144 14.3817 24.0665L15.0817 23.8723V16.2115L14.1108 16.1331C14.0325 15.7831 14.2275 15.2781 14.7717 15.239L17.6517 15.0448L21.6217 21.1106V15.744L20.6092 15.6281C20.5317 15.1998 20.8425 14.889 21.2317 14.8506L23.9167 14.694ZM9.20583 8.86229L20.2975 8.04563C21.6592 7.92896 22.01 8.00646 22.8658 8.62896L26.4067 11.1173C26.99 11.5448 27.185 11.6615 27.185 12.1281V25.7765C27.185 26.6315 26.8742 27.1381 25.785 27.2148L12.9033 27.9931C12.0867 28.0323 11.6967 27.9156 11.2683 27.3706L8.66083 23.9873C8.19417 23.3648 8 22.899 8 22.354V10.2223C8 9.52313 8.31167 8.93896 9.20583 8.86229V8.86229Z" fill="white"/>
</svg>
