<svg width="116" height="36" viewBox="0 0 116 36" fill="none" xmlns="http://www.w3.org/2000/svg">
<rect width="116" height="36" rx="7" fill="#414345"/>
<path d="M44.0547 13.9609C44.8125 13.8164 45.4414 13.7441 45.9414 13.7441C46.4453 13.7441 46.875 13.791 47.2305 13.8848C47.5898 13.9746 47.8809 14.0957 48.1035 14.248C48.3301 14.4004 48.5156 14.582 48.6602 14.793C48.9297 15.1836 49.0645 15.6406 49.0645 16.1641C49.0645 16.8789 48.791 17.4688 48.2441 17.9336C47.6973 18.3945 46.9863 18.625 46.1113 18.625H45.1152V22H44.0547V13.9609ZM45.1152 14.6641V17.8047H45.502C46.3691 17.8047 46.9922 17.6777 47.3711 17.4238C47.75 17.166 47.9395 16.7676 47.9395 16.2285C47.9395 15.6855 47.7812 15.2715 47.4648 14.9863C47.1445 14.7012 46.6719 14.5586 46.0469 14.5586C45.7109 14.5586 45.4004 14.5938 45.1152 14.6641ZM50.6523 19.252C50.6523 19.6309 50.6992 19.9629 50.793 20.248C50.8906 20.5293 51.0195 20.748 51.1797 20.9043C51.3438 21.0566 51.5195 21.1699 51.707 21.2441C51.8984 21.3145 52.1016 21.3496 52.3164 21.3496C52.7539 21.3496 53.1309 21.1992 53.4473 20.8984C53.7949 20.5664 53.9688 20.0176 53.9688 19.252C53.9688 18.4902 53.7949 17.9395 53.4473 17.5996C53.127 17.3027 52.75 17.1543 52.3164 17.1543C51.875 17.1543 51.498 17.3027 51.1855 17.5996C50.8301 17.9395 50.6523 18.4902 50.6523 19.252ZM49.709 19.252C49.709 18.0684 50.0898 17.2441 50.8516 16.7793C51.2734 16.5254 51.7617 16.3984 52.3164 16.3984C52.8672 16.3984 53.3574 16.5254 53.7871 16.7793C54.0137 16.9199 54.2109 17.0957 54.3789 17.3066C54.7422 17.7832 54.9238 18.4316 54.9238 19.252C54.9238 20.4395 54.5449 21.2617 53.7871 21.7188C53.3652 21.9766 52.875 22.1055 52.3164 22.1055C51.7539 22.1055 51.2656 21.9766 50.8516 21.7188C50.6211 21.582 50.4219 21.4062 50.2539 21.1914C49.8906 20.7266 49.709 20.0801 49.709 19.252ZM57.5195 21.3496C58.1953 21.3496 58.5332 21.0586 58.5332 20.4766C58.5332 20.125 58.2109 19.8438 57.5664 19.6328L56.9922 19.4336C56.582 19.2891 56.2773 19.084 56.0781 18.8184C55.8828 18.5488 55.7852 18.2324 55.7852 17.8691C55.7852 17.502 55.9551 17.166 56.2949 16.8613C56.6348 16.5527 57.0703 16.3984 57.6016 16.3984C57.9531 16.3984 58.2656 16.4453 58.5391 16.5391C58.8125 16.6289 59.0234 16.7324 59.1719 16.8496L58.8379 17.5527C58.7168 17.4551 58.5449 17.3633 58.3223 17.2773C58.0996 17.1914 57.8594 17.1484 57.6016 17.1484C57.3477 17.1484 57.1387 17.2246 56.9746 17.377C56.8105 17.5293 56.7285 17.6992 56.7285 17.8867C56.7285 18.0742 56.791 18.2305 56.916 18.3555C57.041 18.4805 57.293 18.6094 57.6719 18.7422L58.2461 18.9414C58.6641 19.0859 58.9746 19.2754 59.1777 19.5098C59.377 19.748 59.4766 20.0918 59.4766 20.541C59.4766 20.9902 59.3047 21.3633 58.9609 21.6602C58.6172 21.957 58.1484 22.1055 57.5547 22.1055C57.2383 22.1055 56.9336 22.0723 56.6406 22.0059C56.3516 21.9434 56.0273 21.8086 55.668 21.6016L56.0078 20.875C56.3086 21.0547 56.5645 21.1797 56.7754 21.25C56.9863 21.3164 57.2344 21.3496 57.5195 21.3496ZM62.2773 22.1055C61.3477 22.1055 60.8828 21.5898 60.8828 20.5586V17.2539H59.9102V16.5039H60.8828V15.3906L61.8262 15.0391V16.5039H63.168V17.2539H61.8262V20.5C61.8262 20.8008 61.9023 21.0176 62.0547 21.1504C62.207 21.2793 62.377 21.3438 62.5645 21.3438C62.9277 21.3438 63.2109 21.3125 63.4141 21.25L63.5312 21.9121C63.1719 22.041 62.7539 22.1055 62.2773 22.1055ZM68.166 19.252C68.166 17.8496 67.748 17.1484 66.9121 17.1484C66.6855 17.1484 66.4805 17.2324 66.2969 17.4004C66.1133 17.5684 65.9727 17.7734 65.875 18.0156C65.7539 18.2617 65.6934 18.5176 65.6934 18.7832V22H64.75V16.5039H65.6934V17.377C65.8145 17.0918 65.9922 16.8574 66.2266 16.6738C66.4648 16.4902 66.7598 16.3984 67.1113 16.3984C67.9941 16.3984 68.5801 16.8379 68.8691 17.7168C69.1777 16.8379 69.7207 16.3984 70.498 16.3984C71.1426 16.3984 71.6309 16.6387 71.9629 17.1191C72.2988 17.5996 72.4668 18.3105 72.4668 19.252V21.9941L71.5527 22V19.252C71.5527 17.8496 71.1348 17.1484 70.2988 17.1484C70.0723 17.1484 69.8672 17.2324 69.6836 17.4004C69.5 17.5684 69.3594 17.7734 69.2617 18.0156C69.1406 18.2617 69.0801 18.5176 69.0801 18.7832V22H68.166V19.252ZM76.9785 19.5273C75.541 19.5273 74.8223 19.8848 74.8223 20.5996C74.8223 20.791 74.8809 20.9688 74.998 21.1328C75.1191 21.2969 75.2559 21.3789 75.4082 21.3789H75.6367C76.4961 21.3789 76.9551 20.9277 77.0137 20.0254V19.5273H76.9785ZM74.2832 16.7676C74.9863 16.5215 75.5625 16.3984 76.0117 16.3984C76.4609 16.3984 76.8535 16.5098 77.1895 16.7324C77.5254 16.9551 77.75 17.2852 77.8633 17.7227C77.9258 17.9688 77.957 18.4707 77.957 19.2285V21.0625C77.957 21.4062 77.9844 21.7188 78.0391 22H77.0898C77.0391 21.8398 77.0137 21.6582 77.0137 21.4551V21.4141C76.916 21.5312 76.8086 21.6328 76.6914 21.7188C76.3242 21.9883 75.9336 22.123 75.5195 22.123C74.8242 22.123 74.3457 21.875 74.084 21.3789C73.9473 21.1328 73.8789 20.8809 73.8789 20.623C73.8789 19.9395 74.2793 19.4453 75.0801 19.1406C75.5605 18.957 76.1699 18.8652 76.9082 18.8652H77.0137V18.2734C77.0137 17.8438 76.9316 17.5508 76.7676 17.3945C76.5762 17.2148 76.2578 17.125 75.8125 17.125C75.3672 17.125 74.873 17.25 74.3301 17.5L74.2832 16.7676ZM83.3359 19.0293C83.3359 17.7754 82.8867 17.1484 81.9883 17.1484C81.7578 17.1484 81.5469 17.2109 81.3555 17.3359C81.0625 17.5234 80.832 17.832 80.6641 18.2617C80.6055 18.4102 80.5762 18.5273 80.5762 18.6133V22H79.6328V16.5039H80.5762V17.5117C80.9277 16.7695 81.5 16.3984 82.293 16.3984C82.6133 16.3984 82.9004 16.4707 83.1543 16.6152C83.4121 16.7559 83.6133 16.9082 83.7578 17.0723C84.1055 17.459 84.2793 18.002 84.2793 18.7012V22H83.3359V19.0293Z" fill="url(#paint0_linear)"/>
<path d="M19.2724 8.08234C13.7957 7.37984 8.78486 11.2498 8.08236 16.7273C7.37986 22.204 11.249 27.214 16.7265 27.9173C22.204 28.6198 27.2157 24.7498 27.9165 19.2723C28.6199 13.7957 24.7507 8.78568 19.2724 8.08234ZM21.3315 14.3198C21.146 14.3223 20.9687 14.397 20.8374 14.5282L17.1265 18.239L16.8707 17.9832L16.3349 17.4473C19.9924 13.8007 20.6515 13.7657 21.3315 14.3198ZM17.279 18.3707L20.979 14.6707C21.0275 14.6198 21.0859 14.5794 21.1505 14.5519C21.2152 14.5243 21.2848 14.5103 21.3551 14.5106C21.4253 14.5108 21.4948 14.5255 21.5593 14.5535C21.6237 14.5816 21.6817 14.6225 21.7298 14.6737C21.7779 14.725 21.815 14.7855 21.8389 14.8516C21.8628 14.9177 21.8729 14.988 21.8687 15.0581C21.8645 15.1283 21.846 15.1968 21.8144 15.2596C21.7828 15.3224 21.7387 15.378 21.6849 15.4232L17.769 18.8607L17.279 18.3707ZM17.554 18.949L16.6374 19.1473C16.6264 19.1498 16.6149 19.1485 16.6048 19.1437C16.5947 19.1388 16.5865 19.1307 16.5815 19.1207C16.576 19.1111 16.5737 19.0998 16.5753 19.0888C16.5768 19.0778 16.5819 19.0676 16.5899 19.0598L17.1274 18.5223L17.554 18.949ZM15.2182 18.5665L16.1949 17.5898L16.9274 18.3215L15.2782 18.6765C15.2644 18.6801 15.2499 18.6788 15.237 18.6729C15.2241 18.6669 15.2136 18.6568 15.2074 18.644C15.1996 18.6319 15.1964 18.6175 15.1984 18.6033C15.2004 18.589 15.2074 18.576 15.2182 18.5665ZM12.1799 23.6148C12.1715 23.6141 12.1634 23.6117 12.156 23.6079C12.1486 23.604 12.142 23.5987 12.1367 23.5922C12.1314 23.5858 12.1273 23.5784 12.1249 23.5704C12.1224 23.5624 12.1216 23.554 12.1224 23.5457C12.1239 23.5312 12.1304 23.5177 12.1407 23.5073H12.1424L12.9307 22.719L13.949 23.7373L12.1799 23.6148ZM14.2007 22.5682C14.1629 22.5877 14.1328 22.6193 14.1151 22.658C14.0974 22.6967 14.0932 22.7402 14.1032 22.7815L14.2724 23.5023C14.2778 23.5246 14.2758 23.5479 14.2667 23.5689C14.2575 23.5899 14.2417 23.6072 14.2217 23.6183C14.2017 23.6294 14.1786 23.6336 14.156 23.6303C14.1334 23.6269 14.1125 23.6162 14.0965 23.5998H14.094L13.3157 22.8215L13.0707 22.5757L16.2057 19.444L17.7224 19.1165L18.4507 19.8448C17.4049 20.7632 15.9749 21.679 14.2007 22.5682ZM18.5999 19.7115H18.5982L17.899 19.0123L21.8149 15.5748C21.8511 15.5427 21.8843 15.5072 21.914 15.469C21.7907 16.5898 20.2232 18.1732 18.5999 19.7115ZM21.6474 14.3282L21.6449 14.3265C21.3693 14.0497 21.2111 13.6773 21.203 13.2868C21.1949 12.8963 21.3377 12.5178 21.6015 12.2298C21.8654 11.9418 22.23 11.7666 22.6197 11.7405C23.0094 11.7144 23.3942 11.8396 23.694 12.0898L22.3524 13.434C22.3431 13.4432 22.3357 13.4542 22.3306 13.4663C22.3256 13.4784 22.323 13.4913 22.323 13.5044C22.323 13.5175 22.3256 13.5305 22.3306 13.5426C22.3357 13.5547 22.3431 13.5656 22.3524 13.5748L23.3915 14.614C23.1075 14.755 22.7863 14.8033 22.4734 14.752C22.1605 14.7007 21.8715 14.5525 21.6474 14.3282ZM23.7957 14.3282C23.7268 14.3962 23.6511 14.4571 23.5699 14.5098L22.5632 13.504L23.8407 12.2265C24.3915 12.8265 24.3715 13.7532 23.7957 14.3282ZM23.7124 13.0415C23.6923 13.056 23.6773 13.0764 23.6694 13.0999C23.6615 13.1233 23.6611 13.1486 23.6682 13.1723C23.6979 13.2324 23.7095 13.2998 23.7016 13.3664C23.6938 13.4329 23.6668 13.4958 23.624 13.5473C23.6145 13.5594 23.6074 13.5732 23.6032 13.5879C23.599 13.6027 23.5977 13.6182 23.5995 13.6334C23.6013 13.6487 23.6061 13.6634 23.6136 13.6768C23.6211 13.6902 23.6311 13.702 23.6432 13.7115C23.6632 13.7272 23.6878 13.736 23.7132 13.7365C23.7301 13.7364 23.7467 13.7326 23.7619 13.7254C23.7772 13.7182 23.7907 13.7078 23.8015 13.6948C23.8731 13.6088 23.9181 13.5039 23.931 13.3927C23.9438 13.2816 23.924 13.1691 23.874 13.069C23.8653 13.0565 23.8542 13.0458 23.8413 13.0376C23.8284 13.0295 23.814 13.0239 23.799 13.0214C23.7839 13.0188 23.7685 13.0193 23.7536 13.0227C23.7388 13.0262 23.7247 13.0326 23.7124 13.0415Z" fill="#FF6C37"/>
<defs>
<linearGradient id="paint0_linear" x1="43" y1="18" x2="86" y2="18" gradientUnits="userSpaceOnUse">
<stop stop-color="#FE522E"/>
<stop offset="1" stop-color="#F1931A"/>
</linearGradient>
</defs>
</svg>
