<svg width="116" height="36" viewBox="0 0 116 36" fill="none" xmlns="http://www.w3.org/2000/svg">
<rect width="116" height="36" rx="7" fill="#414345"/>
<path d="M45.4062 13.2812C46.4167 13.0885 47.2552 12.9922 47.9219 12.9922C48.5938 12.9922 49.1667 13.0547 49.6406 13.1797C50.1198 13.2995 50.5078 13.4609 50.8047 13.6641C51.1068 13.8672 51.3542 14.1094 51.5469 14.3906C51.9062 14.9115 52.0859 15.5208 52.0859 16.2188C52.0859 17.1719 51.7214 17.9583 50.9922 18.5781C50.263 19.1927 49.3151 19.5 48.1484 19.5H46.8203V24H45.4062V13.2812ZM46.8203 14.2188V18.4062H47.3359C48.4922 18.4062 49.3229 18.237 49.8281 17.8984C50.3333 17.5547 50.5859 17.0234 50.5859 16.3047C50.5859 15.5807 50.375 15.0286 49.9531 14.6484C49.526 14.2682 48.8958 14.0781 48.0625 14.0781C47.6146 14.0781 47.2005 14.125 46.8203 14.2188ZM52.9141 26.5156C53.1901 26.75 53.4219 26.8672 53.6094 26.8672C53.9271 26.8672 54.2057 26.7266 54.4453 26.4453C54.7734 26.0755 55.1224 25.4922 55.4922 24.6953C55.5911 24.4818 55.7109 24.2214 55.8516 23.9141L52.6562 16.6719H54.0078L56.5312 22.3828L59.0625 16.6719H60.3281L57.0938 23.8594C56.2188 25.8698 55.4688 27.099 54.8438 27.5469C54.5312 27.7656 54.1484 27.875 53.6953 27.875C53.2422 27.875 52.8307 27.6771 52.4609 27.2812L52.9141 26.5156ZM63.7188 24.1406C62.4792 24.1406 61.8594 23.4531 61.8594 22.0781V17.6719H60.5625V16.6719H61.8594V15.1875L63.1172 14.7188V16.6719H64.9062V17.6719H63.1172V22C63.1172 22.401 63.2188 22.6901 63.4219 22.8672C63.625 23.0391 63.8516 23.125 64.1016 23.125C64.5859 23.125 64.9635 23.0833 65.2344 23L65.3906 23.8828C64.9115 24.0547 64.3542 24.1406 63.7188 24.1406ZM71.9531 20.0391C71.9531 18.3672 71.3542 17.5312 70.1562 17.5312C69.849 17.5312 69.5677 17.6146 69.3125 17.7812C68.9219 18.0312 68.6146 18.4427 68.3906 19.0156C68.3125 19.2135 68.2734 19.3698 68.2734 19.4844V24H67.0156V12.4766H68.2734V18.0156C68.7422 17.026 69.5052 16.5312 70.5625 16.5312C70.9896 16.5312 71.3724 16.6276 71.7109 16.8203C72.0547 17.0078 72.3229 17.2109 72.5156 17.4297C72.9792 17.9453 73.2109 18.6693 73.2109 19.6016V24H71.9531V20.0391ZM76.2344 20.3359C76.2344 20.8411 76.2969 21.2839 76.4219 21.6641C76.5521 22.0391 76.724 22.3307 76.9375 22.5391C77.1562 22.7422 77.3906 22.8932 77.6406 22.9922C77.8958 23.0859 78.1667 23.1328 78.4531 23.1328C79.0365 23.1328 79.5391 22.9323 79.9609 22.5312C80.4245 22.0885 80.6562 21.3568 80.6562 20.3359C80.6562 19.3203 80.4245 18.5859 79.9609 18.1328C79.5339 17.737 79.0312 17.5391 78.4531 17.5391C77.8646 17.5391 77.362 17.737 76.9453 18.1328C76.4714 18.5859 76.2344 19.3203 76.2344 20.3359ZM74.9766 20.3359C74.9766 18.7578 75.4844 17.6589 76.5 17.0391C77.0625 16.7005 77.7135 16.5312 78.4531 16.5312C79.1875 16.5312 79.8411 16.7005 80.4141 17.0391C80.7161 17.2266 80.9792 17.4609 81.2031 17.7422C81.6875 18.3776 81.9297 19.2422 81.9297 20.3359C81.9297 21.9193 81.4245 23.0156 80.4141 23.625C79.8516 23.9688 79.1979 24.1406 78.4531 24.1406C77.7031 24.1406 77.0521 23.9688 76.5 23.625C76.1927 23.4427 75.9271 23.2083 75.7031 22.9219C75.2188 22.3021 74.9766 21.4401 74.9766 20.3359ZM88.625 20.0391C88.625 18.3672 88.026 17.5312 86.8281 17.5312C86.5208 17.5312 86.2396 17.6146 85.9844 17.7812C85.5938 18.0312 85.2865 18.4427 85.0625 19.0156C84.9844 19.2135 84.9453 19.3698 84.9453 19.4844V24H83.6875V16.6719H84.9453V18.0156C85.4141 17.026 86.1771 16.5312 87.2344 16.5312C87.6615 16.5312 88.0443 16.6276 88.3828 16.8203C88.7266 17.0078 88.9948 17.2109 89.1875 17.4297C89.651 17.9453 89.8828 18.6693 89.8828 19.6016V24H88.625V20.0391Z" fill="url(#paint0_linear)"/>
<path d="M15.0003 11.3332H16.3337M13.0003 13.3332V9.99984C13.0003 9.26346 13.5973 8.6665 14.3337 8.6665H19.667C20.4034 8.6665 21.0003 9.26346 21.0003 9.99984V16.6665C21.0003 17.4029 20.4034 17.9998 19.667 17.9998H14.3337C13.5973 17.9998 13.0003 18.5968 13.0003 19.3332V25.9998C13.0003 26.7362 13.5973 27.3332 14.3337 27.3332H19.667C20.4034 27.3332 21.0003 26.7362 21.0003 25.9998V22.6665M17.667 13.9998H9.00033C8.26395 13.9998 7.66699 14.5968 7.66699 15.3332V21.9998C7.66699 22.7362 8.26395 23.3332 9.00033 23.3332H13.0003M16.3337 21.9998H25.0003C25.7367 21.9998 26.3337 21.4029 26.3337 20.6665V13.9998C26.3337 13.2635 25.7367 12.6665 25.0003 12.6665H21.0003M17.667 24.6665H19.0003" stroke="#EFAC2D"/>
<defs>
<linearGradient id="paint0_linear" x1="44" y1="18.5" x2="92" y2="18.5" gradientUnits="userSpaceOnUse">
<stop stop-color="#F0991A"/>
<stop offset="1" stop-color="#EDDC5B"/>
</linearGradient>
</defs>
</svg>
