<svg width="116" height="36" viewBox="0 0 116 36" fill="none" xmlns="http://www.w3.org/2000/svg">
<rect width="116" height="36" rx="7" fill="#414345"/>
<path d="M56.4297 24H54.8594L50.8203 19.0938V24H49.4062V13.2812C50.3802 13.0885 51.2135 12.9922 51.9062 12.9922C53.1146 12.9922 54.0599 13.2708 54.7422 13.8281C55.4245 14.3802 55.7656 15.0859 55.7656 15.9453C55.7656 16.8047 55.4583 17.5182 54.8438 18.0859C54.2292 18.6536 53.4036 18.9818 52.3672 19.0703L56.4297 24ZM51.8359 14.0781C51.4193 14.0781 51.0807 14.125 50.8203 14.2188V18H51.0156C53.1823 18 54.2656 17.3333 54.2656 16C54.2656 15.4323 54.0234 14.9688 53.5391 14.6094C53.0495 14.2552 52.4818 14.0781 51.8359 14.0781ZM60.0781 17.5312C59.3542 17.5312 58.8125 17.75 58.4531 18.1875C58.2031 18.4896 58.0391 18.9167 57.9609 19.4688H61.75C61.7031 18.901 61.5339 18.4349 61.2422 18.0703C60.9453 17.7109 60.5573 17.5312 60.0781 17.5312ZM62.7188 23.5703C62.1562 23.9505 61.3958 24.1406 60.4375 24.1406C59.224 24.1406 58.2891 23.7943 57.6328 23.1016C56.9766 22.4089 56.6484 21.487 56.6484 20.3359C56.6484 18.8359 57.1354 17.75 58.1094 17.0781C58.651 16.7135 59.2552 16.5312 59.9219 16.5312C60.9531 16.5312 61.7344 16.8802 62.2656 17.5781C62.7135 18.1771 62.9531 18.9635 62.9844 19.9375L62.7969 20.4062H57.9062C57.9167 21.2708 58.1484 21.9427 58.6016 22.4219C59.0547 22.8958 59.6589 23.1328 60.4141 23.1328C60.987 23.1328 61.6432 22.9792 62.3828 22.6719L62.7188 23.5703ZM68.2422 20.7031C66.3255 20.7031 65.3672 21.1797 65.3672 22.1328C65.3672 22.388 65.4453 22.625 65.6016 22.8438C65.763 23.0625 65.9453 23.1719 66.1484 23.1719H66.4531C67.599 23.1719 68.2109 22.5703 68.2891 21.3672V20.7031H68.2422ZM64.6484 17.0234C65.5859 16.6953 66.3542 16.5312 66.9531 16.5312C67.5521 16.5312 68.0755 16.6797 68.5234 16.9766C68.9714 17.2734 69.2708 17.7135 69.4219 18.2969C69.5052 18.625 69.5469 19.2943 69.5469 20.3047V22.75C69.5469 23.2083 69.5833 23.625 69.6562 24H68.3906C68.3229 23.7865 68.2891 23.5443 68.2891 23.2734V23.2188C68.1589 23.375 68.0156 23.5104 67.8594 23.625C67.3698 23.9844 66.849 24.1641 66.2969 24.1641C65.3698 24.1641 64.7318 23.8333 64.3828 23.1719C64.2005 22.8438 64.1094 22.5078 64.1094 22.1641C64.1094 21.2526 64.6432 20.5938 65.7109 20.1875C66.3516 19.9427 67.1641 19.8203 68.1484 19.8203H68.2891V19.0312C68.2891 18.4583 68.1797 18.0677 67.9609 17.8594C67.7057 17.6198 67.2812 17.5 66.6875 17.5C66.0938 17.5 65.4349 17.6667 64.7109 18L64.6484 17.0234ZM74.7891 23.1328C75.3984 23.1328 75.9844 22.9271 76.5469 22.5156L77.0312 23.3594C76.6198 23.6615 76.2526 23.8672 75.9297 23.9766C75.6068 24.0859 75.1198 24.1406 74.4688 24.1406C73.3958 24.1406 72.5443 23.7943 71.9141 23.1016C71.2891 22.4089 70.9766 21.487 70.9766 20.3359C70.9766 19.1849 71.2891 18.263 71.9141 17.5703C72.5443 16.8776 73.3958 16.5312 74.4688 16.5312C75.1198 16.5312 75.6068 16.5859 75.9297 16.6953C76.2526 16.8047 76.6198 17.0104 77.0312 17.3125L76.5469 18.1562C75.9844 17.7448 75.3984 17.5391 74.7891 17.5391H74.7422C73.9818 17.5391 73.3724 17.8125 72.9141 18.3594C72.4609 18.9062 72.2344 19.5651 72.2344 20.3359C72.2344 21.1068 72.4609 21.7656 72.9141 22.3125C73.3724 22.8594 73.9818 23.1328 74.7422 23.1328H74.7891ZM80.6562 24.1406C79.4167 24.1406 78.7969 23.4531 78.7969 22.0781V17.6719H77.5V16.6719H78.7969V15.1875L80.0547 14.7188V16.6719H81.8438V17.6719H80.0547V22C80.0547 22.401 80.1562 22.6901 80.3594 22.8672C80.5625 23.0391 80.7891 23.125 81.0391 23.125C81.5234 23.125 81.901 23.0833 82.1719 23L82.3281 23.8828C81.849 24.0547 81.2917 24.1406 80.6562 24.1406Z" fill="url(#paint0_linear)"/>
<path d="M27.3332 18.1118C27.3332 20.321 23.1545 22.1118 17.9998 22.1118C12.8452 22.1118 8.6665 20.321 8.6665 18.1118C8.6665 15.9027 12.8452 14.1118 17.9998 14.1118C23.1545 14.1118 27.3332 15.9027 27.3332 18.1118Z" stroke="#42AFCA"/>
<path d="M13.5544 26.3185C15.4968 27.3707 19.0618 24.5494 21.5169 20.017C23.972 15.4846 24.3876 10.9574 22.4451 9.90517C20.5027 8.85298 16.9377 11.6743 14.4826 16.2067C12.0275 20.7391 11.6119 25.2663 13.5544 26.3185Z" stroke="#42AFCA"/>
<path d="M22.4452 26.3185C20.5027 27.3707 16.9377 24.5494 14.4826 20.017C12.0275 15.4846 11.6119 10.9574 13.5544 9.90517C15.4969 8.85298 19.0618 11.6743 21.5169 16.2067C23.972 20.7391 24.3876 25.2663 22.4452 26.3185Z" stroke="#42AFCA"/>
<path d="M16.6665 18.1118C16.6665 18.8482 17.2635 19.4452 17.9998 19.4452C18.7362 19.4452 19.3332 18.8482 19.3332 18.1118C19.3332 17.3754 18.7362 16.7785 17.9998 16.7785C17.2635 16.7785 16.6665 17.3754 16.6665 18.1118Z" stroke="#42AFCA"/>
<defs>
<linearGradient id="paint0_linear" x1="48" y1="18.5" x2="83" y2="18.5" gradientUnits="userSpaceOnUse">
<stop stop-color="#2495B2"/>
<stop offset="1" stop-color="#6AD2EA"/>
</linearGradient>
</defs>
</svg>
