<svg width="116" height="36" viewBox="0 0 116 36" fill="none" xmlns="http://www.w3.org/2000/svg">
<rect width="116" height="36" rx="7" fill="#414345"/>
<path d="M56.2266 22.0234C56.3724 22.1276 56.5052 22.2292 56.625 22.3281C56.75 22.4271 56.8906 22.5208 57.0469 22.6094C57.2031 22.6927 57.3646 22.7656 57.5312 22.8281C57.8958 22.974 58.3047 23.0469 58.7578 23.0469C59.5182 23.0469 60.0417 22.862 60.3281 22.4922C60.5729 22.1745 60.6953 21.862 60.6953 21.5547C60.6953 21.2422 60.6641 20.9974 60.6016 20.8203C60.4818 20.513 60.2422 20.224 59.8828 19.9531C59.7318 19.849 59.5521 19.737 59.3438 19.6172L58.0625 18.9844C57.5833 18.724 57.2188 18.4714 56.9688 18.2266C56.7188 17.9818 56.5312 17.7552 56.4062 17.5469C56.1302 17.0833 55.9922 16.4818 55.9922 15.7422C55.9922 15.0026 56.2604 14.3594 56.7969 13.8125C57.3333 13.2656 58.0312 12.9922 58.8906 12.9922C59.4375 12.9922 59.9271 13.0625 60.3594 13.2031C60.7969 13.3438 61.1432 13.513 61.3984 13.7109L61.1016 14.7891C60.4818 14.3099 59.7786 14.0703 58.9922 14.0703C58.4974 14.0703 58.1094 14.2344 57.8281 14.5625C57.5521 14.8906 57.4141 15.3125 57.4141 15.8281C57.4141 16.0625 57.4531 16.276 57.5312 16.4688C57.6615 16.8125 57.9323 17.1198 58.3438 17.3906C58.5052 17.5052 58.7292 17.625 59.0156 17.75L60.2422 18.375C60.4609 18.4948 60.6536 18.6146 60.8203 18.7344C60.9922 18.849 61.1615 18.9896 61.3281 19.1562C61.8542 19.6823 62.1172 20.362 62.1172 21.1953C62.1172 22.0234 61.8333 22.7214 61.2656 23.2891C60.6979 23.8568 59.9583 24.1406 59.0469 24.1406C58.0469 24.1406 57.224 23.9635 56.5781 23.6094C56.2292 23.4219 55.9531 23.2578 55.75 23.1172L56.2266 22.0234ZM67.6016 20.7031C65.6849 20.7031 64.7266 21.1797 64.7266 22.1328C64.7266 22.388 64.8047 22.625 64.9609 22.8438C65.1224 23.0625 65.3047 23.1719 65.5078 23.1719H65.8125C66.9583 23.1719 67.5703 22.5703 67.6484 21.3672V20.7031H67.6016ZM64.0078 17.0234C64.9453 16.6953 65.7135 16.5312 66.3125 16.5312C66.9115 16.5312 67.4349 16.6797 67.8828 16.9766C68.3307 17.2734 68.6302 17.7135 68.7812 18.2969C68.8646 18.625 68.9062 19.2943 68.9062 20.3047V22.75C68.9062 23.2083 68.9427 23.625 69.0156 24H67.75C67.6823 23.7865 67.6484 23.5443 67.6484 23.2734V23.2188C67.5182 23.375 67.375 23.5104 67.2188 23.625C66.7292 23.9844 66.2083 24.1641 65.6562 24.1641C64.7292 24.1641 64.0911 23.8333 63.7422 23.1719C63.5599 22.8438 63.4688 22.5078 63.4688 22.1641C63.4688 21.2526 64.0026 20.5938 65.0703 20.1875C65.7109 19.9427 66.5234 19.8203 67.5078 19.8203H67.6484V19.0312C67.6484 18.4583 67.5391 18.0677 67.3203 17.8594C67.0651 17.6198 66.6406 17.5 66.0469 17.5C65.4531 17.5 64.7943 17.6667 64.0703 18L64.0078 17.0234ZM72.8438 23.1328C73.7448 23.1328 74.1953 22.7448 74.1953 21.9688C74.1953 21.5 73.7656 21.125 72.9062 20.8438L72.1406 20.5781C71.5938 20.3854 71.1875 20.112 70.9219 19.7578C70.6615 19.3984 70.5312 18.9766 70.5312 18.4922C70.5312 18.0026 70.7578 17.5547 71.2109 17.1484C71.6641 16.737 72.2448 16.5312 72.9531 16.5312C73.4219 16.5312 73.8385 16.5938 74.2031 16.7188C74.5677 16.8385 74.849 16.9766 75.0469 17.1328L74.6016 18.0703C74.4401 17.9401 74.2109 17.8177 73.9141 17.7031C73.6172 17.5885 73.2969 17.5312 72.9531 17.5312C72.6146 17.5312 72.3359 17.6328 72.1172 17.8359C71.8984 18.0391 71.7891 18.2656 71.7891 18.5156C71.7891 18.7656 71.8724 18.974 72.0391 19.1406C72.2057 19.3073 72.5417 19.4792 73.0469 19.6562L73.8125 19.9219C74.3698 20.1146 74.7839 20.3672 75.0547 20.6797C75.3203 20.9974 75.4531 21.4557 75.4531 22.0547C75.4531 22.6536 75.224 23.151 74.7656 23.5469C74.3073 23.9427 73.6823 24.1406 72.8906 24.1406C72.4688 24.1406 72.0625 24.0964 71.6719 24.0078C71.2865 23.9245 70.8542 23.7448 70.375 23.4688L70.8281 22.5C71.2292 22.7396 71.5703 22.9062 71.8516 23C72.1328 23.0885 72.4635 23.1328 72.8438 23.1328ZM78.9531 23.1328C79.8542 23.1328 80.3047 22.7448 80.3047 21.9688C80.3047 21.5 79.875 21.125 79.0156 20.8438L78.25 20.5781C77.7031 20.3854 77.2969 20.112 77.0312 19.7578C76.7708 19.3984 76.6406 18.9766 76.6406 18.4922C76.6406 18.0026 76.8672 17.5547 77.3203 17.1484C77.7734 16.737 78.3542 16.5312 79.0625 16.5312C79.5312 16.5312 79.9479 16.5938 80.3125 16.7188C80.6771 16.8385 80.9583 16.9766 81.1562 17.1328L80.7109 18.0703C80.5495 17.9401 80.3203 17.8177 80.0234 17.7031C79.7266 17.5885 79.4062 17.5312 79.0625 17.5312C78.724 17.5312 78.4453 17.6328 78.2266 17.8359C78.0078 18.0391 77.8984 18.2656 77.8984 18.5156C77.8984 18.7656 77.9818 18.974 78.1484 19.1406C78.3151 19.3073 78.651 19.4792 79.1562 19.6562L79.9219 19.9219C80.4792 20.1146 80.8932 20.3672 81.1641 20.6797C81.4297 20.9974 81.5625 21.4557 81.5625 22.0547C81.5625 22.6536 81.3333 23.151 80.875 23.5469C80.4167 23.9427 79.7917 24.1406 79 24.1406C78.5781 24.1406 78.1719 24.0964 77.7812 24.0078C77.3958 23.9245 76.9635 23.7448 76.4844 23.4688L76.9375 22.5C77.3385 22.7396 77.6797 22.9062 77.9609 23C78.2422 23.0885 78.5729 23.1328 78.9531 23.1328Z" fill="url(#paint0_linear)"/>
<path d="M26.9396 19.1961C26.1698 19.1997 25.5031 19.3794 24.9464 19.6461C24.7437 19.2495 24.534 18.9028 24.4997 18.6429C24.4584 18.3395 24.4137 18.1596 24.4619 17.7996C24.51 17.4396 24.7265 16.9297 24.723 16.893C24.7196 16.8564 24.6749 16.673 24.2316 16.6697C23.7883 16.6661 23.4068 16.7531 23.3622 16.8663C23.3175 16.9796 23.2316 17.2363 23.18 17.5029C23.101 17.8929 22.2934 19.2861 21.8364 20.0127C21.6851 19.7294 21.558 19.4794 21.5305 19.2795C21.4893 18.9761 21.4446 18.7962 21.4927 18.4362C21.5408 18.0762 21.7573 17.5663 21.7539 17.5296C21.7505 17.493 21.7058 17.3096 21.2625 17.3063C20.8191 17.3028 20.4377 17.3897 20.393 17.5029C20.3483 17.6162 20.3002 17.8829 20.2109 18.1396C20.1215 18.3962 19.0459 20.716 18.7641 21.3193C18.6198 21.6259 18.4961 21.8726 18.4067 22.0392C18.3174 22.2058 18.3998 22.0499 18.393 22.0693C18.3174 22.2126 18.2727 22.2926 18.2727 22.2926V22.2962C18.2143 22.4028 18.149 22.4995 18.118 22.4995C18.0974 22.4995 18.0527 22.2195 18.1283 21.8362C18.2899 21.0296 18.6713 19.7764 18.6679 19.733C18.6644 19.7098 18.74 19.4931 18.417 19.3764C18.1043 19.2663 17.9909 19.4497 17.9634 19.4497C17.9359 19.4497 17.9153 19.5163 17.9153 19.5163C17.9153 19.5163 18.2624 18.1031 17.2486 18.1031C16.6163 18.1031 15.7365 18.7764 15.3035 19.3863C15.032 19.5297 14.4444 19.8396 13.8258 20.1696C13.5887 20.2962 13.3447 20.4263 13.1144 20.5496C13.0973 20.5336 13.0835 20.5163 13.0663 20.4996C11.8361 19.2264 9.56451 18.3265 9.66073 16.6166C9.6951 15.9934 9.91847 14.3568 14.0286 12.3703C17.3964 10.7438 20.0906 11.1904 20.5545 12.1837C21.2212 13.6002 19.1146 16.2367 15.6162 16.6166C14.2829 16.7599 13.5818 16.26 13.4065 16.0733C13.2244 15.8767 13.1969 15.8667 13.1282 15.9033C13.0148 15.9633 13.0869 16.1367 13.1282 16.24C13.2313 16.5033 13.6609 16.9699 14.3928 17.2032C15.0355 17.4066 16.5991 17.5199 18.4892 16.8099C20.6129 16.0167 22.2659 13.8069 21.7814 11.957C21.2865 10.0772 18.0733 9.46057 15.032 10.5071C13.221 11.1304 11.2622 12.1103 9.85318 13.3869C8.17959 14.9068 7.91154 16.23 8.02151 16.7833C8.41328 18.7464 11.2037 20.0263 12.3206 20.9729C12.2656 21.003 12.2141 21.0296 12.166 21.0563C11.6058 21.3263 9.4786 22.4062 8.94594 23.5461C8.34455 24.8393 9.0456 25.7659 9.50609 25.8926C10.9426 26.2792 12.4134 25.5826 13.2038 24.4393C13.9942 23.2961 13.898 21.8029 13.5337 21.123C13.5303 21.1123 13.5234 21.107 13.5199 21.0963C13.6643 21.0129 13.8121 20.9297 13.9598 20.8463C14.2451 20.6829 14.5234 20.533 14.7674 20.403C14.6299 20.763 14.5303 21.1963 14.4787 21.8229C14.4169 22.5562 14.7296 23.5061 15.1351 23.8794C15.3138 24.0426 15.5303 24.046 15.6643 24.046C16.1386 24.046 16.3516 23.666 16.5888 23.2127C16.8809 22.6595 17.1386 22.0162 17.1386 22.0162C17.1386 22.0162 16.8156 23.756 17.6988 23.756C18.0218 23.756 18.3448 23.3527 18.4892 23.1461V23.1496C18.4892 23.1496 18.496 23.1372 18.5132 23.1096C18.5476 23.0597 18.5648 23.0296 18.5648 23.0296V23.0189C18.6954 22.8023 18.9806 22.3057 19.4102 21.4858C19.9669 20.4258 20.4995 19.1026 20.4995 19.1026C20.4995 19.1026 20.5476 19.4259 20.7126 19.9625C20.8088 20.2792 21.0116 20.6258 21.1731 20.9625C21.0425 21.1358 20.9635 21.2358 20.9635 21.2358C20.9635 21.2358 20.9635 21.2393 20.9669 21.2429C20.8638 21.3762 20.747 21.5195 20.6267 21.6595C20.1868 22.1661 19.6644 22.7461 19.5957 22.9127C19.5132 23.1094 19.5339 23.256 19.6919 23.3694C19.8088 23.456 20.015 23.4693 20.2315 23.4528C20.6267 23.4261 20.905 23.3327 21.0391 23.2728C21.2521 23.1995 21.4996 23.0828 21.7332 22.9195C22.1628 22.6128 22.424 22.1729 22.3999 21.5929C22.3862 21.2729 22.2796 20.953 22.1491 20.653C22.1869 20.5997 22.2281 20.5429 22.2659 20.4864C22.9463 19.5231 23.4721 18.4666 23.4721 18.4666C23.4721 18.4666 23.5202 18.7899 23.6852 19.3265C23.7677 19.5964 23.9292 19.8931 24.0769 20.1831C23.4378 20.6864 23.0426 21.2697 22.9051 21.6529C22.6508 22.3629 22.8501 22.6829 23.2247 22.7562C23.3931 22.7894 23.6336 22.7128 23.8123 22.6395C24.0357 22.5663 24.3038 22.4496 24.5546 22.2696C24.9842 21.9629 25.4 21.533 25.3725 20.9497C25.3622 20.6864 25.2866 20.4231 25.1869 20.1698C25.7265 19.9498 26.4275 19.8298 27.321 19.9298C29.2352 20.1464 29.6098 21.3063 29.5376 21.7896C29.4654 22.2762 29.0633 22.5429 28.9293 22.6229C28.7953 22.7029 28.7541 22.7329 28.7644 22.7929C28.7816 22.8795 28.8434 22.8763 28.9568 22.8562C29.1149 22.8295 29.9603 22.4629 29.9981 21.5663C30.0531 20.433 28.9293 19.1865 26.9396 19.1965L26.9396 19.1961ZM12.1866 24.0191C11.5543 24.689 10.6676 24.9423 10.2862 24.729C9.87725 24.499 10.0388 23.5124 10.8189 22.7992C11.2931 22.3659 11.9048 21.9659 12.3103 21.7193C12.4031 21.6659 12.5371 21.5859 12.7021 21.4893C12.7296 21.4733 12.7433 21.466 12.7433 21.466C12.7742 21.4461 12.8086 21.4293 12.843 21.4093C13.1282 22.4225 12.8533 23.3158 12.1866 24.019L12.1866 24.0191ZM16.8053 20.9727C16.5853 21.4959 16.1214 22.8292 15.8396 22.7592C15.5991 22.6992 15.4513 21.6826 15.7915 20.6827C15.9633 20.1794 16.3276 19.5794 16.5441 19.3461C16.8912 18.9695 17.2727 18.8495 17.362 18.9995C17.4823 19.1961 16.9427 20.646 16.8053 20.9727H16.8053ZM20.6198 22.7392C20.527 22.7858 20.4411 22.8158 20.3999 22.7925C20.369 22.7765 20.4377 22.7125 20.4377 22.7125C20.4377 22.7125 20.9154 22.2159 21.1044 21.9892C21.2143 21.8559 21.3415 21.6992 21.479 21.5259C21.479 21.5419 21.4824 21.5592 21.4824 21.5793C21.479 22.1759 20.8879 22.5792 20.6198 22.7392L20.6198 22.7392ZM23.5615 22.0892C23.4928 22.0426 23.5031 21.8859 23.7333 21.3993C23.8227 21.2093 24.0289 20.8893 24.3863 20.5827C24.4275 20.7093 24.4516 20.8293 24.4516 20.9427C24.4481 21.6926 23.8948 21.9726 23.5615 22.0892Z" fill="url(#paint1_linear)"/>
<defs>
<linearGradient id="paint0_linear" x1="55" y1="18" x2="83" y2="18" gradientUnits="userSpaceOnUse">
<stop stop-color="#EC028B"/>
<stop offset="1" stop-color="#FB6567"/>
</linearGradient>
<linearGradient id="paint1_linear" x1="8" y1="18" x2="30" y2="18" gradientUnits="userSpaceOnUse">
<stop stop-color="#EC028B"/>
<stop offset="1" stop-color="#FB6567"/>
</linearGradient>
</defs>
</svg>
