<svg width="116" height="36" viewBox="0 0 116 36" fill="none" xmlns="http://www.w3.org/2000/svg">
<rect width="116" height="36" rx="7" fill="#414345"/>
<path d="M45.9199 20.5176C46.0293 20.5957 46.1289 20.6719 46.2188 20.7461C46.3125 20.8203 46.418 20.8906 46.5352 20.957C46.6523 21.0195 46.7734 21.0742 46.8984 21.1211C47.1719 21.2305 47.4785 21.2852 47.8184 21.2852C48.3887 21.2852 48.7812 21.1465 48.9961 20.8691C49.1797 20.6309 49.2715 20.3965 49.2715 20.166C49.2715 19.9316 49.248 19.748 49.2012 19.6152C49.1113 19.3848 48.9316 19.168 48.6621 18.9648C48.5488 18.8867 48.4141 18.8027 48.2578 18.7129L47.2969 18.2383C46.9375 18.043 46.6641 17.8535 46.4766 17.6699C46.2891 17.4863 46.1484 17.3164 46.0547 17.1602C45.8477 16.8125 45.7441 16.3613 45.7441 15.8066C45.7441 15.252 45.9453 14.7695 46.3477 14.3594C46.75 13.9492 47.2734 13.7441 47.918 13.7441C48.3281 13.7441 48.6953 13.7969 49.0195 13.9023C49.3477 14.0078 49.6074 14.1348 49.7988 14.2832L49.5762 15.0918C49.1113 14.7324 48.584 14.5527 47.9941 14.5527C47.623 14.5527 47.332 14.6758 47.1211 14.9219C46.9141 15.168 46.8105 15.4844 46.8105 15.8711C46.8105 16.0469 46.8398 16.207 46.8984 16.3516C46.9961 16.6094 47.1992 16.8398 47.5078 17.043C47.6289 17.1289 47.7969 17.2188 48.0117 17.3125L48.9316 17.7812C49.0957 17.8711 49.2402 17.9609 49.3652 18.0508C49.4941 18.1367 49.6211 18.2422 49.7461 18.3672C50.1406 18.7617 50.3379 19.2715 50.3379 19.8965C50.3379 20.5176 50.125 21.041 49.6992 21.4668C49.2734 21.8926 48.7188 22.1055 48.0352 22.1055C47.2852 22.1055 46.668 21.9727 46.1836 21.707C45.9219 21.5664 45.7148 21.4434 45.5625 21.3379L45.9199 20.5176ZM53.8359 17.1484C53.293 17.1484 52.8867 17.3125 52.6172 17.6406C52.4297 17.8672 52.3066 18.1875 52.248 18.6016H55.0898C55.0547 18.1758 54.9277 17.8262 54.709 17.5527C54.4863 17.2832 54.1953 17.1484 53.8359 17.1484ZM55.8164 21.6777C55.3945 21.9629 54.8242 22.1055 54.1055 22.1055C53.1953 22.1055 52.4941 21.8457 52.002 21.3262C51.5098 20.8066 51.2637 20.1152 51.2637 19.252C51.2637 18.127 51.6289 17.3125 52.3594 16.8086C52.7656 16.5352 53.2188 16.3984 53.7188 16.3984C54.4922 16.3984 55.0781 16.6602 55.4766 17.1836C55.8125 17.6328 55.9922 18.2227 56.0156 18.9531L55.875 19.3047H52.207C52.2148 19.9531 52.3887 20.457 52.7285 20.8164C53.0684 21.1719 53.5215 21.3496 54.0879 21.3496C54.5176 21.3496 55.0098 21.2344 55.5645 21.0039L55.8164 21.6777ZM58.5938 22.1055C57.7812 22.1055 57.375 21.5898 57.375 20.5586V13.3574H58.3184V20.5C58.3184 20.8008 58.377 21.0176 58.4941 21.1504C58.6152 21.2793 58.7266 21.3438 58.8281 21.3438C58.9297 21.3438 59.1523 21.3281 59.4961 21.2969L59.5723 21.9824C59.1816 22.0645 58.8555 22.1055 58.5938 22.1055ZM62.8242 17.1484C62.2812 17.1484 61.875 17.3125 61.6055 17.6406C61.418 17.8672 61.2949 18.1875 61.2363 18.6016H64.0781C64.043 18.1758 63.916 17.8262 63.6973 17.5527C63.4746 17.2832 63.1836 17.1484 62.8242 17.1484ZM64.8047 21.6777C64.3828 21.9629 63.8125 22.1055 63.0938 22.1055C62.1836 22.1055 61.4824 21.8457 60.9902 21.3262C60.498 20.8066 60.252 20.1152 60.252 19.252C60.252 18.127 60.6172 17.3125 61.3477 16.8086C61.7539 16.5352 62.207 16.3984 62.707 16.3984C63.4805 16.3984 64.0664 16.6602 64.4648 17.1836C64.8008 17.6328 64.9805 18.2227 65.0039 18.9531L64.8633 19.3047H61.1953C61.2031 19.9531 61.377 20.457 61.7168 20.8164C62.0566 21.1719 62.5098 21.3496 63.0762 21.3496C63.5059 21.3496 63.998 21.2344 64.5527 21.0039L64.8047 21.6777ZM70.0664 19.0293C70.0664 17.7754 69.6172 17.1484 68.7188 17.1484C68.4883 17.1484 68.2773 17.2109 68.0859 17.3359C67.793 17.5234 67.5625 17.832 67.3945 18.2617C67.3359 18.4102 67.3066 18.5273 67.3066 18.6133V22H66.3633V16.5039H67.3066V17.5117C67.6582 16.7695 68.2305 16.3984 69.0234 16.3984C69.3438 16.3984 69.6309 16.4707 69.8848 16.6152C70.1426 16.7559 70.3438 16.9082 70.4883 17.0723C70.8359 17.459 71.0098 18.002 71.0098 18.7012V22H70.0664V19.0293ZM74.2207 16.5039V22H73.2773V17.2539H72.3047V16.5039H74.2207ZM73.0547 14.3301C73.0547 14.1348 73.1211 13.9688 73.2539 13.832C73.3906 13.6914 73.5547 13.6211 73.7461 13.6211C73.9375 13.6211 74.0996 13.6914 74.2324 13.832C74.3691 13.9688 74.4375 14.1348 74.4375 14.3301C74.4375 14.5254 74.3691 14.6934 74.2324 14.834C74.0996 14.9707 73.9375 15.0391 73.7461 15.0391C73.5547 15.0391 73.3906 14.9707 73.2539 14.834C73.1211 14.6934 73.0547 14.5254 73.0547 14.3301ZM79.8516 20.9922C79.5 21.7344 78.9277 22.1055 78.1348 22.1055C77.8145 22.1055 77.5254 22.0352 77.2676 21.8945C77.0137 21.75 76.8125 21.5957 76.6641 21.4316C76.5195 21.2676 76.3984 21.0449 76.3008 20.7637C76.1992 20.4824 76.1484 20.1621 76.1484 19.8027V16.5039H77.0918V19.4746C77.0918 20.7285 77.541 21.3555 78.4395 21.3555C78.6699 21.3555 78.8809 21.293 79.0723 21.168C79.3652 20.9805 79.5957 20.6719 79.7637 20.2422C79.8223 20.0938 79.8516 19.9766 79.8516 19.8906V16.5039H80.7949V22H79.8516V20.9922ZM86.1387 19.252C86.1387 17.8496 85.7207 17.1484 84.8848 17.1484C84.6582 17.1484 84.4531 17.2324 84.2695 17.4004C84.0859 17.5684 83.9453 17.7734 83.8477 18.0156C83.7266 18.2617 83.666 18.5176 83.666 18.7832V22H82.7227V16.5039H83.666V17.377C83.7871 17.0918 83.9648 16.8574 84.1992 16.6738C84.4375 16.4902 84.7324 16.3984 85.084 16.3984C85.9668 16.3984 86.5527 16.8379 86.8418 17.7168C87.1504 16.8379 87.6934 16.3984 88.4707 16.3984C89.1152 16.3984 89.6035 16.6387 89.9355 17.1191C90.2715 17.5996 90.4395 18.3105 90.4395 19.252V21.9941L89.5254 22V19.252C89.5254 17.8496 89.1074 17.1484 88.2715 17.1484C88.0449 17.1484 87.8398 17.2324 87.6562 17.4004C87.4727 17.5684 87.332 17.7734 87.2344 18.0156C87.1133 18.2617 87.0527 18.5176 87.0527 18.7832V22H86.1387V19.252Z" fill="url(#paint0_linear)"/>
<path d="M26.86 10.89L20.68 17.825C20.6623 17.8436 20.6409 17.8584 20.6173 17.8685C20.5937 17.8787 20.5682 17.8839 20.5425 17.8839C20.5168 17.8839 20.4913 17.8787 20.4677 17.8685C20.4441 17.8584 20.4227 17.8436 20.405 17.825L17.25 14.575C17.2236 14.5415 17.2093 14.5001 17.2093 14.4575C17.2093 14.4149 17.2236 14.3735 17.25 14.34L18.275 13C18.2927 12.9762 18.3157 12.9569 18.3422 12.9436C18.3686 12.9303 18.3979 12.9233 18.4275 12.9233C18.4571 12.9233 18.4864 12.9303 18.5128 12.9436C18.5393 12.9569 18.5623 12.9762 18.58 13L20.335 14.955C20.3528 14.9752 20.3748 14.9914 20.3993 15.0025C20.4239 15.0136 20.4505 15.0193 20.4775 15.0193C20.5045 15.0193 20.5311 15.0136 20.5557 15.0025C20.5802 14.9914 20.6022 14.9752 20.62 14.955L25.57 8.21C25.5833 8.19018 25.5911 8.1672 25.5926 8.14338C25.5941 8.11957 25.5893 8.09578 25.5786 8.07444C25.568 8.0531 25.5518 8.03496 25.5319 8.02189C25.5119 8.00881 25.4888 8.00126 25.465 8H8.145C8.10654 8 8.06966 8.01528 8.04247 8.04247C8.01528 8.06966 8 8.10654 8 8.145V27.855C8 27.8935 8.01528 27.9303 8.04247 27.9575C8.06966 27.9847 8.10654 28 8.145 28H26.95C26.9885 28 27.0253 27.9847 27.0525 27.9575C27.0797 27.9303 27.095 27.8935 27.095 27.855V11C27.0996 10.9711 27.0947 10.9414 27.0809 10.9156C27.0672 10.8897 27.0454 10.869 27.0189 10.8565C26.9924 10.8441 26.9625 10.8407 26.9339 10.8467C26.9052 10.8527 26.8793 10.8679 26.86 10.89V10.89ZM13.325 25.805C12.0866 25.8602 10.8756 25.4296 9.95 24.605C9.92147 24.5715 9.9058 24.529 9.9058 24.485C9.9058 24.441 9.92147 24.3985 9.95 24.365L10.685 23.335C10.7001 23.3137 10.7196 23.2958 10.7422 23.2826C10.7647 23.2694 10.7898 23.2611 10.8158 23.2582C10.8417 23.2554 10.868 23.2581 10.8929 23.2662C10.9178 23.2742 10.9406 23.2875 10.96 23.305C11.6314 23.9279 12.5142 24.2728 13.43 24.27C14.395 24.27 14.865 23.825 14.865 23.355C14.865 21.895 10.115 22.895 10.115 19.79C10.115 18.415 11.305 17.29 13.245 17.29C14.3663 17.2501 15.464 17.6178 16.335 18.325C16.3663 18.3591 16.3836 18.4037 16.3836 18.45C16.3836 18.4963 16.3663 18.5409 16.335 18.575L15.58 19.575C15.5649 19.5948 15.5459 19.6113 15.5242 19.6236C15.5026 19.6358 15.4786 19.6436 15.4539 19.6464C15.4291 19.6492 15.4041 19.647 15.3802 19.6399C15.3564 19.6328 15.3342 19.6209 15.315 19.605C14.6748 19.0944 13.8788 18.8191 13.06 18.825C12.305 18.825 11.885 19.16 11.885 19.655C11.885 20.965 16.625 20.09 16.625 23.155C16.63 24.665 15.555 25.805 13.325 25.805V25.805ZM23.69 22.945C23.69 22.9874 23.6731 23.0281 23.6431 23.0581C23.6131 23.0881 23.5724 23.105 23.53 23.105H19.195C19.188 23.105 19.1811 23.1064 19.1746 23.1092C19.1682 23.112 19.1625 23.1162 19.1578 23.1214C19.153 23.1266 19.1495 23.1327 19.1473 23.1393C19.1451 23.146 19.1443 23.153 19.145 23.16C19.2158 23.5648 19.4348 23.9288 19.7592 24.1811C20.0835 24.4334 20.4902 24.556 20.9 24.525C21.4385 24.5105 21.9605 24.3365 22.4 24.025C22.4172 24.0116 22.4369 24.0018 22.458 23.9963C22.479 23.9908 22.501 23.9897 22.5225 23.9929C22.5441 23.9962 22.5647 24.0038 22.5832 24.0154C22.6017 24.0269 22.6176 24.0421 22.63 24.06L23.16 24.835C23.1827 24.8694 23.1917 24.9111 23.1852 24.9518C23.1788 24.9925 23.1573 25.0293 23.125 25.055C22.4262 25.5635 21.579 25.8272 20.715 25.805C20.2829 25.829 19.8505 25.7625 19.4456 25.6096C19.0407 25.4567 18.6723 25.2209 18.3639 24.9172C18.0555 24.6135 17.814 24.2487 17.6549 23.8462C17.4958 23.4438 17.4226 23.0124 17.44 22.58C17.4278 22.1581 17.5012 21.7381 17.656 21.3454C17.8108 20.9527 18.0436 20.5955 18.3405 20.2954C18.6373 19.9954 18.9919 19.7586 19.3829 19.5995C19.7738 19.4405 20.193 19.3624 20.615 19.37C22.445 19.37 23.685 20.74 23.685 22.745L23.69 22.945ZM20.62 20.655C20.2524 20.6439 19.8942 20.7714 19.6163 21.0122C19.3384 21.2531 19.1612 21.5896 19.12 21.955C19.1193 21.962 19.1201 21.969 19.1223 21.9757C19.1245 21.9823 19.128 21.9884 19.1328 21.9936C19.1375 21.9988 19.1432 22.003 19.1496 22.0058C19.1561 22.0086 19.163 22.01 19.17 22.01H22.08C22.087 22.01 22.0939 22.0086 22.1004 22.0058C22.1068 22.003 22.1125 21.9988 22.1172 21.9936C22.122 21.9884 22.1255 21.9823 22.1277 21.9757C22.1299 21.969 22.1307 21.962 22.13 21.955C22.1006 21.583 21.9254 21.2376 21.6426 20.9942C21.3598 20.7507 20.9923 20.6288 20.62 20.655V20.655Z" fill="#43B02A"/>
<defs>
<linearGradient id="paint0_linear" x1="45" y1="18" x2="92" y2="18" gradientUnits="userSpaceOnUse">
<stop stop-color="#50BE33"/>
<stop offset="1" stop-color="#347F20"/>
</linearGradient>
</defs>
</svg>
