<svg width="116" height="36" viewBox="0 0 116 36" fill="none" xmlns="http://www.w3.org/2000/svg">
<rect width="116" height="36" rx="7" fill="#414345"/>
<path d="M42.9199 20.5176C43.0293 20.5957 43.1289 20.6719 43.2188 20.7461C43.3125 20.8203 43.418 20.8906 43.5352 20.957C43.6523 21.0195 43.7734 21.0742 43.8984 21.1211C44.1719 21.2305 44.4785 21.2852 44.8184 21.2852C45.3887 21.2852 45.7812 21.1465 45.9961 20.8691C46.1797 20.6309 46.2715 20.3965 46.2715 20.166C46.2715 19.9316 46.248 19.748 46.2012 19.6152C46.1113 19.3848 45.9316 19.168 45.6621 18.9648C45.5488 18.8867 45.4141 18.8027 45.2578 18.7129L44.2969 18.2383C43.9375 18.043 43.6641 17.8535 43.4766 17.6699C43.2891 17.4863 43.1484 17.3164 43.0547 17.1602C42.8477 16.8125 42.7441 16.3613 42.7441 15.8066C42.7441 15.252 42.9453 14.7695 43.3477 14.3594C43.75 13.9492 44.2734 13.7441 44.918 13.7441C45.3281 13.7441 45.6953 13.7969 46.0195 13.9023C46.3477 14.0078 46.6074 14.1348 46.7988 14.2832L46.5762 15.0918C46.1113 14.7324 45.584 14.5527 44.9941 14.5527C44.623 14.5527 44.332 14.6758 44.1211 14.9219C43.9141 15.168 43.8105 15.4844 43.8105 15.8711C43.8105 16.0469 43.8398 16.207 43.8984 16.3516C43.9961 16.6094 44.1992 16.8398 44.5078 17.043C44.6289 17.1289 44.7969 17.2188 45.0117 17.3125L45.9316 17.7812C46.0957 17.8711 46.2402 17.9609 46.3652 18.0508C46.4941 18.1367 46.6211 18.2422 46.7461 18.3672C47.1406 18.7617 47.3379 19.2715 47.3379 19.8965C47.3379 20.5176 47.125 21.041 46.6992 21.4668C46.2734 21.8926 45.7188 22.1055 45.0352 22.1055C44.2852 22.1055 43.668 21.9727 43.1836 21.707C42.9219 21.5664 42.7148 21.4434 42.5625 21.3379L42.9199 20.5176ZM49.834 21.0977C50.1465 21.2695 50.4648 21.3555 50.7891 21.3555C51.3438 21.3555 51.8184 21.1465 52.2129 20.7285C52.627 20.2949 52.834 19.7734 52.834 19.1641C52.834 18.5508 52.6895 18.0625 52.4004 17.6992C52.1074 17.3359 51.748 17.1543 51.3223 17.1543C51.0332 17.1543 50.7578 17.2539 50.4961 17.4531C50.2344 17.6484 50.0137 17.8984 49.834 18.2031V21.0977ZM51.4102 16.3984C51.8633 16.3984 52.2734 16.5234 52.6406 16.7734C53.0078 17.0234 53.2891 17.3496 53.4844 17.752C53.6797 18.1504 53.7773 18.5781 53.7773 19.0352C53.7773 19.9453 53.5117 20.6855 52.9805 21.2559C52.4531 21.8223 51.7969 22.1055 51.0117 22.1055C50.6836 22.1055 50.291 22.043 49.834 21.918V24.8828H48.8672V16.5039H49.834V17.1484C50.2754 16.6484 50.8008 16.3984 51.4102 16.3984ZM55.1016 22V16.5039H56.0449V17.5117C56.1855 17.207 56.3848 16.9453 56.6426 16.7266C56.9043 16.5078 57.1992 16.3984 57.5273 16.3984C57.8594 16.3984 58.1309 16.457 58.3418 16.5742C58.5566 16.6875 58.6992 16.8086 58.7695 16.9375L58.3711 17.5352C58.3164 17.4648 58.2637 17.4062 58.2129 17.3594C58.0684 17.2188 57.8555 17.1484 57.5742 17.1484C57.293 17.1484 57.0391 17.2383 56.8125 17.418C56.5859 17.6016 56.4062 17.8242 56.2734 18.0859C56.1406 18.3477 56.0645 18.6094 56.0449 18.8711V22H55.1016ZM61.248 16.5039V22H60.3047V17.2539H59.332V16.5039H61.248ZM60.082 14.3301C60.082 14.1348 60.1484 13.9688 60.2812 13.832C60.418 13.6914 60.582 13.6211 60.7734 13.6211C60.9648 13.6211 61.127 13.6914 61.2598 13.832C61.3965 13.9688 61.4648 14.1348 61.4648 14.3301C61.4648 14.5254 61.3965 14.6934 61.2598 14.834C61.127 14.9707 60.9648 15.0391 60.7734 15.0391C60.582 15.0391 60.418 14.9707 60.2812 14.834C60.1484 14.6934 60.082 14.5254 60.082 14.3301ZM66.8789 19.0293C66.8789 17.7754 66.4297 17.1484 65.5312 17.1484C65.3008 17.1484 65.0898 17.2109 64.8984 17.3359C64.6055 17.5234 64.375 17.832 64.207 18.2617C64.1484 18.4102 64.1191 18.5273 64.1191 18.6133V22H63.1758V16.5039H64.1191V17.5117C64.4707 16.7695 65.043 16.3984 65.8359 16.3984C66.1562 16.3984 66.4434 16.4707 66.6973 16.6152C66.9551 16.7559 67.1562 16.9082 67.3008 17.0723C67.6484 17.459 67.8223 18.002 67.8223 18.7012V22H66.8789V19.0293ZM71.6719 17.1543C71.0547 17.1543 70.6602 17.4414 70.4883 18.0156C70.4414 18.1641 70.418 18.3164 70.418 18.4727C70.418 18.7969 70.5176 19.0625 70.7168 19.2695C70.916 19.4727 71.2344 19.5742 71.6719 19.5742C72.2891 19.5742 72.6836 19.3086 72.8555 18.7773C72.9023 18.6406 72.9258 18.5039 72.9258 18.3672C72.9258 18.082 72.834 17.8164 72.6504 17.5703C72.4355 17.293 72.1094 17.1543 71.6719 17.1543ZM73.5059 17.2539C73.748 17.5977 73.8691 17.9668 73.8691 18.3613C73.8691 19.002 73.6309 19.5117 73.1543 19.8906C72.791 20.1836 72.2969 20.3301 71.6719 20.3301C71.3359 20.3301 71.0352 20.2949 70.7695 20.2246C70.5391 20.4004 70.4238 20.5996 70.4238 20.8223C70.4238 21.1309 70.9258 21.2852 71.9297 21.2852C73.0859 21.2852 73.8223 21.5645 74.1387 22.123C74.2363 22.2949 74.2852 22.4902 74.2852 22.709C74.2852 23.1895 74.1504 23.5957 73.8809 23.9277C73.3652 24.5645 72.4961 24.8828 71.2734 24.8828C70.6523 24.8828 70.1465 24.7578 69.7559 24.5078C69.3691 24.2578 69.1758 23.8926 69.1758 23.4121C69.1758 22.9238 69.375 22.5176 69.7734 22.1934C69.8906 22.0996 70.0352 22 70.207 21.8945C69.7227 21.7305 69.4805 21.4336 69.4805 21.0039C69.4805 20.8438 69.5352 20.6641 69.6445 20.4648C69.7539 20.2656 69.9199 20.0879 70.1426 19.9316C69.709 19.6191 69.4863 19.1406 69.4746 18.4961V18.4609C69.4746 17.957 69.6328 17.502 69.9492 17.0957C70.1133 16.8848 70.3438 16.7168 70.6406 16.5918C70.9375 16.4629 71.252 16.3984 71.584 16.3984C71.9199 16.3984 72.207 16.4336 72.4453 16.5039H74.2852V17.2539H73.5059ZM71.1094 22.0352C70.7305 22.2461 70.4766 22.4395 70.3477 22.6152C70.1953 22.8184 70.1191 23.0332 70.1191 23.2598C70.1191 23.4863 70.1875 23.6641 70.3242 23.793C70.5586 24.0156 70.9336 24.127 71.4492 24.127C72.1602 24.127 72.6953 23.9512 73.0547 23.5996C73.2461 23.4121 73.3418 23.1836 73.3418 22.9141C73.3418 22.6367 73.2324 22.4355 73.0137 22.3105C72.7793 22.1855 72.5527 22.1113 72.334 22.0879C72.0371 22.0566 71.7793 22.041 71.5605 22.041C71.3457 22.041 71.1953 22.0391 71.1094 22.0352ZM80.0566 14.6641V17.3418H80.4434C81.0957 17.3418 81.5938 17.2188 81.9375 16.9727C82.2852 16.7266 82.459 16.3711 82.459 15.9062C82.459 15.332 82.1758 14.9336 81.6094 14.7109C81.3477 14.6094 81.0781 14.5586 80.8008 14.5586C80.5273 14.5586 80.2793 14.5938 80.0566 14.6641ZM83.1152 19.7148C83.1152 18.6797 82.2129 18.1621 80.4082 18.1621H80.0566V21.1797C80.2676 21.25 80.5371 21.2852 80.8652 21.2852C81.5996 21.2852 82.1582 21.1504 82.541 20.8809C82.9238 20.6074 83.1152 20.2188 83.1152 19.7148ZM83.7539 20.9922C83.1914 21.7344 82.2148 22.1055 80.8242 22.1055C80.1367 22.1055 79.5273 22.0449 78.9961 21.9238V13.9609C79.6445 13.8164 80.3164 13.7441 81.0117 13.7441C81.707 13.7441 82.3086 13.9141 82.8164 14.2539C83.3281 14.5938 83.584 15.0391 83.584 15.5898C83.584 16.1406 83.4492 16.584 83.1797 16.9199C82.9102 17.2559 82.5645 17.4805 82.1426 17.5938C83.1699 17.7305 83.8125 18.1484 84.0703 18.8477C84.1562 19.0664 84.1992 19.3105 84.1992 19.5801C84.1992 20.1348 84.0508 20.6055 83.7539 20.9922ZM85.7812 19.252C85.7812 19.6309 85.8281 19.9629 85.9219 20.248C86.0195 20.5293 86.1484 20.748 86.3086 20.9043C86.4727 21.0566 86.6484 21.1699 86.8359 21.2441C87.0273 21.3145 87.2305 21.3496 87.4453 21.3496C87.8828 21.3496 88.2598 21.1992 88.5762 20.8984C88.9238 20.5664 89.0977 20.0176 89.0977 19.252C89.0977 18.4902 88.9238 17.9395 88.5762 17.5996C88.2559 17.3027 87.8789 17.1543 87.4453 17.1543C87.0039 17.1543 86.627 17.3027 86.3145 17.5996C85.959 17.9395 85.7812 18.4902 85.7812 19.252ZM84.8379 19.252C84.8379 18.0684 85.2188 17.2441 85.9805 16.7793C86.4023 16.5254 86.8906 16.3984 87.4453 16.3984C87.9961 16.3984 88.4863 16.5254 88.916 16.7793C89.1426 16.9199 89.3398 17.0957 89.5078 17.3066C89.8711 17.7832 90.0527 18.4316 90.0527 19.252C90.0527 20.4395 89.6738 21.2617 88.916 21.7188C88.4941 21.9766 88.0039 22.1055 87.4453 22.1055C86.8828 22.1055 86.3945 21.9766 85.9805 21.7188C85.75 21.582 85.5508 21.4062 85.3828 21.1914C85.0195 20.7266 84.8379 20.0801 84.8379 19.252ZM91.7109 19.252C91.7109 19.6309 91.7578 19.9629 91.8516 20.248C91.9492 20.5293 92.0781 20.748 92.2383 20.9043C92.4023 21.0566 92.5781 21.1699 92.7656 21.2441C92.957 21.3145 93.1602 21.3496 93.375 21.3496C93.8125 21.3496 94.1895 21.1992 94.5059 20.8984C94.8535 20.5664 95.0273 20.0176 95.0273 19.252C95.0273 18.4902 94.8535 17.9395 94.5059 17.5996C94.1855 17.3027 93.8086 17.1543 93.375 17.1543C92.9336 17.1543 92.5566 17.3027 92.2441 17.5996C91.8887 17.9395 91.7109 18.4902 91.7109 19.252ZM90.7676 19.252C90.7676 18.0684 91.1484 17.2441 91.9102 16.7793C92.332 16.5254 92.8203 16.3984 93.375 16.3984C93.9258 16.3984 94.416 16.5254 94.8457 16.7793C95.0723 16.9199 95.2695 17.0957 95.4375 17.3066C95.8008 17.7832 95.9824 18.4316 95.9824 19.252C95.9824 20.4395 95.6035 21.2617 94.8457 21.7188C94.4238 21.9766 93.9336 22.1055 93.375 22.1055C92.8125 22.1055 92.3242 21.9766 91.9102 21.7188C91.6797 21.582 91.4805 21.4062 91.3125 21.1914C90.9492 20.7266 90.7676 20.0801 90.7676 19.252ZM98.7539 22.1055C97.8242 22.1055 97.3594 21.5898 97.3594 20.5586V17.2539H96.3867V16.5039H97.3594V15.3906L98.3027 15.0391V16.5039H99.6445V17.2539H98.3027V20.5C98.3027 20.8008 98.3789 21.0176 98.5312 21.1504C98.6836 21.2793 98.8535 21.3438 99.041 21.3438C99.4043 21.3438 99.6875 21.3125 99.8906 21.25L100.008 21.9121C99.6484 22.041 99.2305 22.1055 98.7539 22.1055Z" fill="url(#paint0_linear)"/>
<path d="M26.2105 9.16715C25.9328 9.83327 25.5734 10.4623 25.1405 11.0397C24.2136 10.0812 23.1038 9.31837 21.8769 8.79626C20.65 8.27415 19.3308 8.0034 17.9974 8.00003C16.664 7.99666 15.3435 8.26073 14.1139 8.77663C12.8844 9.29252 11.7707 10.0498 10.839 11.0036C9.90717 11.9574 9.17613 13.0883 8.68907 14.3296C8.20202 15.5709 7.96884 16.8972 8.00334 18.2302C8.03783 19.5631 8.3393 20.8756 8.88991 22.09C9.44051 23.3044 10.2291 24.3961 11.209 25.3004L11.5794 25.6296C12.985 26.8151 14.6913 27.5884 16.5094 27.8639C18.3274 28.1394 20.1862 27.9063 21.88 27.1904C23.5737 26.4746 25.0363 25.3039 26.1057 23.8081C27.1751 22.3123 27.8096 20.5496 27.939 18.7154C28.2271 16.2049 27.4657 12.9947 26.2105 9.16707L26.2105 9.16715ZM12.6495 25.3827C12.5437 25.5128 12.4018 25.6085 12.2416 25.6578C12.0814 25.7072 11.9101 25.708 11.7495 25.66C11.5889 25.6121 11.446 25.5176 11.3391 25.3886C11.2321 25.2595 11.1658 25.1016 11.1486 24.9349C11.1313 24.7681 11.1639 24.6 11.2422 24.4518C11.3204 24.3035 11.4409 24.1818 11.5883 24.102C11.7357 24.0222 11.9035 23.9879 12.0704 24.0034C12.2373 24.0189 12.3958 24.0835 12.526 24.1891C12.6967 24.3337 12.8049 24.5386 12.8279 24.7611C12.8509 24.9836 12.787 25.2063 12.6495 25.3827V25.3827ZM26.1488 22.3989C23.7 25.6708 18.432 24.5596 15.0778 24.7242C15.0778 24.7242 14.481 24.7654 13.8842 24.8477C13.8842 24.8477 14.1106 24.7448 14.3987 24.6419C16.7652 23.8188 17.8764 23.6541 19.3169 22.9133C22.0126 21.5346 24.7084 18.5097 25.2434 15.3817C24.2145 18.3862 21.0866 20.979 18.2468 22.0285C16.2919 22.7487 12.773 23.4484 12.773 23.4484L12.629 23.3661C10.2419 22.1931 10.1596 17.0074 14.5221 15.3406C16.436 14.5997 18.2468 15.0114 20.3252 14.5175C22.527 14.003 25.0788 12.3567 26.1077 10.1961C27.26 13.6737 28.6594 19.0652 26.1488 22.3989V22.3989Z" fill="#96B504"/>
<defs>
<linearGradient id="paint0_linear" x1="42" y1="18" x2="101" y2="18" gradientUnits="userSpaceOnUse">
<stop stop-color="#AACE00"/>
<stop offset="1" stop-color="#7E9609"/>
</linearGradient>
</defs>
</svg>
