<svg width="116" height="36" viewBox="0 0 116 36" fill="none" xmlns="http://www.w3.org/2000/svg">
<rect width="116" height="36" rx="7" fill="#414345"/>
<path d="M27.3332 11.3314C27.3332 12.8024 23.1545 13.9963 17.9998 13.9963C12.8452 13.9963 8.6665 12.8024 8.6665 11.3314M27.3332 11.3314C27.3332 9.86034 23.1545 8.6665 17.9998 8.6665C12.8452 8.6665 8.6665 9.86034 8.6665 11.3314M27.3332 11.3314V24.6561C27.3332 26.1271 23.1545 27.321 17.9998 27.321C12.8452 27.321 8.6665 26.1273 8.6665 24.6562V11.3314M27.3332 17.9937C27.3332 19.4647 23.1545 20.6587 17.9998 20.6587C12.8452 20.6587 8.6665 19.4647 8.6665 17.9937" stroke="#BF252C" stroke-linecap="square"/>
<path d="M55.2266 21.0234C55.3724 21.1276 55.5052 21.2292 55.625 21.3281C55.75 21.4271 55.8906 21.5208 56.0469 21.6094C56.2031 21.6927 56.3646 21.7656 56.5312 21.8281C56.8958 21.974 57.3047 22.0469 57.7578 22.0469C58.5182 22.0469 59.0417 21.862 59.3281 21.4922C59.5729 21.1745 59.6953 20.862 59.6953 20.5547C59.6953 20.2422 59.6641 19.9974 59.6016 19.8203C59.4818 19.513 59.2422 19.224 58.8828 18.9531C58.7318 18.849 58.5521 18.737 58.3438 18.6172L57.0625 17.9844C56.5833 17.724 56.2188 17.4714 55.9688 17.2266C55.7188 16.9818 55.5312 16.7552 55.4062 16.5469C55.1302 16.0833 54.9922 15.4818 54.9922 14.7422C54.9922 14.0026 55.2604 13.3594 55.7969 12.8125C56.3333 12.2656 57.0312 11.9922 57.8906 11.9922C58.4375 11.9922 58.9271 12.0625 59.3594 12.2031C59.7969 12.3438 60.1432 12.513 60.3984 12.7109L60.1016 13.7891C59.4818 13.3099 58.7786 13.0703 57.9922 13.0703C57.4974 13.0703 57.1094 13.2344 56.8281 13.5625C56.5521 13.8906 56.4141 14.3125 56.4141 14.8281C56.4141 15.0625 56.4531 15.276 56.5312 15.4688C56.6615 15.8125 56.9323 16.1198 57.3438 16.3906C57.5052 16.5052 57.7292 16.625 58.0156 16.75L59.2422 17.375C59.4609 17.4948 59.6536 17.6146 59.8203 17.7344C59.9922 17.849 60.1615 17.9896 60.3281 18.1562C60.8542 18.6823 61.1172 19.362 61.1172 20.1953C61.1172 21.0234 60.8333 21.7214 60.2656 22.2891C59.6979 22.8568 58.9583 23.1406 58.0469 23.1406C57.0469 23.1406 56.224 22.9635 55.5781 22.6094C55.2292 22.4219 54.9531 22.2578 54.75 22.1172L55.2266 21.0234ZM62.5859 15.3125C63.0755 13.9167 63.9714 12.9479 65.2734 12.4062C65.9505 12.1302 66.6667 11.9922 67.4219 11.9922C69.4792 11.9922 70.9896 12.7474 71.9531 14.2578C72.5208 15.1745 72.8047 16.2578 72.8047 17.5078C72.8047 19.1172 72.3307 20.4531 71.3828 21.5156C70.9089 22.0469 70.3438 22.4531 69.6875 22.7344C69.8333 22.8125 70.0521 22.9401 70.3438 23.1172C70.6406 23.2995 70.8802 23.4427 71.0625 23.5469C71.5625 23.8333 72.0729 24.0208 72.5938 24.1094L72.1797 25.125C71.5807 25.026 70.9401 24.763 70.2578 24.3359C69.4818 23.8568 68.9141 23.5443 68.5547 23.3984C68.1953 23.2578 67.8464 23.1719 67.5078 23.1406C65.487 23.125 64.013 22.3594 63.0859 20.8438C62.513 19.9323 62.2266 18.8203 62.2266 17.5078C62.2266 16.7161 62.3464 15.9844 62.5859 15.3125ZM69.625 13.6797C69.0417 13.2734 68.349 13.0703 67.5469 13.0703C66.75 13.0703 66.0573 13.2656 65.4688 13.6562C64.3073 14.4323 63.7266 15.7161 63.7266 17.5078C63.7266 19.3255 64.3021 20.6328 65.4531 21.4297C66.0365 21.8359 66.6797 22.0391 67.3828 22.0391C68.6797 22.0391 69.6693 21.5859 70.3516 20.6797C71.0026 19.8099 71.3281 18.7526 71.3281 17.5078C71.3281 15.7526 70.7604 14.4766 69.625 13.6797ZM74.6094 23V12.1328H76.0234V21.9062H80.8203V23H74.6094Z" fill="url(#paint0_linear)"/>
<defs>
<linearGradient id="paint0_linear" x1="54" y1="18" x2="82" y2="18" gradientUnits="userSpaceOnUse">
<stop stop-color="#E92138"/>
<stop offset="1" stop-color="#992820"/>
</linearGradient>
</defs>
</svg>
