<svg width="116" height="36" viewBox="0 0 116 36" fill="none" xmlns="http://www.w3.org/2000/svg">
<rect width="116" height="36" rx="7" fill="#414345"/>
<path d="M42.334 13.8496H48.5977V14.6641H45.9961V22H44.9355V14.6641H42.334V13.8496ZM49.2715 23.8867C49.4785 24.0625 49.6523 24.1504 49.793 24.1504C50.0312 24.1504 50.2402 24.0449 50.4199 23.834C50.666 23.5566 50.9277 23.1191 51.2051 22.5215C51.2793 22.3613 51.3691 22.166 51.4746 21.9355L49.0781 16.5039H50.0918L51.9844 20.7871L53.8828 16.5039H54.832L52.4062 21.8945C51.75 23.4023 51.1875 24.3242 50.7188 24.6602C50.4844 24.8242 50.1973 24.9062 49.8574 24.9062C49.5176 24.9062 49.209 24.7578 48.9316 24.4609L49.2715 23.8867ZM56.8887 21.0977C57.2012 21.2695 57.5195 21.3555 57.8438 21.3555C58.3984 21.3555 58.873 21.1465 59.2676 20.7285C59.6816 20.2949 59.8887 19.7734 59.8887 19.1641C59.8887 18.5508 59.7441 18.0625 59.4551 17.6992C59.1621 17.3359 58.8027 17.1543 58.377 17.1543C58.0879 17.1543 57.8125 17.2539 57.5508 17.4531C57.2891 17.6484 57.0684 17.8984 56.8887 18.2031V21.0977ZM58.4648 16.3984C58.918 16.3984 59.3281 16.5234 59.6953 16.7734C60.0625 17.0234 60.3438 17.3496 60.5391 17.752C60.7344 18.1504 60.832 18.5781 60.832 19.0352C60.832 19.9453 60.5664 20.6855 60.0352 21.2559C59.5078 21.8223 58.8516 22.1055 58.0664 22.1055C57.7383 22.1055 57.3457 22.043 56.8887 21.918V24.8828H55.9219V16.5039H56.8887V17.1484C57.3301 16.6484 57.8555 16.3984 58.4648 16.3984ZM64.125 17.1484C63.582 17.1484 63.1758 17.3125 62.9062 17.6406C62.7188 17.8672 62.5957 18.1875 62.5371 18.6016H65.3789C65.3438 18.1758 65.2168 17.8262 64.998 17.5527C64.7754 17.2832 64.4844 17.1484 64.125 17.1484ZM66.1055 21.6777C65.6836 21.9629 65.1133 22.1055 64.3945 22.1055C63.4844 22.1055 62.7832 21.8457 62.291 21.3262C61.7988 20.8066 61.5527 20.1152 61.5527 19.252C61.5527 18.127 61.918 17.3125 62.6484 16.8086C63.0547 16.5352 63.5078 16.3984 64.0078 16.3984C64.7812 16.3984 65.3672 16.6602 65.7656 17.1836C66.1016 17.6328 66.2812 18.2227 66.3047 18.9531L66.1641 19.3047H62.4961C62.5039 19.9531 62.6777 20.457 63.0176 20.8164C63.3574 21.1719 63.8105 21.3496 64.377 21.3496C64.8066 21.3496 65.2988 21.2344 65.8535 21.0039L66.1055 21.6777ZM68.9414 21.3496C69.6172 21.3496 69.9551 21.0586 69.9551 20.4766C69.9551 20.125 69.6328 19.8438 68.9883 19.6328L68.4141 19.4336C68.0039 19.2891 67.6992 19.084 67.5 18.8184C67.3047 18.5488 67.207 18.2324 67.207 17.8691C67.207 17.502 67.377 17.166 67.7168 16.8613C68.0566 16.5527 68.4922 16.3984 69.0234 16.3984C69.375 16.3984 69.6875 16.4453 69.9609 16.5391C70.2344 16.6289 70.4453 16.7324 70.5938 16.8496L70.2598 17.5527C70.1387 17.4551 69.9668 17.3633 69.7441 17.2773C69.5215 17.1914 69.2812 17.1484 69.0234 17.1484C68.7695 17.1484 68.5605 17.2246 68.3965 17.377C68.2324 17.5293 68.1504 17.6992 68.1504 17.8867C68.1504 18.0742 68.2129 18.2305 68.3379 18.3555C68.4629 18.4805 68.7148 18.6094 69.0938 18.7422L69.668 18.9414C70.0859 19.0859 70.3965 19.2754 70.5996 19.5098C70.7988 19.748 70.8984 20.0918 70.8984 20.541C70.8984 20.9902 70.7266 21.3633 70.3828 21.6602C70.0391 21.957 69.5703 22.1055 68.9766 22.1055C68.6602 22.1055 68.3555 22.0723 68.0625 22.0059C67.7734 21.9434 67.4492 21.8086 67.0898 21.6016L67.4297 20.875C67.7305 21.0547 67.9863 21.1797 68.1973 21.25C68.4082 21.3164 68.6562 21.3496 68.9414 21.3496ZM74.502 21.3496C74.959 21.3496 75.3984 21.1953 75.8203 20.8867L76.1836 21.5195C75.875 21.7461 75.5996 21.9004 75.3574 21.9824C75.1152 22.0645 74.75 22.1055 74.2617 22.1055C73.457 22.1055 72.8184 21.8457 72.3457 21.3262C71.877 20.8066 71.6426 20.1152 71.6426 19.252C71.6426 18.3887 71.877 17.6973 72.3457 17.1777C72.8184 16.6582 73.457 16.3984 74.2617 16.3984C74.75 16.3984 75.1152 16.4395 75.3574 16.5215C75.5996 16.6035 75.875 16.7578 76.1836 16.9844L75.8203 17.6172C75.3984 17.3086 74.959 17.1543 74.502 17.1543H74.4668C73.8965 17.1543 73.4395 17.3594 73.0957 17.7695C72.7559 18.1797 72.5859 18.6738 72.5859 19.252C72.5859 19.8301 72.7559 20.3242 73.0957 20.7344C73.4395 21.1445 73.8965 21.3496 74.4668 21.3496H74.502ZM77.4492 22V16.5039H78.3926V17.5117C78.5332 17.207 78.7324 16.9453 78.9902 16.7266C79.252 16.5078 79.5469 16.3984 79.875 16.3984C80.207 16.3984 80.4785 16.457 80.6895 16.5742C80.9043 16.6875 81.0469 16.8086 81.1172 16.9375L80.7188 17.5352C80.6641 17.4648 80.6113 17.4062 80.5605 17.3594C80.416 17.2188 80.2031 17.1484 79.9219 17.1484C79.6406 17.1484 79.3867 17.2383 79.1602 17.418C78.9336 17.6016 78.7539 17.8242 78.6211 18.0859C78.4883 18.3477 78.4121 18.6094 78.3926 18.8711V22H77.4492ZM83.5957 16.5039V22H82.6523V17.2539H81.6797V16.5039H83.5957ZM82.4297 14.3301C82.4297 14.1348 82.4961 13.9688 82.6289 13.832C82.7656 13.6914 82.9297 13.6211 83.1211 13.6211C83.3125 13.6211 83.4746 13.6914 83.6074 13.832C83.7441 13.9688 83.8125 14.1348 83.8125 14.3301C83.8125 14.5254 83.7441 14.6934 83.6074 14.834C83.4746 14.9707 83.3125 15.0391 83.1211 15.0391C82.9297 15.0391 82.7656 14.9707 82.6289 14.834C82.4961 14.6934 82.4297 14.5254 82.4297 14.3301ZM86.4902 21.0977C86.8027 21.2695 87.1211 21.3555 87.4453 21.3555C88 21.3555 88.4746 21.1465 88.8691 20.7285C89.2832 20.2949 89.4902 19.7734 89.4902 19.1641C89.4902 18.5508 89.3457 18.0625 89.0566 17.6992C88.7637 17.3359 88.4043 17.1543 87.9785 17.1543C87.6895 17.1543 87.4141 17.2539 87.1523 17.4531C86.8906 17.6484 86.6699 17.8984 86.4902 18.2031V21.0977ZM88.0664 16.3984C88.5195 16.3984 88.9297 16.5234 89.2969 16.7734C89.6641 17.0234 89.9453 17.3496 90.1406 17.752C90.3359 18.1504 90.4336 18.5781 90.4336 19.0352C90.4336 19.9453 90.168 20.6855 89.6367 21.2559C89.1094 21.8223 88.4531 22.1055 87.668 22.1055C87.3398 22.1055 86.9473 22.043 86.4902 21.918V24.8828H85.5234V16.5039H86.4902V17.1484C86.9316 16.6484 87.457 16.3984 88.0664 16.3984ZM93.2109 22.1055C92.2812 22.1055 91.8164 21.5898 91.8164 20.5586V17.2539H90.8438V16.5039H91.8164V15.3906L92.7598 15.0391V16.5039H94.1016V17.2539H92.7598V20.5C92.7598 20.8008 92.8359 21.0176 92.9883 21.1504C93.1406 21.2793 93.3105 21.3438 93.498 21.3438C93.8613 21.3438 94.1445 21.3125 94.3477 21.25L94.4648 21.9121C94.1055 22.041 93.6875 22.1055 93.2109 22.1055Z" fill="url(#paint0_linear)"/>
<path d="M24.6665 18.6665V18.4443C24.6665 17.4624 23.8706 16.6665 22.8887 16.6665H21.3332C20.2286 16.6665 19.3332 17.5619 19.3332 18.6665C19.3332 19.7711 20.2286 20.6665 21.3332 20.6665H22.6665C23.7711 20.6665 24.6665 21.5619 24.6665 22.6665C24.6665 23.7711 23.7711 24.6665 22.6665 24.6665H21.3332C20.2286 24.6665 19.3332 23.7711 19.3332 22.6665M18.6665 16.6665H11.9998M15.3332 16.6665V25.3332M8.6665 8.6665H27.3332V27.3332H8.6665V8.6665Z" stroke="#1F5DBF"/>
<defs>
<linearGradient id="paint0_linear" x1="42" y1="18" x2="95" y2="18" gradientUnits="userSpaceOnUse">
<stop stop-color="#1F5DBF"/>
<stop offset="1" stop-color="#2A33B2"/>
</linearGradient>
</defs>
</svg>
