<svg width="116" height="36" viewBox="0 0 116 36" fill="none" xmlns="http://www.w3.org/2000/svg">
<rect width="116" height="36" rx="7" fill="#414345"/>
<path d="M41.9199 20.5469L44.4043 13.8496H45.3887L42.3301 22H41.4512L38.3926 13.8496H39.4355L41.9199 20.5469ZM48.0254 16.5039V22H47.082V17.2539H46.1094V16.5039H48.0254ZM46.8594 14.3301C46.8594 14.1348 46.9258 13.9688 47.0586 13.832C47.1953 13.6914 47.3594 13.6211 47.5508 13.6211C47.7422 13.6211 47.9043 13.6914 48.0371 13.832C48.1738 13.9688 48.2422 14.1348 48.2422 14.3301C48.2422 14.5254 48.1738 14.6934 48.0371 14.834C47.9043 14.9707 47.7422 15.0391 47.5508 15.0391C47.3594 15.0391 47.1953 14.9707 47.0586 14.834C46.9258 14.6934 46.8594 14.5254 46.8594 14.3301ZM51.2305 21.3496C51.9062 21.3496 52.2441 21.0586 52.2441 20.4766C52.2441 20.125 51.9219 19.8438 51.2773 19.6328L50.7031 19.4336C50.293 19.2891 49.9883 19.084 49.7891 18.8184C49.5938 18.5488 49.4961 18.2324 49.4961 17.8691C49.4961 17.502 49.666 17.166 50.0059 16.8613C50.3457 16.5527 50.7812 16.3984 51.3125 16.3984C51.6641 16.3984 51.9766 16.4453 52.25 16.5391C52.5234 16.6289 52.7344 16.7324 52.8828 16.8496L52.5488 17.5527C52.4277 17.4551 52.2559 17.3633 52.0332 17.2773C51.8105 17.1914 51.5703 17.1484 51.3125 17.1484C51.0586 17.1484 50.8496 17.2246 50.6855 17.377C50.5215 17.5293 50.4395 17.6992 50.4395 17.8867C50.4395 18.0742 50.502 18.2305 50.627 18.3555C50.752 18.4805 51.0039 18.6094 51.3828 18.7422L51.957 18.9414C52.375 19.0859 52.6855 19.2754 52.8887 19.5098C53.0879 19.748 53.1875 20.0918 53.1875 20.541C53.1875 20.9902 53.0156 21.3633 52.6719 21.6602C52.3281 21.957 51.8594 22.1055 51.2656 22.1055C50.9492 22.1055 50.6445 22.0723 50.3516 22.0059C50.0625 21.9434 49.7383 21.8086 49.3789 21.6016L49.7188 20.875C50.0195 21.0547 50.2754 21.1797 50.4863 21.25C50.6973 21.3164 50.9453 21.3496 51.2305 21.3496ZM58.2383 20.9922C57.8867 21.7344 57.3145 22.1055 56.5215 22.1055C56.2012 22.1055 55.9121 22.0352 55.6543 21.8945C55.4004 21.75 55.1992 21.5957 55.0508 21.4316C54.9062 21.2676 54.7852 21.0449 54.6875 20.7637C54.5859 20.4824 54.5352 20.1621 54.5352 19.8027V16.5039H55.4785V19.4746C55.4785 20.7285 55.9277 21.3555 56.8262 21.3555C57.0566 21.3555 57.2676 21.293 57.459 21.168C57.752 20.9805 57.9824 20.6719 58.1504 20.2422C58.209 20.0938 58.2383 19.9766 58.2383 19.8906V16.5039H59.1816V22H58.2383V20.9922ZM63.6934 19.5273C62.2559 19.5273 61.5371 19.8848 61.5371 20.5996C61.5371 20.791 61.5957 20.9688 61.7129 21.1328C61.834 21.2969 61.9707 21.3789 62.123 21.3789H62.3516C63.2109 21.3789 63.6699 20.9277 63.7285 20.0254V19.5273H63.6934ZM60.998 16.7676C61.7012 16.5215 62.2773 16.3984 62.7266 16.3984C63.1758 16.3984 63.5684 16.5098 63.9043 16.7324C64.2402 16.9551 64.4648 17.2852 64.5781 17.7227C64.6406 17.9688 64.6719 18.4707 64.6719 19.2285V21.0625C64.6719 21.4062 64.6992 21.7188 64.7539 22H63.8047C63.7539 21.8398 63.7285 21.6582 63.7285 21.4551V21.4141C63.6309 21.5312 63.5234 21.6328 63.4062 21.7188C63.0391 21.9883 62.6484 22.123 62.2344 22.123C61.5391 22.123 61.0605 21.875 60.7988 21.3789C60.6621 21.1328 60.5938 20.8809 60.5938 20.623C60.5938 19.9395 60.9941 19.4453 61.7949 19.1406C62.2754 18.957 62.8848 18.8652 63.623 18.8652H63.7285V18.2734C63.7285 17.8438 63.6465 17.5508 63.4824 17.3945C63.291 17.2148 62.9727 17.125 62.5273 17.125C62.082 17.125 61.5879 17.25 61.0449 17.5L60.998 16.7676ZM67.5664 22.1055C66.7539 22.1055 66.3477 21.5898 66.3477 20.5586V13.3574H67.291V20.5C67.291 20.8008 67.3496 21.0176 67.4668 21.1504C67.5879 21.2793 67.6992 21.3438 67.8008 21.3438C67.9023 21.3438 68.125 21.3281 68.4688 21.2969L68.5449 21.9824C68.1543 22.0645 67.8281 22.1055 67.5664 22.1055ZM73.1973 20.5176C73.3066 20.5957 73.4062 20.6719 73.4961 20.7461C73.5898 20.8203 73.6953 20.8906 73.8125 20.957C73.9297 21.0195 74.0508 21.0742 74.1758 21.1211C74.4492 21.2305 74.7559 21.2852 75.0957 21.2852C75.666 21.2852 76.0586 21.1465 76.2734 20.8691C76.457 20.6309 76.5488 20.3965 76.5488 20.166C76.5488 19.9316 76.5254 19.748 76.4785 19.6152C76.3887 19.3848 76.209 19.168 75.9395 18.9648C75.8262 18.8867 75.6914 18.8027 75.5352 18.7129L74.5742 18.2383C74.2148 18.043 73.9414 17.8535 73.7539 17.6699C73.5664 17.4863 73.4258 17.3164 73.332 17.1602C73.125 16.8125 73.0215 16.3613 73.0215 15.8066C73.0215 15.252 73.2227 14.7695 73.625 14.3594C74.0273 13.9492 74.5508 13.7441 75.1953 13.7441C75.6055 13.7441 75.9727 13.7969 76.2969 13.9023C76.625 14.0078 76.8848 14.1348 77.0762 14.2832L76.8535 15.0918C76.3887 14.7324 75.8613 14.5527 75.2715 14.5527C74.9004 14.5527 74.6094 14.6758 74.3984 14.9219C74.1914 15.168 74.0879 15.4844 74.0879 15.8711C74.0879 16.0469 74.1172 16.207 74.1758 16.3516C74.2734 16.6094 74.4766 16.8398 74.7852 17.043C74.9062 17.1289 75.0742 17.2188 75.2891 17.3125L76.209 17.7812C76.373 17.8711 76.5176 17.9609 76.6426 18.0508C76.7715 18.1367 76.8984 18.2422 77.0234 18.3672C77.418 18.7617 77.6152 19.2715 77.6152 19.8965C77.6152 20.5176 77.4023 21.041 76.9766 21.4668C76.5508 21.8926 75.9961 22.1055 75.3125 22.1055C74.5625 22.1055 73.9453 21.9727 73.4609 21.707C73.1992 21.5664 72.9922 21.4434 72.8398 21.3379L73.1973 20.5176ZM80.5977 22.1055C79.668 22.1055 79.2031 21.5898 79.2031 20.5586V17.2539H78.2305V16.5039H79.2031V15.3906L80.1465 15.0391V16.5039H81.4883V17.2539H80.1465V20.5C80.1465 20.8008 80.2227 21.0176 80.375 21.1504C80.5273 21.2793 80.6973 21.3438 80.8848 21.3438C81.248 21.3438 81.5312 21.3125 81.7344 21.25L81.8516 21.9121C81.4922 22.041 81.0742 22.1055 80.5977 22.1055ZM86.7734 20.9922C86.4219 21.7344 85.8496 22.1055 85.0566 22.1055C84.7363 22.1055 84.4473 22.0352 84.1895 21.8945C83.9355 21.75 83.7344 21.5957 83.5859 21.4316C83.4414 21.2676 83.3203 21.0449 83.2227 20.7637C83.1211 20.4824 83.0703 20.1621 83.0703 19.8027V16.5039H84.0137V19.4746C84.0137 20.7285 84.4629 21.3555 85.3613 21.3555C85.5918 21.3555 85.8027 21.293 85.9941 21.168C86.2871 20.9805 86.5176 20.6719 86.6855 20.2422C86.7441 20.0938 86.7734 19.9766 86.7734 19.8906V16.5039H87.7168V22H86.7734V20.9922ZM91.4082 22.1055C90.9551 22.1055 90.5449 21.9805 90.1777 21.7305C89.8105 21.4805 89.5293 21.1562 89.334 20.7578C89.1387 20.3555 89.041 19.9258 89.041 19.4688C89.041 18.5586 89.3047 17.8203 89.832 17.2539C90.3633 16.6836 91.0215 16.3984 91.8066 16.3984C92.1348 16.3984 92.5273 16.4609 92.9844 16.5859V13.3574H93.9512V22H92.9844V21.3555C92.543 21.8555 92.0176 22.1055 91.4082 22.1055ZM92.9844 17.4062C92.6602 17.2344 92.3398 17.1484 92.0234 17.1484C91.4766 17.1484 91.0039 17.3555 90.6055 17.7695C90.1914 18.2109 89.9844 18.7363 89.9844 19.3457C89.9844 19.9551 90.1289 20.4414 90.418 20.8047C90.7109 21.168 91.0703 21.3496 91.4961 21.3496C91.7852 21.3496 92.0605 21.252 92.3223 21.0566C92.584 20.8574 92.8047 20.6055 92.9844 20.3008V17.4062ZM97.1621 16.5039V22H96.2188V17.2539H95.2461V16.5039H97.1621ZM95.9961 14.3301C95.9961 14.1348 96.0625 13.9688 96.1953 13.832C96.332 13.6914 96.4961 13.6211 96.6875 13.6211C96.8789 13.6211 97.041 13.6914 97.1738 13.832C97.3105 13.9688 97.3789 14.1348 97.3789 14.3301C97.3789 14.5254 97.3105 14.6934 97.1738 14.834C97.041 14.9707 96.8789 15.0391 96.6875 15.0391C96.4961 15.0391 96.332 14.9707 96.1953 14.834C96.0625 14.6934 95.9961 14.5254 95.9961 14.3301ZM99.4297 19.252C99.4297 19.6309 99.4766 19.9629 99.5703 20.248C99.668 20.5293 99.7969 20.748 99.957 20.9043C100.121 21.0566 100.297 21.1699 100.484 21.2441C100.676 21.3145 100.879 21.3496 101.094 21.3496C101.531 21.3496 101.908 21.1992 102.225 20.8984C102.572 20.5664 102.746 20.0176 102.746 19.252C102.746 18.4902 102.572 17.9395 102.225 17.5996C101.904 17.3027 101.527 17.1543 101.094 17.1543C100.652 17.1543 100.275 17.3027 99.9629 17.5996C99.6074 17.9395 99.4297 18.4902 99.4297 19.252ZM98.4863 19.252C98.4863 18.0684 98.8672 17.2441 99.6289 16.7793C100.051 16.5254 100.539 16.3984 101.094 16.3984C101.645 16.3984 102.135 16.5254 102.564 16.7793C102.791 16.9199 102.988 17.0957 103.156 17.3066C103.52 17.7832 103.701 18.4316 103.701 19.252C103.701 20.4395 103.322 21.2617 102.564 21.7188C102.143 21.9766 101.652 22.1055 101.094 22.1055C100.531 22.1055 100.043 21.9766 99.6289 21.7188C99.3984 21.582 99.1992 21.4062 99.0312 21.1914C98.668 20.7266 98.4863 20.0801 98.4863 19.252Z" fill="url(#paint0_linear)"/>
<path d="M22.6525 8.00012C22.3347 7.99573 22.0272 8.11253 21.7925 8.32679C21.7922 8.32679 21.7919 8.32679 21.7917 8.32679C21.7773 8.33875 21.7634 8.35126 21.75 8.36429L15.1067 15.711L11.2292 12.531L10.89 12.2393C10.773 12.142 10.6317 12.0787 10.4812 12.0561C10.3308 12.0334 10.1771 12.0524 10.0367 12.111C10.0333 12.1123 10.03 12.1137 10.0267 12.1151L8.5125 12.7401C8.4907 12.7492 8.46929 12.7592 8.44833 12.7701C8.43507 12.7775 8.42201 12.7853 8.40917 12.7935C8.39848 12.7993 8.38792 12.8054 8.3775 12.8118C8.36389 12.8208 8.35055 12.8303 8.3375 12.8401C8.32904 12.8466 8.3207 12.8533 8.3125 12.8601C8.3 12.8698 8.28777 12.8798 8.27583 12.8901C8.26561 12.899 8.25561 12.9082 8.24583 12.9176C8.23672 12.9271 8.22782 12.9369 8.21917 12.9468C8.20974 12.9571 8.20057 12.9677 8.19167 12.9785C8.1816 12.9904 8.17188 13.0026 8.1625 13.0151C8.15564 13.0244 8.14897 13.0339 8.1425 13.0435C8.1332 13.0571 8.12431 13.071 8.11583 13.0851C8.11008 13.0947 8.10453 13.1045 8.09917 13.1143C8.09212 13.128 8.08545 13.1419 8.07917 13.156C8.0733 13.1683 8.06775 13.1808 8.0625 13.1935C8.05777 13.2056 8.05332 13.2178 8.04917 13.2301C8.0444 13.2431 8.03995 13.2561 8.03583 13.2693C8.03123 13.2844 8.02706 13.2997 8.02333 13.3151C8.02033 13.3262 8.01755 13.3373 8.015 13.3485C8.01237 13.3634 8.01015 13.3784 8.00833 13.3935C8.00632 13.4073 8.00465 13.4212 8.00333 13.4351C8.00126 13.4581 8.00015 13.4812 8 13.5043V22.3926C8.00097 22.5562 8.05009 22.716 8.14122 22.8518C8.23236 22.9877 8.36149 23.0938 8.5125 23.1568L10.0267 23.7935C10.169 23.8527 10.325 23.8713 10.4773 23.8471C10.6295 23.823 10.7721 23.7571 10.8892 23.6568L11.2292 23.3651L15.1067 20.186L21.7508 27.5318C21.7702 27.5505 21.7903 27.5685 21.8108 27.586C21.8263 27.6002 21.8422 27.6141 21.8583 27.6276C21.8742 27.6397 21.8903 27.6513 21.9067 27.6626C21.9239 27.6753 21.9414 27.6875 21.9592 27.6993C21.977 27.7103 21.995 27.7209 22.0133 27.731C22.0311 27.7414 22.0492 27.7514 22.0675 27.761C22.0862 27.77 22.1051 27.7786 22.1242 27.7868C22.1434 27.7956 22.1628 27.8039 22.1825 27.8118C22.2026 27.8193 22.2229 27.8262 22.2433 27.8326C22.2615 27.8386 22.2799 27.8442 22.2983 27.8493C22.3204 27.8555 22.3426 27.861 22.365 27.866C22.3838 27.8703 22.4027 27.8742 22.4217 27.8776C22.4424 27.8809 22.4633 27.8837 22.4842 27.886C22.5049 27.8887 22.5258 27.8909 22.5467 27.8926C22.5669 27.8939 22.5872 27.8948 22.6075 27.8951C22.6289 27.8957 22.6503 27.8957 22.6717 27.8951C22.6934 27.8943 22.715 27.8929 22.7367 27.891C22.7553 27.8894 22.7739 27.8875 22.7925 27.8851C22.8168 27.8817 22.841 27.8775 22.865 27.8726C22.8817 27.8696 22.8984 27.8663 22.915 27.8626C22.9374 27.8571 22.9596 27.851 22.9817 27.8443C23.0007 27.8392 23.0196 27.8336 23.0383 27.8276C23.058 27.8203 23.0774 27.8126 23.0967 27.8043C23.122 27.7948 23.147 27.7845 23.1717 27.7735L27.2917 25.7926C27.4428 25.7197 27.5777 25.6171 27.6883 25.491C27.7148 25.4611 27.7398 25.4299 27.7633 25.3976C27.7645 25.3957 27.7656 25.3937 27.7667 25.3918C27.7906 25.3582 27.8128 25.3234 27.8333 25.2876C27.852 25.2551 27.8693 25.2217 27.885 25.1876C27.8875 25.1829 27.89 25.1782 27.8925 25.1735C27.9048 25.1439 27.9159 25.1139 27.9258 25.0835C27.9301 25.0732 27.9343 25.063 27.9383 25.0526C27.9478 25.0232 27.9561 24.9935 27.9633 24.9635C27.966 24.9532 27.9685 24.9429 27.9708 24.9326C27.9765 24.905 27.9812 24.8772 27.985 24.8493C27.9875 24.8354 27.9897 24.8215 27.9917 24.8076C27.9941 24.7827 27.9958 24.7577 27.9967 24.7326C27.9984 24.7104 27.9995 24.6882 28 24.666V11.2326C28 11.2318 28 11.231 28 11.2301C28.0001 11.2212 28.0001 11.2123 28 11.2035C27.9993 11.1617 27.9965 11.12 27.9917 11.0785C27.9662 10.8703 27.8887 10.6718 27.7663 10.5014C27.644 10.3311 27.4808 10.1942 27.2917 10.1035L23.1717 8.12262C23.0096 8.04531 22.8328 8.00381 22.6533 8.00095L22.6525 8.00012ZM23 13.7143V22.1835L17.835 17.9501L23 13.7143ZM10.5 15.0926L13.0825 17.9485L10.4992 20.8035L10.5 15.0926Z" fill="#8C4DB5"/>
<defs>
<linearGradient id="paint0_linear" x1="38" y1="18" x2="105" y2="18" gradientUnits="userSpaceOnUse">
<stop stop-color="#994FB9"/>
<stop offset="1" stop-color="#7048AA"/>
</linearGradient>
</defs>
</svg>
