<svg width="116" height="36" viewBox="0 0 116 36" fill="none" xmlns="http://www.w3.org/2000/svg">
<rect width="116" height="36" rx="7" fill="#414345"/>
<path d="M49.2266 22.0625L52.5391 13.1328H53.8516L49.7734 24H48.6016L44.5234 13.1328H45.9141L49.2266 22.0625ZM57.3594 23.1328C58.2604 23.1328 58.7109 22.7448 58.7109 21.9688C58.7109 21.5 58.2812 21.125 57.4219 20.8438L56.6562 20.5781C56.1094 20.3854 55.7031 20.112 55.4375 19.7578C55.1771 19.3984 55.0469 18.9766 55.0469 18.4922C55.0469 18.0026 55.2734 17.5547 55.7266 17.1484C56.1797 16.737 56.7604 16.5312 57.4688 16.5312C57.9375 16.5312 58.3542 16.5938 58.7188 16.7188C59.0833 16.8385 59.3646 16.9766 59.5625 17.1328L59.1172 18.0703C58.9557 17.9401 58.7266 17.8177 58.4297 17.7031C58.1328 17.5885 57.8125 17.5312 57.4688 17.5312C57.1302 17.5312 56.8516 17.6328 56.6328 17.8359C56.4141 18.0391 56.3047 18.2656 56.3047 18.5156C56.3047 18.7656 56.388 18.974 56.5547 19.1406C56.7214 19.3073 57.0573 19.4792 57.5625 19.6562L58.3281 19.9219C58.8854 20.1146 59.2995 20.3672 59.5703 20.6797C59.8359 20.9974 59.9688 21.4557 59.9688 22.0547C59.9688 22.6536 59.7396 23.151 59.2812 23.5469C58.8229 23.9427 58.1979 24.1406 57.4062 24.1406C56.9844 24.1406 56.5781 24.0964 56.1875 24.0078C55.8021 23.9245 55.3698 23.7448 54.8906 23.4688L55.3438 22.5C55.7448 22.7396 56.0859 22.9062 56.3672 23C56.6484 23.0885 56.9792 23.1328 57.3594 23.1328ZM66.2656 23.0469C67.1771 23.0469 68.0573 22.7266 68.9062 22.0859L69.5938 23.0156C69.0417 23.4167 68.5859 23.6849 68.2266 23.8203C67.6536 24.0339 66.8672 24.1406 65.8672 24.1406C64.8672 24.1406 63.9844 23.9062 63.2188 23.4375C62.4531 22.9688 61.8698 22.3151 61.4688 21.4766C61.0677 20.6328 60.8672 19.6615 60.8672 18.5625C60.8672 17.4635 61.0677 16.4948 61.4688 15.6562C61.8698 14.8177 62.4531 14.1641 63.2188 13.6953C63.9844 13.2266 64.8776 12.9922 65.8984 12.9922C66.8724 12.9922 67.5547 13.0651 67.9453 13.2109C68.3411 13.3568 68.638 13.4896 68.8359 13.6094C69.0339 13.724 69.2865 13.8932 69.5938 14.1172L68.9062 15.0469C68.0573 14.4062 67.1771 14.0859 66.2656 14.0859H66.1719C65.5885 14.0859 65.0417 14.2109 64.5312 14.4609C63.5885 14.9193 62.9297 15.7318 62.5547 16.8984C62.3776 17.4349 62.2891 17.9922 62.2891 18.5703C62.2891 19.1484 62.375 19.7057 62.5469 20.2422C62.724 20.7734 62.9688 21.25 63.2812 21.6719C63.974 22.5885 64.9375 23.0469 66.1719 23.0469H66.2656ZM72.0312 20.3359C72.0312 20.8411 72.0938 21.2839 72.2188 21.6641C72.349 22.0391 72.5208 22.3307 72.7344 22.5391C72.9531 22.7422 73.1875 22.8932 73.4375 22.9922C73.6927 23.0859 73.9635 23.1328 74.25 23.1328C74.8333 23.1328 75.3359 22.9323 75.7578 22.5312C76.2214 22.0885 76.4531 21.3568 76.4531 20.3359C76.4531 19.3203 76.2214 18.5859 75.7578 18.1328C75.3307 17.737 74.8281 17.5391 74.25 17.5391C73.6615 17.5391 73.1589 17.737 72.7422 18.1328C72.2682 18.5859 72.0312 19.3203 72.0312 20.3359ZM70.7734 20.3359C70.7734 18.7578 71.2812 17.6589 72.2969 17.0391C72.8594 16.7005 73.5104 16.5312 74.25 16.5312C74.9844 16.5312 75.638 16.7005 76.2109 17.0391C76.513 17.2266 76.776 17.4609 77 17.7422C77.4844 18.3776 77.7266 19.2422 77.7266 20.3359C77.7266 21.9193 77.2214 23.0156 76.2109 23.625C75.6484 23.9688 74.9948 24.1406 74.25 24.1406C73.5 24.1406 72.849 23.9688 72.2969 23.625C71.9896 23.4427 71.724 23.2083 71.5 22.9219C71.0156 22.3021 70.7734 21.4401 70.7734 20.3359ZM81.8359 24.1406C81.2318 24.1406 80.6849 23.974 80.1953 23.6406C79.7057 23.3073 79.3307 22.875 79.0703 22.3438C78.8099 21.8073 78.6797 21.2344 78.6797 20.625C78.6797 19.4115 79.0312 18.4271 79.7344 17.6719C80.4427 16.9115 81.3203 16.5312 82.3672 16.5312C82.8047 16.5312 83.3281 16.6146 83.9375 16.7812V12.4766H85.2266V24H83.9375V23.1406C83.349 23.8073 82.6484 24.1406 81.8359 24.1406ZM83.9375 17.875C83.5052 17.6458 83.0781 17.5312 82.6562 17.5312C81.9271 17.5312 81.2969 17.8073 80.7656 18.3594C80.2135 18.9479 79.9375 19.6484 79.9375 20.4609C79.9375 21.2734 80.1302 21.9219 80.5156 22.4062C80.9062 22.8906 81.3854 23.1328 81.9531 23.1328C82.3385 23.1328 82.7057 23.0026 83.0547 22.7422C83.4036 22.4766 83.6979 22.1406 83.9375 21.7344V17.875ZM90.4219 17.5312C89.6979 17.5312 89.1562 17.75 88.7969 18.1875C88.5469 18.4896 88.3828 18.9167 88.3047 19.4688H92.0938C92.0469 18.901 91.8776 18.4349 91.5859 18.0703C91.2891 17.7109 90.901 17.5312 90.4219 17.5312ZM93.0625 23.5703C92.5 23.9505 91.7396 24.1406 90.7812 24.1406C89.5677 24.1406 88.6328 23.7943 87.9766 23.1016C87.3203 22.4089 86.9922 21.487 86.9922 20.3359C86.9922 18.8359 87.4792 17.75 88.4531 17.0781C88.9948 16.7135 89.599 16.5312 90.2656 16.5312C91.2969 16.5312 92.0781 16.8802 92.6094 17.5781C93.0573 18.1771 93.2969 18.9635 93.3281 19.9375L93.1406 20.4062H88.25C88.2604 21.2708 88.4922 21.9427 88.9453 22.4219C89.3984 22.8958 90.0026 23.1328 90.7578 23.1328C91.3307 23.1328 91.987 22.9792 92.7266 22.6719L93.0625 23.5703Z" fill="url(#paint0_linear)"/>
<path d="M27.292 10.1041L23.1753 8.12329C22.9426 8.01126 22.6809 7.97433 22.4263 8.01763C22.1718 8.06093 21.937 8.18231 21.7545 8.36496L13.8711 15.5566L10.4378 12.95C10.2829 12.8325 10.0918 12.7729 9.89754 12.7816C9.70332 12.7903 9.51826 12.8666 9.37445 12.9975L8.27279 13.9991C8.18694 14.0772 8.11833 14.1723 8.07136 14.2784C8.02438 14.3844 8.00008 14.4992 8 14.6152C7.99992 14.7312 8.02407 14.846 8.0709 14.9521C8.11773 15.0583 8.18621 15.1535 8.27195 15.2316L11.2495 17.9483L8.27195 20.665C8.18621 20.7431 8.11773 20.8383 8.0709 20.9445C8.02407 21.0506 7.99992 21.1654 8 21.2814C8.00008 21.3974 8.02438 21.5121 8.07136 21.6182C8.11833 21.7243 8.18694 21.8194 8.27279 21.8975L9.37529 22.8983C9.51909 23.0291 9.70415 23.1055 9.89837 23.1142C10.0926 23.1229 10.2837 23.0633 10.4386 22.9458L13.872 20.3391L21.7553 27.5308C21.9376 27.7135 22.1723 27.8349 22.4267 27.8782C22.6812 27.9215 22.9428 27.8846 23.1753 27.7725L27.2936 25.7916C27.5055 25.6894 27.6842 25.5294 27.8092 25.3301C27.9342 25.1308 28.0005 24.9002 28.0003 24.665V11.2308C28.0003 10.9953 27.9338 10.7647 27.8085 10.5654C27.6832 10.366 27.5041 10.2062 27.292 10.1041ZM23.0036 22.4883L17.022 17.9483L23.0036 13.4083V22.4883V22.4883Z" fill="#007ACC"/>
<defs>
<linearGradient id="paint0_linear" x1="44" y1="18.5" x2="94" y2="18.5" gradientUnits="userSpaceOnUse">
<stop stop-color="#1583CA"/>
<stop offset="1" stop-color="#2938B4"/>
</linearGradient>
</defs>
</svg>
