<svg width="116" height="36" viewBox="0 0 116 36" fill="none" xmlns="http://www.w3.org/2000/svg">
<rect width="116" height="36" rx="7" fill="#414345"/>
<path d="M52.5 13.8496H53.4844L50.7832 22H49.9043L47.9355 16.0586L45.9668 22H45.0879L42.3926 13.8496H43.4355L45.5566 20.5469L47.6836 13.8496H48.252L50.373 20.5469L52.5 13.8496ZM56.127 16.5039V22H55.1836V17.2539H54.2109V16.5039H56.127ZM54.9609 14.3301C54.9609 14.1348 55.0273 13.9688 55.1602 13.832C55.2969 13.6914 55.4609 13.6211 55.6523 13.6211C55.8438 13.6211 56.0059 13.6914 56.1387 13.832C56.2754 13.9688 56.3438 14.1348 56.3438 14.3301C56.3438 14.5254 56.2754 14.6934 56.1387 14.834C56.0059 14.9707 55.8438 15.0391 55.6523 15.0391C55.4609 15.0391 55.2969 14.9707 55.1602 14.834C55.0273 14.6934 54.9609 14.5254 54.9609 14.3301ZM61.7578 19.0293C61.7578 17.7754 61.3086 17.1484 60.4102 17.1484C60.1797 17.1484 59.9688 17.2109 59.7773 17.3359C59.4844 17.5234 59.2539 17.832 59.0859 18.2617C59.0273 18.4102 58.998 18.5273 58.998 18.6133V22H58.0547V16.5039H58.998V17.5117C59.3496 16.7695 59.9219 16.3984 60.7148 16.3984C61.0352 16.3984 61.3223 16.4707 61.5762 16.6152C61.834 16.7559 62.0352 16.9082 62.1797 17.0723C62.5273 17.459 62.7012 18.002 62.7012 18.7012V22H61.7578V19.0293ZM66.3926 22.1055C65.9395 22.1055 65.5293 21.9805 65.1621 21.7305C64.7949 21.4805 64.5137 21.1562 64.3184 20.7578C64.123 20.3555 64.0254 19.9258 64.0254 19.4688C64.0254 18.5586 64.2891 17.8203 64.8164 17.2539C65.3477 16.6836 66.0059 16.3984 66.791 16.3984C67.1191 16.3984 67.5117 16.4609 67.9688 16.5859V13.3574H68.9355V22H67.9688V21.3555C67.5273 21.8555 67.002 22.1055 66.3926 22.1055ZM67.9688 17.4062C67.6445 17.2344 67.3242 17.1484 67.0078 17.1484C66.4609 17.1484 65.9883 17.3555 65.5898 17.7695C65.1758 18.2109 64.9688 18.7363 64.9688 19.3457C64.9688 19.9551 65.1133 20.4414 65.4023 20.8047C65.6953 21.168 66.0547 21.3496 66.4805 21.3496C66.7695 21.3496 67.0449 21.252 67.3066 21.0566C67.5684 20.8574 67.7891 20.6055 67.9688 20.3008V17.4062ZM71.2031 19.252C71.2031 19.6309 71.25 19.9629 71.3438 20.248C71.4414 20.5293 71.5703 20.748 71.7305 20.9043C71.8945 21.0566 72.0703 21.1699 72.2578 21.2441C72.4492 21.3145 72.6523 21.3496 72.8672 21.3496C73.3047 21.3496 73.6816 21.1992 73.998 20.8984C74.3457 20.5664 74.5195 20.0176 74.5195 19.252C74.5195 18.4902 74.3457 17.9395 73.998 17.5996C73.6777 17.3027 73.3008 17.1543 72.8672 17.1543C72.4258 17.1543 72.0488 17.3027 71.7363 17.5996C71.3809 17.9395 71.2031 18.4902 71.2031 19.252ZM70.2598 19.252C70.2598 18.0684 70.6406 17.2441 71.4023 16.7793C71.8242 16.5254 72.3125 16.3984 72.8672 16.3984C73.418 16.3984 73.9082 16.5254 74.3379 16.7793C74.5645 16.9199 74.7617 17.0957 74.9297 17.3066C75.293 17.7832 75.4746 18.4316 75.4746 19.252C75.4746 20.4395 75.0957 21.2617 74.3379 21.7188C73.916 21.9766 73.4258 22.1055 72.8672 22.1055C72.3047 22.1055 71.8164 21.9766 71.4023 21.7188C71.1719 21.582 70.9727 21.4062 70.8047 21.1914C70.4414 20.7266 70.2598 20.0801 70.2598 19.252ZM83.6191 16.5039H84.5684L82.418 22H81.8086L80.2617 18.0684L78.7266 22H78.1172L75.9551 16.5039H76.9688L78.4512 20.4414L79.9277 16.5039H80.6602L82.1426 20.4414L83.6191 16.5039ZM86.9297 21.3496C87.6055 21.3496 87.9434 21.0586 87.9434 20.4766C87.9434 20.125 87.6211 19.8438 86.9766 19.6328L86.4023 19.4336C85.9922 19.2891 85.6875 19.084 85.4883 18.8184C85.293 18.5488 85.1953 18.2324 85.1953 17.8691C85.1953 17.502 85.3652 17.166 85.7051 16.8613C86.0449 16.5527 86.4805 16.3984 87.0117 16.3984C87.3633 16.3984 87.6758 16.4453 87.9492 16.5391C88.2227 16.6289 88.4336 16.7324 88.582 16.8496L88.248 17.5527C88.127 17.4551 87.9551 17.3633 87.7324 17.2773C87.5098 17.1914 87.2695 17.1484 87.0117 17.1484C86.7578 17.1484 86.5488 17.2246 86.3848 17.377C86.2207 17.5293 86.1387 17.6992 86.1387 17.8867C86.1387 18.0742 86.2012 18.2305 86.3262 18.3555C86.4512 18.4805 86.7031 18.6094 87.082 18.7422L87.6562 18.9414C88.0742 19.0859 88.3848 19.2754 88.5879 19.5098C88.7871 19.748 88.8867 20.0918 88.8867 20.541C88.8867 20.9902 88.7148 21.3633 88.3711 21.6602C88.0273 21.957 87.5586 22.1055 86.9648 22.1055C86.6484 22.1055 86.3438 22.0723 86.0508 22.0059C85.7617 21.9434 85.4375 21.8086 85.0781 21.6016L85.418 20.875C85.7188 21.0547 85.9746 21.1797 86.1855 21.25C86.3965 21.3164 86.6445 21.3496 86.9297 21.3496Z" fill="url(#paint0_linear)"/>
<path d="M8.6665 12.6665L8.56174 12.1776C8.3312 12.227 8.1665 12.4307 8.1665 12.6665H8.6665ZM27.3332 8.6665H27.8332C27.8332 8.51551 27.7649 8.3726 27.6475 8.27767C27.5301 8.18274 27.376 8.14596 27.2284 8.1776L27.3332 8.6665ZM27.3332 27.3332L27.2625 27.8281C27.4059 27.8486 27.5513 27.8059 27.6608 27.7109C27.7703 27.6159 27.8332 27.4781 27.8332 27.3332H27.3332ZM8.6665 24.6665H8.1665C8.1665 24.9153 8.34947 25.1263 8.59579 25.1615L8.6665 24.6665ZM8.77127 13.1554L27.4379 9.15541L27.2284 8.1776L8.56174 12.1776L8.77127 13.1554ZM26.8332 8.6665V27.3332H27.8332V8.6665H26.8332ZM27.4039 26.8382L8.73721 24.1715L8.59579 25.1615L27.2625 27.8281L27.4039 26.8382ZM9.1665 24.6665V12.6665H8.1665V24.6665H9.1665ZM8.6665 18.4998H27.3332V17.4998H8.6665V18.4998ZM16.1665 10.6665V25.3332H17.1665V10.6665H16.1665Z" fill="#48ACE0"/>
<defs>
<linearGradient id="paint0_linear" x1="42" y1="18" x2="90" y2="18" gradientUnits="userSpaceOnUse">
<stop stop-color="#37CFDC"/>
<stop offset="1" stop-color="#5989E4"/>
</linearGradient>
</defs>
</svg>
